<svg xmlns="http://www.w3.org/2000/svg" xmlns:xlink="http://www.w3.org/1999/xlink" width="1024" height="1024" viewBox="0 0 1024 1024" fill="none"><path d="M146.88 0C146.051 0.0228773 145.223 0.065444 144.395 0.1277C143.569 0.189956 142.744 0.271831 141.921 0.373326C141.097 0.47482 140.277 0.595819 139.46 0.736322C138.641 0.876825 137.827 1.03667 137.018 1.21587C136.208 1.39506 135.403 1.5934 134.602 1.81088C133.802 2.02836 133.007 2.26474 132.217 2.52002C131.428 2.77529 130.646 3.04918 129.87 3.34167C129.094 3.63416 128.325 3.94494 127.563 4.27399C126.801 4.60304 126.048 4.94999 125.303 5.31486C124.559 5.67973 123.823 6.06209 123.095 6.46194C122.369 6.86179 121.652 7.27869 120.945 7.71263C120.238 8.14657 119.542 8.59706 118.856 9.06411C118.171 9.53116 117.497 10.0142 116.835 10.5133C116.172 11.0124 115.521 11.527 114.883 12.057C114.245 12.587 113.62 13.1319 113.008 13.6916C112.396 14.2513 111.797 14.8253 111.213 15.4135C110.628 16.0017 110.057 16.6035 109.501 17.2188C108.944 17.8341 108.403 18.4623 107.876 19.1034C107.351 19.7445 106.84 20.3977 106.344 21.0631C105.849 21.7284 105.37 22.4052 104.907 23.0934C104.443 23.7815 103.997 24.4803 103.567 25.1897C103.137 25.899 102.724 26.6182 102.329 27.3473C101.933 28.0763 101.554 28.8143 101.194 29.5613C100.833 30.3083 100.49 31.0634 100.166 31.8267C99.8406 32.59 99.5342 33.3606 99.2461 34.1385C98.958 34.9164 98.6885 35.7006 98.4377 36.4913C98.1869 37.282 97.955 38.0781 97.742 38.8798C97.5291 39.6815 97.3353 40.4879 97.1607 41.2988C96.986 42.1097 96.8308 42.9243 96.6949 43.7426C96.559 44.5609 96.4427 45.3819 96.3458 46.2058C96.2489 47.0296 96.1717 47.8553 96.1142 48.6828C96.0566 49.5103 96.0187 50.3387 96.0005 51.168L96.0005 972.816C95.9967 973.65 96.0142 974.483 96.0529 975.316C96.0916 976.149 96.1516 976.981 96.2328 977.811C96.3139 978.641 96.4162 979.468 96.5396 980.293C96.6629 981.118 96.8072 981.939 96.9725 982.756C97.1377 983.573 97.3237 984.386 97.5304 985.194C97.7371 986.001 97.9642 986.803 98.2118 987.6C98.4595 988.396 98.7272 989.185 99.0151 989.968C99.303 990.751 99.6106 991.525 99.9381 992.292C100.266 993.059 100.613 993.818 100.979 994.567C101.345 995.316 101.73 996.056 102.134 996.785C102.537 997.515 102.959 998.234 103.4 998.942C103.84 999.647 104.299 1000.34 104.775 1001.03C105.251 1001.72 105.744 1002.39 106.254 1003.05C106.764 1003.71 107.291 1004.36 107.833 1004.99C108.377 1005.62 108.936 1006.23 109.511 1006.84C110.086 1007.45 110.676 1008.04 111.281 1008.61C111.854 1009.21 112.442 1009.79 113.044 1010.36C113.647 1010.93 114.264 1011.49 114.895 1012.03C115.525 1012.57 116.169 1013.09 116.825 1013.6C117.481 1014.11 118.15 1014.6 118.831 1015.07C119.513 1015.54 120.205 1016 120.909 1016.44C121.613 1016.88 122.327 1017.3 123.052 1017.7C123.777 1018.11 124.511 1018.49 125.256 1018.86C126 1019.23 126.753 1019.58 127.514 1019.91C128.276 1020.24 129.045 1020.55 129.822 1020.84C130.6 1021.13 131.384 1021.4 132.174 1021.65C132.965 1021.9 133.762 1022.14 134.564 1022.35C135.365 1022.56 136.173 1022.75 136.984 1022.92C137.796 1023.09 138.612 1023.25 139.432 1023.38C140.251 1023.51 141.073 1023.62 141.897 1023.71C142.722 1023.8 143.549 1023.87 144.378 1023.92C145.206 1023.97 146.035 1023.99 146.865 1024L893.152 1024C893.982 1024 894.812 1023.98 895.643 1023.94C896.472 1023.9 897.299 1023.84 898.125 1023.76C898.952 1023.67 899.776 1023.57 900.596 1023.45C901.418 1023.32 902.235 1023.18 903.048 1023.01C903.862 1022.84 904.67 1022.65 905.474 1022.44C906.278 1022.23 907.076 1022.01 907.868 1021.76C908.66 1021.51 909.445 1021.24 910.224 1020.95C911.002 1020.66 911.772 1020.35 912.534 1020.02C913.297 1019.69 914.05 1019.34 914.794 1018.97C915.539 1018.6 916.274 1018.22 916.998 1017.81C917.723 1017.41 918.437 1016.99 919.139 1016.54C919.843 1016.1 920.534 1015.64 921.214 1015.16C921.893 1014.69 922.56 1014.19 923.214 1013.68C923.867 1013.17 924.508 1012.64 925.134 1012.09C925.761 1011.55 926.373 1010.99 926.971 1010.41C927.569 1009.84 928.152 1009.25 928.72 1008.64C929.316 1008.06 929.898 1007.46 930.464 1006.85C931.031 1006.24 931.581 1005.61 932.117 1004.98C932.654 1004.34 933.173 1003.69 933.677 1003.03C934.18 1002.36 934.667 1001.69 935.138 1001C935.608 1000.31 936.061 999.614 936.497 998.905C936.933 998.195 937.352 997.475 937.753 996.745C938.153 996.014 938.535 995.275 938.899 994.526C939.263 993.777 939.609 993.019 939.935 992.253C940.263 991.487 940.571 990.713 940.859 989.932C941.148 989.151 941.417 988.363 941.667 987.568C941.917 986.773 942.147 985.973 942.357 985.167C942.568 984.361 942.758 983.55 942.928 982.735C943.099 981.92 943.25 981.101 943.38 980.278C943.509 979.455 943.619 978.63 943.708 977.802C943.798 976.974 943.868 976.144 943.917 975.312C943.964 974.481 943.992 973.649 944 972.816L944 290.016L655.68 0L146.848 0L146.865 0L146.88 0Z"   fill="#FF8F1F" ></path><path d="M944 288L706.848 288C706.022 287.98 705.197 287.94 704.373 287.881C703.548 287.822 702.726 287.743 701.906 287.645C701.085 287.546 700.268 287.428 699.453 287.291C698.638 287.154 697.827 286.997 697.02 286.822C696.213 286.646 695.41 286.451 694.612 286.237C693.814 286.023 693.021 285.79 692.234 285.539C691.447 285.287 690.667 285.017 689.892 284.728C689.118 284.439 688.351 284.132 687.592 283.807C686.833 283.482 686.081 283.138 685.338 282.777C684.595 282.416 683.86 282.038 683.135 281.642C682.41 281.246 681.694 280.833 680.989 280.403C680.283 279.974 679.588 279.527 678.904 279.064C678.219 278.601 677.546 278.122 676.885 277.627C676.223 277.132 675.573 276.622 674.936 276.096C674.299 275.57 673.674 275.029 673.063 274.474C672.451 273.919 671.853 273.349 671.269 272.765C670.684 272.181 670.114 271.583 669.558 270.972C669.002 270.361 668.461 269.737 667.934 269.1C667.407 268.463 666.896 267.814 666.401 267.153C665.905 266.492 665.425 265.82 664.962 265.136C664.499 264.452 664.052 263.757 663.621 263.052C663.19 262.347 662.777 261.632 662.38 260.907C661.983 260.182 661.604 259.448 661.243 258.705C660.881 257.962 660.537 257.211 660.211 256.452C659.885 255.693 659.577 254.926 659.288 254.152C658.999 253.378 658.728 252.598 658.475 251.811C658.222 251.024 657.989 250.232 657.774 249.434C657.559 248.637 657.364 247.834 657.187 247.027C657.011 246.22 656.854 245.409 656.716 244.594C656.578 243.779 656.459 242.962 656.36 242.142C656.261 241.321 656.181 240.499 656.121 239.675C656.061 238.851 656.021 238.026 656 237.2L656 0L943.952 288L944 288Z"   fill="#FFFFFF" fill-opacity="0.7"></path><g ><path     fill="#FFFFFF"  d="M384.425 762.75Q391.025 717.375 406.837 679.15Q422.65 640.925 448.5 605.725L364.075 605.725L364.075 570.525L499.65 570.525L499.65 596.1Q469.675 633.775 453.175 674.2Q436.675 714.625 431.175 762.75L384.425 762.75ZM624.5 607.1L525.225 607.1L525.225 570.25L680.05 570.25L680.05 607.1L578.85 725.625L682.525 725.625L682.525 762.75L521.1 762.75L521.1 725.625L624.5 607.1Z"></path></g></svg>