<svg xmlns="http://www.w3.org/2000/svg" width="1024" height="1024" viewBox="0 0 1024 1024" fill="none"><path d="M193.74 0L951 0L951 1024L193.74 1024C155.172 1024 122.235 1010.35 94.94 983.05C67.6449 955.748 54 922.807 54 884.23L54 138.77C54 100.193 67.6449 68.2525 94.94 40.95C122.235 13.6477 155.172 0 193.74 0ZM853.84 930.82L853.84 837.64L194.74 838.64C181.884 838.64 170.909 843.189 161.81 852.29C152.712 861.391 148.16 871.371 148.16 884.23C148.16 897.089 152.712 907.069 161.81 916.17C170.909 925.271 181.884 929.82 194.74 929.82L524.29 929.32L853.84 930.82ZM853.84 744.45L853.84 92.18L195.74 94.18C182.884 94.18 171.909 98.7295 162.81 107.83C153.712 116.931 149.16 127.911 149.16 140.77L149.16 750.47C164.438 745.128 179.965 742.45 195.74 742.45L853.84 744.45Z"   fill="currentColor" ></path></svg>