<svg xmlns="http://www.w3.org/2000/svg" width="1024" height="1024" viewBox="0 0 1024 1024" fill="none"><path d="M591.235 501.587L1008.19 84.9469C1029.27 63.8857 1029.27 29.3128 1008.19 8.25168L1005.91 5.97047C984.835 -15.0896 950.234 -15.0896 929.158 5.97047L512.199 423.138L95.239 5.79507C74.1628 -15.265 39.5623 -15.265 18.4861 5.79507L16.2021 8.07628C-5.40071 29.1364 -5.40071 63.7103 16.2021 84.7704L433.163 501.587L16.2021 918.227C-4.87411 939.287 -4.87411 973.861 16.2021 994.921L18.4861 997.203C39.5623 1018.27 74.1628 1018.27 95.239 997.203L512.199 580.562L929.159 997.203C950.236 1018.27 984.836 1018.27 1005.91 997.203L1008.2 994.921C1029.27 973.861 1029.27 939.287 1008.2 918.227L591.235 501.587Z"   fill="currentColor" ></path></svg>