<svg xmlns="http://www.w3.org/2000/svg" width="1024" height="1024" viewBox="0 0 1024 1024" fill="none"><path d="M949.333 70.6099L953.399 74.6762C1047.55 168.823 1047.55 322.843 953.329 416.988L852.091 510.404C848.663 514.718 844.586 518.49 839.996 521.564L838.507 522.939C838.446 522.833 838.389 522.738 838.328 522.634C830.228 527.628 820.69 530.517 810.475 530.517C781.125 530.517 757.333 506.724 757.333 477.376C757.333 459.864 765.807 444.334 778.876 434.651L874.936 338.525C926.06 287.467 926.06 204.262 874.936 153.137L870.869 149.135C819.744 98.0116 736.605 98.0116 685.61 149.135L467.396 367.222C416.277 418.342 396.865 492.613 447.985 543.733L451.987 547.672C459.958 555.643 471.482 564.058 477.638 577.881C480.601 584.006 482.264 590.876 482.264 598.136C482.264 623.851 461.416 644.701 435.7 644.701C427.259 644.701 419.351 642.445 412.527 638.519L412.511 638.533C412.48 638.506 412.445 638.48 412.414 638.453C408.132 635.974 404.28 632.838 401 629.176C396.47 625.311 392.032 621.281 387.756 617.006L383.754 613.067C289.608 518.858 294.793 382.905 388.939 288.759L607.023 70.6099C701.169 -23.5366 855.187 -23.5366 949.333 70.6099ZM614.222 373.117C622.837 379.67 631.197 386.738 639.039 394.579L643.045 398.581C737.06 492.662 729.089 641.17 635.072 735.311L416.988 953.461C322.841 1047.54 168.824 1047.54 74.6764 953.461L70.6099 949.396C-23.5366 855.316 -23.5366 701.232 70.6099 607.02L170.766 513.301C173.73 509.696 177.159 506.496 180.953 503.769L181.981 502.808C182.008 502.867 182.038 502.921 182.064 502.978C190.647 497.135 201.011 493.717 212.176 493.717C241.765 493.717 265.751 517.702 265.751 547.291C265.751 564.303 257.812 579.451 245.448 589.267L149.07 685.61C97.9457 736.607 97.9457 819.78 149.07 870.9L153.17 875.002C204.293 926.061 287.403 926.061 338.525 875.002L556.674 656.917C607.797 605.794 623.059 517.826 571.936 466.767L567.869 462.699C563.601 458.431 559.036 454.654 554.384 450.818C549.776 448.009 545.67 444.461 542.219 440.345C542.217 440.344 542.214 440.341 542.214 440.34C535.03 431.771 530.7 420.731 530.7 408.677C530.7 381.435 552.784 359.351 580.026 359.351C593.3 359.351 605.34 364.603 614.206 373.131L614.222 373.117Z" fill-rule="evenodd"  fill="currentColor" ></path></svg>