<svg xmlns="http://www.w3.org/2000/svg" width="1024" height="1024" viewBox="0 0 1024 1024" fill="none"><path d="M586.85 553.92L670.69 470.09L700.63 500.03L862.32 338.34L694.64 170.67L532.96 332.36L538.95 344.33L455.11 428.17L359.3 326.37L682.67 3L1024 344.33L700.63 667.7L586.85 553.92ZM425.17 458.11L341.33 541.95L329.36 529.97L167.67 691.66L335.34 859.33L497.03 697.64L467.09 667.7L550.92 583.87L664.7 697.64L341.33 1021.01L0 685.67L323.37 362.3L425.17 458.11ZM622.78 302.41L706.62 386.25L383.25 709.62L299.41 625.78L622.78 302.41Z"   fill="currentColor" ></path></svg>