<svg xmlns="http://www.w3.org/2000/svg" xmlns:xlink="http://www.w3.org/1999/xlink" width="1024" height="1024" viewBox="0 0 1024 1024" fill="none"><path d="M184.32 0L839.68 0C962.56 0 1024 61.44 1024 184.32L1024 839.68C1024 962.56 962.56 1024 839.68 1024L184.32 1024C61.44 1024 0 962.56 0 839.68L0 184.32C0 61.44 61.44 0 184.32 0Z"   fill="#FFFFFF" ></path><path d="M266.24 512L542.72 512L542.72 675.84L266.24 675.84L266.24 512Z"   fill="#2D5B3A" ></path><path d="M542.72 512L819.2 512L819.2 675.84L542.72 675.84L542.72 512ZM266.24 348.16L542.72 348.16L542.72 512L266.24 512L266.24 348.16Z"   fill="#387A47" ></path><path d="M542.72 348.16L819.2 348.16L819.2 512L542.72 512L542.72 348.16Z"   fill="#4FA16B" ></path><path d="M266.24 675.84L819.2 675.84L819.2 798.72C819.2 799.391 819.184 800.061 819.151 800.73C819.118 801.399 819.068 802.068 819.003 802.735C818.937 803.402 818.855 804.067 818.757 804.73C818.658 805.393 818.544 806.054 818.413 806.711C818.282 807.368 818.135 808.022 817.972 808.672C817.809 809.323 817.631 809.969 817.436 810.61C817.241 811.251 817.031 811.888 816.806 812.519C816.58 813.15 816.339 813.776 816.082 814.395C815.825 815.014 815.554 815.627 815.267 816.233C814.98 816.839 814.679 817.437 814.363 818.028C814.047 818.619 813.717 819.203 813.372 819.778C813.028 820.353 812.67 820.919 812.297 821.476C811.924 822.033 811.538 822.581 811.139 823.12C810.74 823.658 810.328 824.186 809.903 824.705C809.478 825.223 809.04 825.73 808.589 826.227C808.139 826.724 807.677 827.209 807.203 827.683C806.729 828.157 806.244 828.619 805.747 829.069C805.25 829.52 804.743 829.958 804.225 830.383C803.706 830.808 803.178 831.22 802.64 831.619C802.101 832.018 801.553 832.404 800.996 832.777C800.439 833.15 799.872 833.508 799.297 833.853C798.722 834.198 798.139 834.528 797.548 834.844C796.957 835.16 796.358 835.461 795.753 835.747C795.147 836.034 794.534 836.305 793.915 836.562C793.296 836.819 792.67 837.06 792.039 837.286C791.408 837.511 790.771 837.721 790.13 837.916C789.489 838.111 788.843 838.29 788.192 838.453C787.542 838.616 786.888 838.762 786.231 838.893C785.574 839.024 784.913 839.138 784.25 839.237C783.587 839.335 782.922 839.417 782.255 839.483C781.588 839.548 780.919 839.598 780.25 839.631C779.58 839.664 778.91 839.68 778.24 839.68L307.2 839.68C306.53 839.68 305.86 839.664 305.19 839.631C304.521 839.598 303.853 839.548 303.185 839.483C302.519 839.417 301.854 839.335 301.19 839.237C300.527 839.138 299.867 839.024 299.209 838.893C298.552 838.762 297.898 838.616 297.248 838.453C296.598 838.29 295.952 838.111 295.31 837.916C294.669 837.721 294.033 837.511 293.401 837.286C292.77 837.06 292.145 836.819 291.525 836.562C290.906 836.305 290.293 836.034 289.687 835.747C289.081 835.461 288.483 835.16 287.892 834.844C287.301 834.528 286.718 834.198 286.142 833.853C285.568 833.508 285.002 833.15 284.444 832.777C283.887 832.404 283.339 832.018 282.8 831.619C282.262 831.22 281.733 830.808 281.215 830.383C280.697 829.958 280.19 829.52 279.693 829.069C279.197 828.619 278.711 828.157 278.237 827.683C277.763 827.209 277.301 826.724 276.851 826.227C276.401 825.73 275.963 825.223 275.538 824.705C275.113 824.186 274.701 823.658 274.301 823.12C273.902 822.581 273.516 822.033 273.143 821.476C272.771 820.919 272.412 820.353 272.067 819.778C271.723 819.203 271.393 818.62 271.077 818.029C270.761 817.438 270.46 816.839 270.173 816.233C269.887 815.627 269.615 815.014 269.358 814.395C269.102 813.776 268.86 813.15 268.634 812.519C268.409 811.888 268.199 811.251 268.004 810.61C267.81 809.969 267.631 809.323 267.468 808.672C267.305 808.022 267.158 807.368 267.027 806.711C266.897 806.054 266.782 805.393 266.683 804.73C266.585 804.067 266.503 803.402 266.437 802.735C266.372 802.068 266.323 801.399 266.289 800.73C266.257 800.061 266.24 799.391 266.24 798.72L266.24 675.84Z"   fill="#2D5B3A" ></path><path d="M307.2 184.32L542.72 184.32L542.72 348.16L266.24 348.16L266.24 225.28C266.24 224.609 266.257 223.939 266.289 223.27C266.323 222.601 266.372 221.932 266.437 221.265C266.503 220.598 266.585 219.933 266.683 219.27C266.782 218.607 266.897 217.946 267.027 217.289C267.158 216.632 267.305 215.978 267.468 215.328C267.631 214.677 267.81 214.031 268.004 213.39C268.199 212.749 268.409 212.112 268.634 211.481C268.86 210.85 269.102 210.224 269.358 209.605C269.615 208.986 269.887 208.373 270.173 207.767C270.46 207.161 270.761 206.563 271.077 205.972C271.393 205.381 271.723 204.797 272.067 204.222C272.412 203.647 272.771 203.081 273.143 202.524C273.516 201.967 273.902 201.419 274.301 200.88C274.701 200.342 275.113 199.814 275.538 199.295C275.963 198.777 276.401 198.27 276.851 197.773C277.301 197.276 277.763 196.791 278.237 196.317C278.711 195.843 279.197 195.381 279.693 194.931C280.19 194.48 280.697 194.042 281.215 193.617C281.734 193.192 282.262 192.78 282.8 192.381C283.339 191.982 283.887 191.596 284.444 191.223C285.002 190.85 285.568 190.492 286.142 190.147C286.718 189.803 287.301 189.473 287.892 189.157C288.483 188.841 289.081 188.54 289.687 188.253C290.293 187.966 290.906 187.695 291.525 187.438C292.145 187.181 292.77 186.94 293.401 186.714C294.033 186.489 294.669 186.279 295.31 186.084C295.952 185.889 296.598 185.711 297.248 185.548C297.898 185.385 298.552 185.238 299.209 185.107C299.867 184.976 300.527 184.862 301.19 184.763C301.854 184.665 302.519 184.583 303.185 184.517C303.853 184.452 304.521 184.402 305.19 184.369C305.86 184.336 306.53 184.32 307.2 184.32Z"   fill="#4FA16B" ></path><path d="M122.88 327.68L409.6 327.68C436.907 327.68 450.56 341.333 450.56 368.64L450.56 655.36C450.56 682.667 436.907 696.32 409.6 696.32L122.88 696.32C95.5732 696.32 81.9199 682.667 81.9199 655.36L81.9199 368.64C81.9199 341.333 95.5732 327.68 122.88 327.68Z"   fill="#357541" ></path><path d="M542.72 184.32L778.24 184.32C778.91 184.32 779.58 184.336 780.25 184.369C780.919 184.402 781.588 184.452 782.255 184.517C782.922 184.583 783.587 184.665 784.25 184.763C784.913 184.862 785.574 184.976 786.231 185.107C786.888 185.238 787.542 185.385 788.192 185.548C788.843 185.711 789.489 185.889 790.13 186.084C790.771 186.279 791.408 186.489 792.039 186.714C792.67 186.94 793.296 187.181 793.915 187.438C794.534 187.695 795.147 187.966 795.753 188.253C796.358 188.539 796.957 188.84 797.548 189.156C798.139 189.472 798.723 189.802 799.298 190.147C799.873 190.492 800.439 190.85 800.996 191.223C801.553 191.596 802.101 191.982 802.64 192.381C803.178 192.78 803.706 193.192 804.225 193.617C804.743 194.042 805.25 194.48 805.747 194.931C806.244 195.381 806.729 195.843 807.203 196.317C807.677 196.791 808.139 197.276 808.589 197.773C809.04 198.27 809.477 198.777 809.902 199.295C810.327 199.814 810.74 200.342 811.139 200.88C811.538 201.419 811.924 201.967 812.297 202.524C812.67 203.081 813.028 203.647 813.372 204.222C813.717 204.797 814.047 205.381 814.364 205.972C814.679 206.563 814.98 207.161 815.267 207.767C815.554 208.373 815.825 208.986 816.082 209.605C816.339 210.224 816.58 210.85 816.806 211.481C817.031 212.112 817.241 212.749 817.436 213.39C817.631 214.031 817.809 214.677 817.972 215.328C818.135 215.978 818.282 216.632 818.413 217.289C818.544 217.946 818.658 218.607 818.757 219.27C818.855 219.933 818.937 220.598 819.003 221.265C819.068 221.932 819.118 222.601 819.151 223.27C819.184 223.939 819.2 224.609 819.2 225.28L819.2 348.16L542.72 348.16L542.72 184.32Z"   fill="#63C187" ></path><path d="M174.172 410.89L238.111 510.945L173.814 613.11L219.587 613.11L263.619 542.331L265.062 542.331L309.432 613.11L357.56 613.11L292.116 510.945L358.676 410.89L311.245 410.89L268.636 483.656L266.813 483.656L223.99 410.89L174.172 410.89Z"   fill="#FFFFFF" ></path></svg>