<svg xmlns="http://www.w3.org/2000/svg" width="1024" height="1024" viewBox="0 0 1024 1024" fill="none"><path d="M779.377 344.181L607.276 173.925L607.276 344.181L779.377 344.181ZM568.194 1.47981C563.559 0.318441 558.76 -0.159337 553.956 0.0464728L121.705 0.0464728C92.3613 0.0464728 70.0041 22.1788 70.0041 51.1534L70.0041 972.823C69.9933 973.669 70.0038 974.513 70.0355 975.357C70.0672 976.203 70.1201 977.046 70.1943 977.888C70.2683 978.729 70.3635 979.569 70.4798 980.406C70.5961 981.244 70.7334 982.077 70.8916 982.908C71.0498 983.738 71.2288 984.564 71.4285 985.385C71.6282 986.207 71.8484 987.023 72.0892 987.833C72.3299 988.644 72.5909 989.447 72.872 990.244C73.1531 991.041 73.4541 991.83 73.7749 992.612C74.0958 993.395 74.4361 994.169 74.7957 994.934C75.1555 995.699 75.5342 996.455 75.9318 997.2C76.3295 997.946 76.7457 998.681 77.1803 999.407C77.615 1000.13 78.0676 1000.85 78.5381 1001.55C79.0087 1002.25 79.4966 1002.94 80.0018 1003.62C80.5071 1004.3 81.029 1004.96 81.5677 1005.61C82.1063 1006.26 82.661 1006.9 83.2317 1007.53C83.8024 1008.15 84.3884 1008.76 84.9897 1009.35C85.591 1009.95 86.207 1010.53 86.8375 1011.09C87.4678 1011.65 88.1118 1012.2 88.7698 1012.73C89.4276 1013.26 90.0987 1013.78 90.7828 1014.27C91.4662 1014.77 92.1619 1015.25 92.8701 1015.71C93.5781 1016.18 94.2972 1016.62 95.0272 1017.05C95.7578 1017.48 96.4983 1017.88 97.2487 1018.27C97.9998 1018.66 98.7599 1019.03 99.5292 1019.38C100.298 1019.73 101.076 1020.07 101.862 1020.38C102.648 1020.69 103.441 1020.98 104.242 1021.25C105.043 1021.53 105.85 1021.78 106.663 1022.01C107.477 1022.24 108.296 1022.45 109.119 1022.64C109.943 1022.83 110.771 1023 111.604 1023.15C112.437 1023.3 113.272 1023.43 114.112 1023.54C114.951 1023.64 115.792 1023.73 116.635 1023.79C117.479 1023.86 118.323 1023.9 119.168 1023.93C120.014 1023.95 120.859 1023.95 121.705 1023.93L903.229 1023.93L903.299 1024C932.643 1024 955 1000.12 955 972.893L955 395.288C955 393.479 954.913 391.697 954.742 389.946C953.73 378.373 948.624 366.904 939.42 357.801L598.627 22.236C591.67 11.9288 580.969 4.46289 568.194 1.47981ZM851.738 921.786L173.336 921.786L173.266 921.716L173.266 102.19L503.874 102.19L503.874 395.218C503.863 396.062 503.873 396.906 503.905 397.75C503.936 398.594 503.989 399.436 504.064 400.277C504.138 401.118 504.233 401.957 504.349 402.794C504.464 403.631 504.602 404.463 504.76 405.293C504.917 406.124 505.096 406.948 505.296 407.769C505.495 408.59 505.715 409.405 505.956 410.214C506.196 411.024 506.455 411.827 506.737 412.623C507.017 413.421 507.318 414.209 507.639 414.99C507.959 415.773 508.298 416.545 508.657 417.31C509.017 418.074 509.394 418.829 509.792 419.574C510.189 420.319 510.604 421.055 511.038 421.779C511.472 422.505 511.924 423.218 512.394 423.919C512.864 424.621 513.35 425.311 513.855 425.989C514.359 426.666 514.88 427.331 515.418 427.982C515.955 428.633 516.51 429.271 517.079 429.894C517.649 430.518 518.234 431.127 518.835 431.722C519.435 432.316 520.05 432.894 520.68 433.458C521.309 434.022 521.953 434.569 522.61 435.1C523.266 435.631 523.935 436.145 524.619 436.644C525.302 437.141 525.996 437.621 526.704 438.084C527.41 438.546 528.128 438.991 528.857 439.418C529.587 439.845 530.326 440.254 531.076 440.643C531.826 441.033 532.584 441.402 533.353 441.755C534.121 442.106 534.898 442.438 535.684 442.751C536.467 443.064 537.26 443.356 538.06 443.629C538.859 443.902 539.666 444.155 540.479 444.387C541.291 444.619 542.109 444.831 542.932 445.023C543.755 445.214 544.582 445.385 545.414 445.535C546.245 445.684 547.081 445.814 547.919 445.922C548.756 446.03 549.597 446.117 550.44 446.183C551.282 446.249 552.125 446.294 552.97 446.317C553.815 446.341 554.66 446.343 555.505 446.325L851.738 446.325L851.738 921.786Z" fill-rule="evenodd"  fill="currentColor" ></path></svg>