<svg xmlns="http://www.w3.org/2000/svg" xmlns:xlink="http://www.w3.org/1999/xlink" width="1024" height="1024" viewBox="0 0 1024 1024" fill="none"><g  clip-path="url(#clip-path-bv9dykucCiWIvm_nfiJTE)"><path d="M186.949 884.994C183.281 884.994 179.621 884.859 175.919 884.554C61.5265 875.187 -14.6951 704.484 2.38902 495.974C19.745 283.934 119.157 130.578 234.229 140.454C285.583 144.662 321.175 185.951 346.479 221.484C357.348 236.755 358.783 261.93 343.499 272.824C328.181 283.684 302.022 286.061 291.119 270.824C266.223 235.869 246.972 219.611 228.699 218.084C166.068 213.57 94.7917 322.179 80.119 501.504C65.4463 680.794 117.024 801.593 181.489 806.854C237.7 812.114 288.953 745.998 317.789 633.904C321.627 618.937 339.157 604.444 354.679 604.444L672.989 604.444C688.307 604.444 706.717 619.695 710.759 634.424C741.701 747.57 791.965 812.211 849.399 806.374C880.612 803.218 905.194 775.703 925.539 722.184C949.11 660.045 952.396 583.97 943.769 498.924C935.142 413.877 915.788 341.088 880.159 284.854C849.455 236.392 819.342 214.996 787.789 218.594C768.327 220.596 750.741 233.96 729.309 265.284C728.922 265.852 728.52 266.401 728.099 266.944C727.678 267.487 727.232 268.017 726.779 268.534C726.326 269.05 725.864 269.556 725.379 270.044C724.895 270.533 724.392 271.007 723.879 271.464C723.365 271.922 722.839 272.358 722.299 272.784C721.759 273.209 721.204 273.611 720.639 274.004C720.073 274.396 719.496 274.777 718.909 275.134C718.321 275.492 717.727 275.833 717.119 276.154C716.511 276.475 715.886 276.781 715.259 277.064C714.632 277.348 714.001 277.609 713.359 277.854C712.716 278.099 712.066 278.319 711.409 278.524C710.752 278.729 710.097 278.919 709.429 279.084C708.761 279.249 708.085 279.39 707.409 279.514C706.732 279.638 706.052 279.751 705.369 279.834C704.687 279.916 703.996 279.972 703.309 280.014C702.622 280.055 701.937 280.074 701.249 280.074L444.979 285.074C426.231 285.074 401.009 259.867 401.009 241.134C401.009 222.4 426.231 207.204 444.979 207.204L678.989 207.204C710.067 166.988 744.345 144.783 780.959 141.084C894.876 129.477 1000.23 283.827 1021.36 492.134C1031.01 587.463 1021.33 679.503 994.019 751.314C963.757 830.93 914.852 878.005 856.229 883.944C769.45 892.801 690.516 816.1 647.619 682.354L380.349 682.354C341.629 809.109 269.415 884.994 186.949 884.994ZM321.119 440.764L287.159 440.764L287.159 406.824C287.159 388.09 271.937 372.884 253.189 372.884C234.441 372.884 219.229 388.09 219.229 406.824L219.229 440.764L185.259 440.764C166.511 440.764 151.299 455.96 151.299 474.694C151.299 493.427 166.511 508.634 185.259 508.634L219.229 508.634L219.229 542.574C219.229 561.341 234.441 576.514 253.189 576.514C271.937 576.514 287.159 561.341 287.159 542.574L287.159 508.634L321.119 508.634C339.867 508.634 355.079 493.427 355.079 474.694C355.079 455.96 339.867 440.764 321.119 440.764ZM738.659 372.884C738.659 373.995 738.685 375.104 738.739 376.214C738.793 377.324 738.88 378.429 738.989 379.534C739.098 380.64 739.236 381.745 739.399 382.844C739.561 383.942 739.741 385.044 739.959 386.134C740.176 387.224 740.428 388.296 740.699 389.374C740.97 390.451 741.266 391.531 741.589 392.594C741.912 393.657 742.264 394.708 742.639 395.754C743.014 396.799 743.413 397.837 743.839 398.864C744.265 399.889 744.714 400.899 745.189 401.904C745.663 402.909 746.155 403.905 746.679 404.884C747.203 405.864 747.758 406.821 748.329 407.774C748.901 408.726 749.491 409.681 750.109 410.604C750.727 411.528 751.367 412.422 752.029 413.314C752.691 414.207 753.374 415.086 754.079 415.944C754.785 416.803 755.513 417.641 756.259 418.464C757.005 419.287 757.773 420.089 758.559 420.874C759.346 421.66 760.145 422.428 760.969 423.174C761.793 423.919 762.639 424.648 763.499 425.354C764.358 426.058 765.236 426.732 766.129 427.394C767.022 428.055 767.935 428.696 768.859 429.314C769.784 429.931 770.716 430.532 771.669 431.104C772.623 431.674 773.598 432.22 774.579 432.744C775.559 433.268 776.544 433.76 777.549 434.234C778.554 434.709 779.573 435.168 780.599 435.594C781.626 436.019 782.652 436.419 783.699 436.794C784.746 437.168 785.814 437.511 786.879 437.834C787.943 438.156 789.001 438.454 790.079 438.724C791.157 438.994 792.249 439.237 793.339 439.454C794.429 439.671 795.519 439.871 796.619 440.034C797.719 440.197 798.822 440.324 799.929 440.434C801.035 440.543 802.148 440.62 803.259 440.674C804.369 440.729 805.478 440.764 806.589 440.764C807.7 440.764 808.809 440.729 809.919 440.674C811.03 440.62 812.143 440.543 813.249 440.434C814.356 440.324 815.469 440.197 816.569 440.034C817.669 439.871 818.759 439.671 819.849 439.454C820.939 439.237 822.021 438.994 823.099 438.724C824.177 438.454 825.245 438.156 826.309 437.834C827.374 437.511 828.432 437.168 829.479 436.794C830.526 436.419 831.562 436.019 832.589 435.594C833.615 435.168 834.634 434.709 835.639 434.234C836.644 433.76 837.629 433.268 838.609 432.744C839.59 432.22 840.566 431.674 841.519 431.104C842.473 430.532 843.405 429.931 844.329 429.314C845.253 428.696 846.166 428.055 847.059 427.394C847.952 426.732 848.83 426.058 849.689 425.354C850.549 424.648 851.385 423.919 852.209 423.174C853.033 422.428 853.843 421.66 854.629 420.874C855.416 420.089 856.183 419.287 856.929 418.464C857.675 417.641 858.403 416.803 859.109 415.944C859.814 415.086 860.487 414.207 861.149 413.314C861.811 412.422 862.461 411.528 863.079 410.604C863.697 409.681 864.287 408.726 864.859 407.774C865.43 406.821 865.975 405.864 866.499 404.884C867.022 403.905 867.523 402.909 867.999 401.904C868.475 400.899 868.923 399.889 869.349 398.864C869.775 397.837 870.174 396.799 870.549 395.754C870.924 394.708 871.276 393.657 871.599 392.594C871.922 391.531 872.218 390.451 872.489 389.374C872.76 388.296 872.992 387.224 873.209 386.134C873.427 385.044 873.627 383.942 873.789 382.844C873.952 381.745 874.09 380.64 874.199 379.534C874.308 378.429 874.385 377.324 874.439 376.214C874.493 375.104 874.519 373.995 874.519 372.884C874.519 371.773 874.493 370.663 874.439 369.554C874.385 368.443 874.308 367.339 874.199 366.234C874.09 365.128 873.952 364.022 873.789 362.924C873.627 361.825 873.427 360.733 873.209 359.644C872.992 358.555 872.76 357.471 872.489 356.394C872.218 355.316 871.922 354.246 871.599 353.184C871.276 352.121 870.924 351.069 870.549 350.024C870.174 348.978 869.775 347.94 869.349 346.914C868.923 345.888 868.475 344.879 867.999 343.874C867.525 342.87 867.023 341.874 866.499 340.894C865.975 339.914 865.43 338.947 864.859 337.994C864.287 337.041 863.697 336.098 863.079 335.174C862.461 334.25 861.811 333.337 861.149 332.444C860.487 331.552 859.814 330.683 859.109 329.824C858.403 328.965 857.675 328.127 856.929 327.304C856.183 326.481 855.416 325.67 854.629 324.884C853.843 324.099 853.033 323.339 852.209 322.594C851.385 321.848 850.549 321.129 849.689 320.424C848.83 319.719 847.952 319.025 847.059 318.364C846.166 317.702 845.253 317.071 844.329 316.454C843.405 315.836 842.472 315.235 841.519 314.664C840.565 314.093 839.59 313.558 838.609 313.034C837.629 312.51 836.644 311.999 835.639 311.524C834.634 311.049 833.615 310.599 832.589 310.174C831.562 309.748 830.526 309.348 829.479 308.974C828.432 308.6 827.374 308.266 826.309 307.944C825.245 307.621 824.177 307.314 823.099 307.044C822.021 306.774 820.939 306.53 819.849 306.314C818.759 306.097 817.669 305.907 816.569 305.744C815.469 305.58 814.356 305.453 813.249 305.344C812.143 305.234 811.03 305.148 809.919 305.094C808.809 305.04 807.7 305.014 806.589 305.014C805.478 305.014 804.369 305.04 803.259 305.094C802.148 305.148 801.035 305.234 799.929 305.344C798.822 305.453 797.719 305.58 796.619 305.744C795.519 305.907 794.429 306.097 793.339 306.314C792.249 306.53 791.157 306.774 790.079 307.044C789.001 307.314 787.943 307.621 786.879 307.944C785.814 308.266 784.746 308.6 783.699 308.974C782.652 309.348 781.626 309.748 780.599 310.174C779.573 310.599 778.554 311.049 777.549 311.524C776.544 311.999 775.559 312.51 774.579 313.034C773.598 313.558 772.623 314.093 771.669 314.664C770.716 315.235 769.784 315.836 768.859 316.454C767.935 317.071 767.022 317.702 766.129 318.364C765.236 319.025 764.358 319.719 763.499 320.424C762.639 321.129 761.793 321.848 760.969 322.594C760.145 323.339 759.346 324.099 758.559 324.884C757.773 325.67 757.005 326.481 756.259 327.304C755.513 328.127 754.785 328.965 754.079 329.824C753.374 330.683 752.691 331.552 752.029 332.444C751.367 333.337 750.727 334.25 750.109 335.174C749.491 336.098 748.901 337.041 748.329 337.994C747.758 338.947 747.203 339.914 746.679 340.894C746.155 341.874 745.663 342.87 745.189 343.874C744.714 344.879 744.265 345.888 743.839 346.914C743.413 347.94 743.014 348.978 742.639 350.024C742.264 351.069 741.912 352.121 741.589 353.184C741.266 354.246 740.97 355.316 740.699 356.394C740.428 357.471 740.176 358.555 739.959 359.644C739.741 360.733 739.561 361.825 739.399 362.924C739.236 364.022 739.098 365.128 738.989 366.234C738.88 367.339 738.793 368.443 738.739 369.554C738.685 370.663 738.659 371.773 738.659 372.884ZM602.799 508.634C602.799 509.745 602.835 510.854 602.889 511.964C602.943 513.074 603.02 514.179 603.129 515.284C603.238 516.39 603.376 517.495 603.539 518.594C603.701 519.692 603.891 520.794 604.109 521.884C604.326 522.973 604.568 524.046 604.839 525.124C605.11 526.201 605.406 527.281 605.729 528.344C606.052 529.407 606.404 530.458 606.779 531.504C607.154 532.549 607.553 533.577 607.979 534.604C608.405 535.63 608.854 536.649 609.329 537.654C609.803 538.659 610.305 539.655 610.829 540.634C611.353 541.614 611.898 542.571 612.469 543.524C613.041 544.476 613.631 545.42 614.249 546.344C614.867 547.267 615.507 548.172 616.169 549.064C616.831 549.956 617.514 550.836 618.219 551.694C618.925 552.553 619.653 553.391 620.399 554.214C621.145 555.037 621.913 555.839 622.699 556.624C623.486 557.41 624.285 558.178 625.109 558.924C625.933 559.669 626.779 560.399 627.639 561.104C628.498 561.808 629.376 562.482 630.269 563.144C631.162 563.805 632.075 564.446 632.999 565.064C633.924 565.681 634.856 566.272 635.809 566.844C636.763 567.414 637.738 567.97 638.719 568.494C639.699 569.018 640.684 569.51 641.689 569.984C642.694 570.459 643.713 570.919 644.739 571.344C645.766 571.769 646.802 572.169 647.849 572.544C648.896 572.918 649.954 573.261 651.019 573.584C652.083 573.906 653.151 574.204 654.229 574.474C655.307 574.744 656.389 574.987 657.479 575.204C658.569 575.421 659.659 575.611 660.759 575.774C661.859 575.937 662.972 576.076 664.079 576.184C665.186 576.293 666.289 576.37 667.399 576.424C668.509 576.478 669.618 576.514 670.729 576.514C671.84 576.514 672.949 576.478 674.059 576.424C675.17 576.37 676.293 576.293 677.399 576.184C678.506 576.076 679.609 575.937 680.709 575.774C681.809 575.611 682.899 575.421 683.989 575.204C685.079 574.987 686.171 574.744 687.249 574.474C688.327 574.204 689.385 573.906 690.449 573.584C691.514 573.261 692.573 572.918 693.619 572.544C694.666 572.169 695.702 571.769 696.729 571.344C697.755 570.919 698.774 570.459 699.779 569.984C700.784 569.51 701.769 569.018 702.749 568.494C703.73 567.97 704.705 567.414 705.659 566.844C706.612 566.272 707.545 565.681 708.469 565.064C709.393 564.446 710.306 563.805 711.199 563.144C712.092 562.482 712.97 561.808 713.829 561.104C714.689 560.399 715.525 559.669 716.349 558.924C717.173 558.178 717.983 557.41 718.769 556.624C719.556 555.839 720.323 555.037 721.069 554.214C721.815 553.391 722.543 552.553 723.249 551.694C723.954 550.836 724.637 549.956 725.299 549.064C725.961 548.172 726.601 547.267 727.219 546.344C727.837 545.421 728.427 544.476 728.999 543.524C729.57 542.571 730.125 541.614 730.649 540.634C731.173 539.655 731.665 538.659 732.139 537.654C732.615 536.649 733.063 535.63 733.489 534.604C733.915 533.577 734.314 532.549 734.689 531.504C735.064 530.458 735.416 529.407 735.739 528.344C736.062 527.281 736.358 526.201 736.629 525.124C736.9 524.046 737.133 522.973 737.349 521.884C737.567 520.794 737.767 519.692 737.929 518.594C738.092 517.495 738.23 516.39 738.339 515.284C738.448 514.179 738.535 513.074 738.589 511.964C738.643 510.854 738.659 509.745 738.659 508.634C738.659 507.523 738.643 506.413 738.589 505.304C738.535 504.193 738.448 503.089 738.339 501.984C738.23 500.878 738.092 499.772 737.929 498.674C737.767 497.575 737.567 496.483 737.349 495.394C737.133 494.304 736.9 493.221 736.629 492.144C736.358 491.066 736.062 489.996 735.739 488.934C735.416 487.871 735.064 486.819 734.689 485.774C734.314 484.728 733.915 483.69 733.489 482.664C733.063 481.638 732.615 480.629 732.139 479.624C731.665 478.62 731.173 477.614 730.649 476.634C730.125 475.654 729.57 474.697 728.999 473.744C728.427 472.791 727.837 471.848 727.219 470.924C726.601 470 725.961 469.087 725.299 468.194C724.637 467.302 723.954 466.433 723.249 465.574C722.543 464.715 721.815 463.877 721.069 463.054C720.323 462.231 719.556 461.42 718.769 460.634C717.983 459.849 717.173 459.089 716.349 458.344C715.525 457.598 714.689 456.879 713.829 456.174C712.97 455.469 712.092 454.775 711.199 454.114C710.306 453.452 709.393 452.811 708.469 452.194C707.545 451.576 706.612 450.985 705.659 450.414C704.705 449.843 703.73 449.298 702.749 448.774C701.769 448.25 700.784 447.749 699.779 447.274C698.774 446.799 697.755 446.349 696.729 445.924C695.702 445.498 694.666 445.098 693.619 444.724C692.573 444.35 691.514 444.006 690.449 443.684C689.385 443.361 688.327 443.064 687.249 442.794C686.171 442.524 685.079 442.28 683.989 442.064C682.899 441.847 681.809 441.657 680.709 441.494C679.609 441.33 678.506 441.203 677.399 441.094C676.293 440.984 675.17 440.898 674.059 440.844C672.949 440.79 671.84 440.764 670.729 440.764C669.618 440.764 668.509 440.79 667.399 440.844C666.289 440.898 665.186 440.984 664.079 441.094C662.972 441.203 661.859 441.33 660.759 441.494C659.659 441.657 658.569 441.847 657.479 442.064C656.389 442.28 655.307 442.524 654.229 442.794C653.151 443.064 652.083 443.361 651.019 443.684C649.954 444.006 648.896 444.35 647.849 444.724C646.802 445.098 645.766 445.498 644.739 445.924C643.713 446.349 642.694 446.799 641.689 447.274C640.684 447.749 639.699 448.25 638.719 448.774C637.738 449.298 636.763 449.843 635.809 450.414C634.856 450.985 633.924 451.576 632.999 452.194C632.075 452.811 631.162 453.452 630.269 454.114C629.376 454.775 628.498 455.469 627.639 456.174C626.779 456.879 625.933 457.598 625.109 458.344C624.285 459.089 623.486 459.849 622.699 460.634C621.913 461.42 621.145 462.231 620.399 463.054C619.653 463.877 618.925 464.715 618.219 465.574C617.514 466.433 616.831 467.302 616.169 468.194C615.507 469.087 614.867 470 614.249 470.924C613.631 471.848 613.041 472.791 612.469 473.744C611.898 474.697 611.353 475.654 610.829 476.634C610.305 477.614 609.803 478.62 609.329 479.624C608.854 480.629 608.405 481.638 607.979 482.664C607.553 483.69 607.154 484.728 606.779 485.774C606.404 486.819 606.052 487.871 605.729 488.934C605.406 489.996 605.11 491.066 604.839 492.144C604.568 493.221 604.326 494.304 604.109 495.394C603.891 496.483 603.701 497.575 603.539 498.674C603.376 499.772 603.238 500.878 603.129 501.984C603.02 503.089 602.943 504.193 602.889 505.304C602.835 506.413 602.799 507.523 602.799 508.634Z"   fill="#000000" ></path></g><defs><clipPath id="clip-path-bv9dykucCiWIvm_nfiJTE"><path d="M0 1024L1024 1024L1024 0L0 0L0 1024Z" fill="white"/></clipPath></defs></svg>