<svg xmlns="http://www.w3.org/2000/svg" viewBox="0 0 1024 1024" fill="none">
  <path
    fill="currentColor"
    d="M1002.77 503.799 566.329 67.5887 537.075 38.3349C523.182 24.555 500.819 24.555 486.926 38.3349L21.2357 503.799C7.34296 517.692-.11169 536.103.00126245 555.756.453057 595.514 33.5472 627.253 73.3054 627.253h48.0036v367.876H902.692V627.253h49.02c19.315 0 37.499-7.568 51.168-21.235C1016.55 592.351 1024 574.167 1024 554.852c0-19.201-7.57-37.386-21.23-51.053ZM575.252 913.805H448.749V683.389h126.503v230.416Zm246.117-367.876v367.876H647.54V656.281c0-24.962-20.218-45.18-45.18-45.18H421.641c-24.962 0-45.18 20.218-45.18 45.18v257.524H202.632V545.929H94.201L512.113 128.355l26.092 26.092 391.708 391.482H821.369Z"
  />
</svg>
