<svg xmlns="http://www.w3.org/2000/svg" width="1024" height="1024" viewBox="0 0 1024 1024" fill="none"><path d="M854.555 0L327.213 0C237.567 0 164.064 69.9535 158.111 158.111C69.9535 163.95 0 237.567 0 327.213L0 854.555C0 947.979 76.0215 1024 169.445 1024L696.787 1024C786.433 1024 859.936 954.047 865.889 865.889C954.047 860.05 1024 786.433 1024 696.787L1024 169.445C1024 76.0215 947.979 0 854.555 0ZM802.118 854.44C802.118 912.487 754.834 959.771 696.787 959.771L169.445 959.771C111.399 959.771 64.1145 912.487 64.1145 854.44L64.1145 327.098C64.1145 269.052 111.399 221.767 169.445 221.767L696.787 221.767C754.834 221.767 802.118 269.052 802.118 327.098L802.118 854.44ZM959.885 696.787C959.885 750.941 918.898 795.592 866.233 801.431L866.233 327.098C866.233 233.674 790.211 157.653 696.787 157.653L222.569 157.653C228.408 105.102 273.174 64 327.213 64L854.555 64C912.601 64 959.885 111.284 959.885 169.331L959.885 696.787Z"   fill="currentColor" ></path></svg>