<svg xmlns="http://www.w3.org/2000/svg" width="1024" height="1024" viewBox="0 0 1024 1024" fill="none"><path d="M854.688 1024L169.426 1024C76.013 1024 0 947.987 0 854.573L0 169.426C0 76.013 76.013 0 169.426 0L854.573 0C947.987 0 1024 76.013 1024 169.426L1024 854.573C1024.11 947.987 948.101 1024 854.688 1024ZM169.426 64.1073C111.386 64.1073 64.1073 111.386 64.1073 169.426L64.1073 854.573C64.1073 912.613 111.386 959.893 169.426 959.893L854.573 959.893C912.613 959.893 959.893 912.613 959.893 854.573L959.893 169.426C959.893 111.386 912.613 64.1073 854.573 64.1073L169.426 64.1073Z"   fill="currentColor" ></path></svg>