<svg xmlns="http://www.w3.org/2000/svg" width="1024" height="1024" viewBox="0 0 1024 1024" fill="none"><path d="M720.83 477C721.594 477.441 722.346 477.9 723.08 478.39C723.814 478.88 724.53 479.393 725.23 479.93C725.93 480.467 726.617 481.028 727.28 481.61C727.943 482.192 728.586 482.796 729.21 483.42C729.834 484.044 730.439 484.687 731.02 485.35C731.602 486.013 732.153 486.7 732.69 487.4C733.227 488.101 733.75 488.816 734.24 489.55C734.73 490.284 735.189 491.026 735.63 491.79C736.071 492.554 736.49 493.328 736.88 494.12C737.27 494.912 737.633 495.716 737.97 496.53C738.307 497.344 738.616 498.175 738.9 499.01C739.184 499.846 739.441 500.688 739.67 501.54C739.899 502.392 740.097 503.255 740.27 504.12C740.442 504.985 740.585 505.845 740.7 506.72C740.815 507.595 740.902 508.48 740.96 509.36C741.017 510.24 741.05 511.117 741.05 512C741.05 512.883 741.017 513.76 740.96 514.64C740.902 515.52 740.815 516.405 740.7 517.28C740.585 518.155 740.442 519.025 740.27 519.89C740.097 520.755 739.899 521.608 739.67 522.46C739.441 523.312 739.184 524.155 738.9 524.99C738.616 525.825 738.307 526.656 737.97 527.47C737.633 528.284 737.27 529.088 736.88 529.88C736.49 530.672 736.071 531.446 735.63 532.21C735.189 532.974 734.73 533.716 734.24 534.45C733.75 535.184 733.227 535.899 732.69 536.6C732.153 537.3 731.602 537.987 731.02 538.65C730.439 539.313 729.834 539.956 729.21 540.58C728.586 541.204 727.943 541.808 727.28 542.39C726.617 542.972 725.93 543.533 725.23 544.07C724.53 544.607 723.814 545.12 723.08 545.61C722.346 546.1 721.594 546.559 720.83 547L437.9 710.29C437.136 710.731 436.362 711.15 435.57 711.54C434.778 711.93 433.975 712.293 433.16 712.63C432.345 712.967 431.515 713.276 430.68 713.56C429.845 713.843 429.003 714.091 428.15 714.32C427.297 714.547 426.445 714.748 425.58 714.92C424.715 715.092 423.835 715.235 422.96 715.35C422.086 715.465 421.21 715.552 420.33 715.61C419.45 715.667 418.573 715.7 417.69 715.7C416.808 715.7 415.92 715.667 415.04 715.61C414.16 715.552 413.285 715.465 412.41 715.35C411.536 715.235 410.665 715.093 409.8 714.92C408.935 714.748 408.083 714.549 407.23 714.32C406.377 714.091 405.535 713.834 404.7 713.55C403.865 713.266 403.035 712.957 402.22 712.62C401.405 712.283 400.602 711.92 399.81 711.53C399.019 711.14 398.244 710.721 397.48 710.28C396.716 709.839 395.964 709.37 395.23 708.88C394.496 708.389 393.78 707.877 393.08 707.34C392.38 706.803 391.703 706.252 391.04 705.67C390.377 705.088 389.734 704.482 389.11 703.86C388.486 703.236 387.882 702.593 387.3 701.93C386.719 701.267 386.157 700.59 385.62 699.89C385.083 699.19 384.57 698.474 384.08 697.74C383.59 697.006 383.121 696.254 382.68 695.49C382.239 694.726 381.83 693.95 381.44 693.16C381.05 692.368 380.677 691.564 380.34 690.75C380.003 689.936 379.694 689.115 379.41 688.28C379.126 687.445 378.869 686.602 378.64 685.75C378.411 684.898 378.212 684.035 378.04 683.17C377.867 682.305 377.725 681.434 377.61 680.56C377.495 679.685 377.408 678.81 377.35 677.93C377.293 677.05 377.26 676.171 377.26 675.29L377.26 348.71C377.26 347.829 377.293 346.95 377.35 346.07C377.408 345.19 377.495 344.314 377.61 343.44C377.725 342.565 377.867 341.695 378.04 340.83C378.212 339.965 378.411 339.102 378.64 338.25C378.869 337.398 379.126 336.555 379.41 335.72C379.694 334.885 380.003 334.064 380.34 333.25C380.677 332.436 381.05 331.632 381.44 330.84C381.83 330.05 382.239 329.274 382.68 328.51C383.121 327.746 383.59 326.994 384.08 326.26C384.57 325.526 385.083 324.81 385.62 324.11C386.157 323.41 386.719 322.733 387.3 322.07C387.882 321.407 388.486 320.764 389.11 320.14C389.734 319.517 390.377 318.912 391.04 318.33C391.703 317.748 392.38 317.197 393.08 316.66C393.78 316.123 394.496 315.611 395.23 315.12C395.964 314.63 396.716 314.161 397.48 313.72C398.244 313.279 399.019 312.86 399.81 312.47C400.602 312.08 401.405 311.717 402.22 311.38C403.035 311.043 403.865 310.734 404.7 310.45C405.535 310.166 406.377 309.909 407.23 309.68C408.083 309.451 408.935 309.252 409.8 309.08C410.665 308.907 411.536 308.765 412.41 308.65C413.285 308.535 414.16 308.447 415.04 308.39C415.92 308.332 416.808 308.3 417.69 308.3C418.573 308.3 419.45 308.332 420.33 308.39C421.21 308.447 422.086 308.535 422.96 308.65C423.835 308.765 424.715 308.908 425.58 309.08C426.445 309.252 427.297 309.453 428.15 309.68C429.003 309.909 429.845 310.156 430.68 310.44C431.515 310.723 432.345 311.033 433.16 311.37C433.975 311.707 434.778 312.07 435.57 312.46C436.362 312.85 437.136 313.269 437.9 313.71L720.83 477ZM451.36 407.02L451.36 616.98L633.28 512L451.36 407.02ZM0 121.42C0 99.1006 18.1124 81 40.44 81L983.6 81C1005.9 81 1024 99.1006 1024 121.42L1024 902.58C1024 924.899 1005.89 943 983.56 943L40.47 943C39.8081 943 39.141 942.982 38.48 942.95C37.819 942.918 37.1585 942.874 36.5 942.81C35.8406 942.746 35.1843 942.667 34.53 942.57C33.8748 942.473 33.2293 942.359 32.58 942.23C31.9307 942.101 31.2817 941.96 30.64 941.8C29.9974 941.64 29.3632 941.462 28.73 941.27C28.0968 941.079 27.464 940.873 26.84 940.65C26.2169 940.428 25.6014 940.184 24.99 939.93C24.3786 939.677 23.7687 939.413 23.17 939.13C22.5713 938.847 21.9836 938.552 21.4 938.24C20.8164 937.928 20.2384 937.6 19.67 937.26C19.1025 936.92 18.5407 936.567 17.99 936.2C17.4401 935.833 16.9022 935.454 16.37 935.06C15.8386 934.666 15.322 934.25 14.81 933.83C14.2988 933.411 13.791 932.984 13.3 932.54C12.8099 932.096 12.3282 931.638 11.86 931.17C11.3918 930.703 10.9446 930.221 10.5 929.73C10.0562 929.24 9.62022 928.741 9.2 928.23C8.77979 927.719 8.37411 927.202 7.98 926.67C7.58589 926.138 7.20716 925.591 6.84 925.04C6.472 924.489 6.11021 923.937 5.77 923.37C5.42979 922.803 5.11158 922.225 4.8 921.64C4.48758 921.057 4.1821 920.469 3.9 919.87C3.61705 919.273 3.35347 918.661 3.1 918.05C2.84737 917.438 2.61316 916.823 2.39 916.2C2.16768 915.578 1.952 914.953 1.76 914.32C1.568 913.686 1.4 913.041 1.24 912.4C1.07916 911.757 0.92884 911.119 0.8 910.47C0.671151 909.821 0.556844 909.164 0.46 908.51C0.363166 907.855 0.283999 907.198 0.22 906.54C0.155151 905.881 0.112005 905.22 0.08 904.56C0.0480047 903.9 0.03 903.242 0.03 902.58L0.03 121.45L0 121.42ZM74.1 868.9L945.93 864.9L945.93 159.1L78.07 159.1L78.07 864.96L74.1 868.9Z"   fill="currentColor" ></path></svg>