<svg xmlns="http://www.w3.org/2000/svg" xmlns:xlink="http://www.w3.org/1999/xlink" width="1024" height="1024" viewBox="0 0 1024 1024" fill="none"><path d="M138.88 0C138.051 0.0228773 137.223 0.065444 136.395 0.1277C135.569 0.189956 134.744 0.271831 133.921 0.373326C133.097 0.47482 132.277 0.595819 131.46 0.736322C130.641 0.876825 129.827 1.03667 129.018 1.21587C128.208 1.39506 127.403 1.5934 126.602 1.81088C125.802 2.02836 125.007 2.26474 124.217 2.52002C123.428 2.77529 122.646 3.04918 121.869 3.34167C121.093 3.63416 120.325 3.94494 119.563 4.27399C118.801 4.60304 118.048 4.94999 117.303 5.31486C116.559 5.67973 115.823 6.06209 115.095 6.46194C114.369 6.86179 113.652 7.27869 112.945 7.71263C112.238 8.14657 111.542 8.59706 110.856 9.06411C110.171 9.53116 109.497 10.0142 108.835 10.5133C108.172 11.0124 107.521 11.527 106.883 12.057C106.245 12.587 105.62 13.1319 105.008 13.6916C104.396 14.2513 103.797 14.8253 103.213 15.4135C102.628 16.0017 102.057 16.6035 101.501 17.2188C100.944 17.8341 100.403 18.4623 99.8765 19.1034C99.3505 19.7445 98.8398 20.3977 98.3445 21.0631C97.8492 21.7284 97.3698 22.4052 96.9065 23.0934C96.4432 23.7815 95.9965 24.4803 95.5665 25.1897C95.1365 25.899 94.7238 26.6182 94.3285 27.3473C93.9325 28.0763 93.5542 28.8143 93.1935 29.5613C92.8328 30.3083 92.4902 31.0634 92.1655 31.8267C91.8406 32.59 91.5342 33.3606 91.2461 34.1385C90.958 34.9164 90.6885 35.7006 90.4377 36.4913C90.1869 37.282 89.955 38.0781 89.742 38.8798C89.5291 39.6815 89.3353 40.4879 89.1607 41.2988C88.986 42.1097 88.8308 42.9243 88.6949 43.7426C88.559 44.5609 88.4427 45.3819 88.3458 46.2058C88.2489 47.0296 88.1717 47.8553 88.1142 48.6828C88.0566 49.5103 88.0187 50.3387 88.0005 51.168L88.0005 972.816C87.9967 973.65 88.0142 974.483 88.0529 975.316C88.0916 976.149 88.1516 976.981 88.2328 977.811C88.3139 978.641 88.4162 979.468 88.5396 980.293C88.6629 981.118 88.8072 981.939 88.9725 982.756C89.1377 983.573 89.3237 984.386 89.5304 985.194C89.7371 986.001 89.9642 986.803 90.2118 987.6C90.4595 988.396 90.7272 989.185 91.0151 989.968C91.303 990.751 91.6106 991.525 91.9381 992.292C92.2657 993.059 92.6125 993.818 92.9785 994.567C93.3445 995.316 93.7295 996.056 94.1335 996.785C94.5368 997.515 94.9588 998.234 95.3995 998.942C95.8402 999.647 96.2985 1000.34 96.7745 1001.03C97.2505 1001.72 97.7435 1002.39 98.2535 1003.05C98.7642 1003.71 99.2908 1004.36 99.8335 1004.99C100.377 1005.62 100.936 1006.23 101.511 1006.84C102.086 1007.45 102.676 1008.04 103.281 1008.61C103.854 1009.21 104.442 1009.79 105.044 1010.36C105.647 1010.93 106.264 1011.49 106.895 1012.03C107.525 1012.57 108.169 1013.09 108.825 1013.6C109.481 1014.11 110.15 1014.6 110.831 1015.07C111.513 1015.54 112.205 1016 112.909 1016.44C113.613 1016.88 114.327 1017.3 115.052 1017.7C115.777 1018.11 116.511 1018.49 117.256 1018.86C118 1019.23 118.753 1019.58 119.514 1019.91C120.276 1020.24 121.045 1020.55 121.822 1020.84C122.6 1021.13 123.384 1021.4 124.174 1021.65C124.965 1021.9 125.761 1022.14 126.563 1022.35C127.365 1022.56 128.173 1022.75 128.984 1022.92C129.796 1023.09 130.612 1023.25 131.432 1023.38C132.251 1023.51 133.073 1023.62 133.897 1023.71C134.722 1023.8 135.549 1023.87 136.378 1023.92C137.206 1023.97 138.035 1023.99 138.865 1024L885.152 1024C885.982 1024 886.812 1023.98 887.643 1023.94C888.472 1023.9 889.299 1023.84 890.125 1023.76C890.952 1023.67 891.776 1023.57 892.596 1023.45C893.418 1023.32 894.235 1023.18 895.048 1023.01C895.862 1022.84 896.67 1022.65 897.474 1022.44C898.278 1022.23 899.076 1022.01 899.868 1021.76C900.66 1021.51 901.445 1021.24 902.224 1020.95C903.002 1020.66 903.772 1020.35 904.534 1020.02C905.297 1019.69 906.05 1019.34 906.794 1018.97C907.539 1018.6 908.274 1018.22 908.998 1017.81C909.723 1017.41 910.437 1016.99 911.139 1016.54C911.843 1016.1 912.534 1015.64 913.214 1015.16C913.893 1014.69 914.56 1014.19 915.214 1013.68C915.867 1013.17 916.508 1012.64 917.134 1012.09C917.761 1011.55 918.373 1010.99 918.971 1010.41C919.569 1009.84 920.152 1009.25 920.72 1008.64C921.316 1008.06 921.898 1007.46 922.464 1006.85C923.031 1006.24 923.581 1005.61 924.117 1004.98C924.654 1004.34 925.173 1003.69 925.677 1003.03C926.18 1002.36 926.667 1001.69 927.138 1001C927.608 1000.31 928.061 999.614 928.497 998.905C928.933 998.195 929.352 997.475 929.753 996.745C930.153 996.014 930.535 995.275 930.899 994.526C931.263 993.777 931.609 993.019 931.935 992.253C932.263 991.487 932.571 990.713 932.859 989.932C933.148 989.151 933.417 988.363 933.667 987.568C933.917 986.773 934.147 985.973 934.357 985.167C934.568 984.361 934.758 983.55 934.928 982.735C935.099 981.92 935.25 981.101 935.38 980.278C935.509 979.455 935.619 978.63 935.708 977.802C935.798 976.974 935.868 976.144 935.917 975.312C935.964 974.481 935.992 973.649 936 972.816L936 290.016L647.68 0L138.848 0L138.865 0L138.88 0Z"   fill="#7948EA" ></path><path d="M944 288L706.848 288C706.022 287.98 705.197 287.94 704.373 287.881C703.548 287.822 702.726 287.743 701.906 287.645C701.085 287.546 700.268 287.428 699.453 287.291C698.638 287.154 697.827 286.997 697.02 286.822C696.213 286.646 695.41 286.451 694.612 286.237C693.814 286.023 693.021 285.79 692.234 285.539C691.447 285.287 690.667 285.017 689.892 284.728C689.118 284.439 688.351 284.132 687.592 283.807C686.833 283.482 686.081 283.138 685.338 282.777C684.595 282.416 683.86 282.038 683.135 281.642C682.41 281.246 681.694 280.833 680.989 280.403C680.283 279.974 679.588 279.527 678.904 279.064C678.219 278.601 677.546 278.122 676.885 277.627C676.223 277.132 675.573 276.622 674.936 276.096C674.299 275.57 673.674 275.029 673.063 274.474C672.451 273.919 671.853 273.349 671.269 272.765C670.684 272.181 670.114 271.583 669.558 270.972C669.002 270.361 668.461 269.737 667.934 269.1C667.407 268.463 666.896 267.814 666.401 267.153C665.905 266.492 665.425 265.82 664.962 265.136C664.499 264.452 664.052 263.757 663.621 263.052C663.19 262.347 662.777 261.632 662.38 260.907C661.983 260.182 661.604 259.448 661.243 258.705C660.881 257.962 660.537 257.211 660.211 256.452C659.885 255.693 659.577 254.926 659.288 254.152C658.999 253.378 658.728 252.598 658.475 251.811C658.222 251.024 657.989 250.232 657.774 249.434C657.559 248.637 657.364 247.834 657.187 247.027C657.011 246.22 656.854 245.409 656.716 244.594C656.578 243.779 656.459 242.962 656.36 242.142C656.261 241.321 656.181 240.499 656.121 239.675C656.061 238.851 656.021 238.026 656 237.2L656 0L943.952 288L944 288Z"   fill="#FFFFFF" fill-opacity="0.7"></path><g ><path     fill="#FFFFFF"  d="M288.45 604.35L285.975 604.35L285.975 762.75L242.25 762.75L242.25 570.25L321.175 570.25L347.3 708.025L347.85 710.775L348.4 708.025L374.525 570.25L453.45 570.25L453.45 762.75L409.725 762.75L409.725 604.35L407.525 604.35L374.525 762.75L321.175 762.75L288.45 604.35ZM578.575 570.25Q608.825 570.25 626.287 586.475Q643.75 602.7 643.75 632.675Q643.75 662.375 626.287 678.6Q608.825 694.825 578.575 694.825L531.825 694.825L531.825 762.75L486.45 762.75L486.45 570.25L578.575 570.25ZM574.45 658.525Q588.2 658.525 595.625 651.1Q603.05 643.675 603.05 632.675Q603.05 621.4 595.625 613.975Q588.2 606.55 574.45 606.55L531.825 606.55L531.825 658.525L574.45 658.525ZM726.8 766.325Q697.925 766.325 670.7 753.675L670.7 715.725Q682.8 724.525 696.688 728.787Q710.575 733.05 724.325 733.05Q739.725 733.05 747.975 726.312Q756.225 719.575 756.225 706.375Q756.225 691.525 746.05 683.963Q735.875 676.4 719.1 676.4L691.6 676.4L691.6 648.625L716.35 648.625Q732.85 648.625 741.925 641.338Q751 634.05 751 621.125Q751 610.4 742.75 604.35Q734.5 598.3 720.75 598.3Q710.85 598.3 698.75 600.912Q686.65 603.525 676.75 608.2L676.75 578.5Q687.75 572.725 701.362 569.7Q714.975 566.675 728.45 566.675Q757.05 566.675 773.825 580.287Q790.6 593.9 790.875 617.275Q790.875 631.85 783.175 643.4Q775.475 654.95 761.175 661.55Q777.675 667.6 786.612 679.975Q795.55 692.35 795.55 709.125Q795.55 725.9 787.162 738.825Q778.775 751.75 763.1 759.037Q747.425 766.325 726.8 766.325Z"></path></g></svg>