<svg xmlns="http://www.w3.org/2000/svg" width="1024" height="1024" viewBox="0 0 1024 1024" fill="none"><path d="M202.683 12.9456C318.043 12.9456 405.355 99.5334 405.355 213.936C405.355 310.221 339.061 385.428 248.757 408.205L248.757 628.729C339.061 651.505 405.355 726.712 405.355 822.998C405.355 937.4 318.043 1024 202.683 1024C87.3235 1024 0 937.4 0 822.998C0 726.712 66.2929 651.505 156.597 628.729L156.597 408.205C66.2929 385.428 0 310.221 0 213.936C0 99.5334 87.3235 12.9456 202.683 12.9456ZM202.683 104.341C145.265 104.341 92.16 156.994 92.16 213.936C92.16 270.878 145.265 323.543 202.683 323.543C260.102 323.543 313.195 270.878 313.195 213.936C313.195 156.994 260.102 104.341 202.683 104.341ZM202.683 713.403C145.265 713.403 92.16 766.055 92.16 822.998C92.16 879.94 145.265 926.538 202.683 926.538C260.102 926.538 313.195 879.94 313.195 822.998C313.195 766.055 260.102 713.403 202.683 713.403ZM1024 822.998C1024 937.4 936.676 1024 821.317 1024C705.957 1024 618.641 937.401 618.641 822.998C618.641 726.713 684.935 651.505 775.239 628.729L775.239 259.64L659.018 259.64L659.018 427.884L448.994 213.936L659.018 0L659.018 168.244L775.239 168.244C832.659 168.244 867.399 202.696 867.399 259.64L867.399 628.729C957.703 651.505 1024 726.712 1024 822.998ZM821.317 713.403C763.898 713.403 710.801 766.055 710.801 822.998C710.801 879.94 764.314 932.604 821.732 932.604C879.151 932.604 931.84 879.94 931.84 822.998C931.84 766.055 878.735 713.403 821.317 713.403Z"   fill="currentColor" ></path></svg>