<svg xmlns="http://www.w3.org/2000/svg" xmlns:xlink="http://www.w3.org/1999/xlink" width="1024" height="1024" viewBox="0 0 1024 1024" fill="none"><g  clip-path="url(#clip-path-XcRzDTvkcehIyOHu7UCUc)"><path d="M213.32 13L868.68 13C991.56 13 1053 74.44 1053 197.32L1053 852.68C1053 975.56 991.56 1037 868.68 1037L213.32 1037C90.44 1037 29 975.56 29 852.68L29 197.32C29 74.44 90.44 13 213.32 13Z"   fill="#FFFFFF" ></path><path d="M944 508L944 516C943.981 522.214 943.81 528.424 943.487 534.629C943.164 540.834 942.69 547.028 942.065 553.21C941.44 559.393 940.663 565.556 939.736 571.7C938.809 577.844 937.733 583.962 936.506 590.054C935.28 596.145 933.906 602.203 932.383 608.228C930.86 614.252 929.192 620.235 927.377 626.178C925.562 632.121 923.602 638.016 921.499 643.863C919.396 649.71 917.151 655.502 914.764 661.239C912.377 666.976 909.851 672.652 907.187 678.265C904.523 683.879 901.723 689.424 898.788 694.901C895.852 700.378 892.784 705.779 889.585 711.106C886.386 716.433 883.058 721.678 879.601 726.842C876.145 732.006 872.565 737.082 868.86 742.071C865.156 747.06 861.332 751.955 857.388 756.757C853.444 761.559 849.385 766.262 845.212 770.865C841.038 775.468 836.754 779.967 832.36 784.36C827.967 788.754 823.468 793.038 818.865 797.212C814.262 801.385 809.559 805.444 804.757 809.388C799.955 813.332 795.06 817.156 790.071 820.861C785.082 824.565 780.006 828.145 774.842 831.601C769.678 835.058 764.433 838.386 759.106 841.585C753.779 844.784 748.378 847.852 742.901 850.788C737.424 853.723 731.879 856.523 726.265 859.187C720.652 861.852 714.976 864.377 709.239 866.764C703.502 869.151 697.71 871.396 691.863 873.499C686.016 875.602 680.121 877.562 674.178 879.377C668.235 881.192 662.252 882.86 656.228 884.383C650.203 885.906 644.145 887.28 638.054 888.506C631.962 889.733 625.844 890.809 619.7 891.736C613.556 892.663 607.393 893.44 601.21 894.065C595.028 894.69 588.834 895.165 582.629 895.488C576.424 895.811 570.214 895.981 564 896L556 896C552.888 895.999 549.776 895.96 546.665 895.883C543.554 895.805 540.444 895.689 537.336 895.535C534.227 895.38 531.121 895.188 528.018 894.957C524.915 894.726 521.814 894.457 518.717 894.15C515.62 893.843 512.528 893.497 509.439 893.113C506.351 892.729 503.268 892.307 500.19 891.848C497.112 891.388 494.04 890.89 490.974 890.355C487.908 889.819 484.849 889.246 481.798 888.635C478.747 888.024 475.703 887.375 472.667 886.689C469.632 886.003 466.605 885.28 463.587 884.519C460.57 883.758 457.562 882.96 454.564 882.125C451.566 881.29 448.579 880.418 445.602 879.509C442.625 878.6 439.66 877.655 436.707 876.673C433.754 875.691 430.814 874.673 427.885 873.619C424.957 872.564 422.043 871.474 419.142 870.348C416.241 869.221 413.354 868.059 410.481 866.862C407.608 865.664 404.751 864.431 401.909 863.163C399.067 861.895 396.241 860.592 393.431 859.254C390.621 857.917 387.828 856.544 385.052 855.137C382.276 853.73 379.518 852.29 376.777 850.815C374.036 849.34 371.314 847.832 368.611 846.29C365.908 844.748 363.225 843.173 360.56 841.565C357.895 839.957 355.251 838.316 352.627 836.643C350.003 834.969 347.4 833.263 344.818 831.526C342.237 829.789 339.677 828.019 337.138 826.218C334.6 824.417 332.084 822.586 329.591 820.723C327.098 818.86 324.629 816.967 322.182 815.043C319.736 813.119 317.314 811.165 314.916 809.182C312.518 807.198 310.145 805.185 307.796 803.143C305.447 801.101 303.124 799.03 300.827 796.931C298.53 794.832 296.259 792.704 294.014 790.549C291.769 788.393 289.551 786.21 287.36 784C282.24 778.88 277.12 773.44 272.32 768C267.68 762.88 263.2 757.44 258.88 752C257.219 749.928 255.579 747.839 253.961 745.732C252.344 743.625 250.749 741.502 249.176 739.361C247.604 737.221 246.055 735.064 244.527 732.891C243 730.718 241.497 728.529 240.016 726.324C238.535 724.119 237.078 721.899 235.644 719.663C234.21 717.428 232.8 715.177 231.414 712.911C230.028 710.646 228.666 708.366 227.328 706.072C225.99 703.777 224.676 701.469 223.387 699.147C222.098 696.825 220.833 694.49 219.594 692.141C218.354 689.792 217.139 687.43 215.949 685.056C214.759 682.681 213.594 680.294 212.455 677.895C211.316 675.496 210.202 673.086 209.113 670.663C208.025 668.24 206.962 665.806 205.924 663.361C204.887 660.916 203.876 658.46 202.891 655.994C201.906 653.527 200.947 651.051 200.014 648.564C199.081 646.077 198.175 643.581 197.295 641.075C196.415 638.569 195.561 636.054 194.734 633.53C193.908 631.006 193.107 628.474 192.334 625.933C191.561 623.392 190.814 620.843 190.095 618.286C189.376 615.729 188.684 613.165 188.018 610.594C187.353 608.023 186.715 605.445 186.104 602.86C185.493 600.275 184.909 597.685 184.353 595.088C183.797 592.491 183.269 589.888 182.768 587.28C182.267 584.671 181.793 582.058 181.348 579.44C180.902 576.821 180.484 574.199 180.093 571.572C179.703 568.945 179.341 566.314 179.006 563.679C178.671 561.044 178.364 558.406 178.085 555.765C177.806 553.124 177.555 550.48 177.332 547.833C177.109 545.186 176.914 542.538 176.747 539.887C176.58 537.236 176.441 534.584 176.33 531.931C176.219 529.277 176.136 526.622 176.081 523.967C176.026 521.312 175.999 518.656 176 516L176 508C175.998 505.553 176.02 503.106 176.066 500.659C176.112 498.212 176.182 495.765 176.276 493.32C176.369 490.874 176.487 488.43 176.629 485.987C176.77 483.544 176.936 481.102 177.125 478.662C177.314 476.222 177.527 473.784 177.764 471.348C178.001 468.912 178.261 466.479 178.545 464.048C178.829 461.617 179.137 459.189 179.469 456.764C179.801 454.339 180.156 451.918 180.535 449.5C180.914 447.083 181.316 444.669 181.743 442.259C182.169 439.849 182.618 437.443 183.091 435.042C183.564 432.641 184.061 430.244 184.581 427.853C185.101 425.462 185.644 423.075 186.21 420.694C186.777 418.313 187.367 415.938 187.979 413.569C188.592 411.2 189.228 408.836 189.887 406.479C190.546 404.122 191.228 401.772 191.933 399.428C192.638 397.085 193.365 394.748 194.116 392.418C194.867 390.089 195.64 387.767 196.435 385.453C197.231 383.138 198.049 380.832 198.89 378.534C199.732 376.235 200.595 373.945 201.48 371.664C202.366 369.383 203.274 367.11 204.203 364.846C205.133 362.582 206.085 360.327 207.059 358.082C208.033 355.837 209.029 353.602 210.047 351.376C211.064 349.15 212.104 346.934 213.165 344.729C214.226 342.524 215.308 340.329 216.412 338.144C217.516 335.96 218.641 333.787 219.787 331.624C220.933 329.462 222.1 327.311 223.288 325.172C224.477 323.032 225.686 320.904 226.915 318.788C228.145 316.672 229.395 314.568 230.666 312.477C231.938 310.386 233.229 308.307 234.54 306.24C235.852 304.174 237.183 302.121 238.534 300.08C239.885 298.04 241.257 296.013 242.648 293.999C244.039 291.986 245.45 289.986 246.88 288C250.598 282.455 254.598 277.122 258.88 272C261.087 269.209 263.334 266.449 265.619 263.721C267.904 260.993 270.227 258.298 272.588 255.635C274.949 252.972 277.347 250.344 279.782 247.749C282.217 245.154 284.689 242.593 287.196 240.068C289.703 237.542 292.245 235.052 294.822 232.598C297.399 230.144 300.011 227.727 302.656 225.347C305.301 222.966 307.979 220.623 310.69 218.318C313.401 216.013 316.145 213.747 318.92 211.519C321.695 209.291 324.5 207.103 327.337 204.954C330.174 202.805 333.04 200.696 335.936 198.628C338.832 196.56 341.756 194.533 344.709 192.547C347.662 190.561 350.643 188.617 353.65 186.715C356.658 184.813 359.692 182.954 362.752 181.137C365.812 179.32 368.897 177.547 372.007 175.818C375.117 174.088 378.251 172.402 381.408 170.761C384.565 169.12 387.745 167.523 390.948 165.97C394.15 164.418 397.373 162.911 400.618 161.45C403.863 159.989 407.127 158.574 410.412 157.204C413.697 155.835 417 154.512 420.322 153.236C423.644 151.959 426.983 150.73 430.339 149.548C433.696 148.365 437.068 147.23 440.457 146.143C443.845 145.055 447.248 144.015 450.666 143.024C454.083 142.032 457.514 141.089 460.959 140.194C464.403 139.299 467.859 138.452 471.327 137.654C474.795 136.856 478.274 136.107 481.763 135.408C485.252 134.708 488.751 134.057 492.258 133.456C495.765 132.854 499.28 132.302 502.803 131.8C506.326 131.297 509.856 130.844 513.392 130.441C516.927 130.038 520.468 129.685 524.014 129.381C527.559 129.078 531.108 128.824 534.661 128.621C538.214 128.417 541.769 128.263 545.326 128.16C548.883 128.057 552.441 128.003 556 128L564 128C570.214 128.019 576.424 128.19 582.629 128.513C588.834 128.836 595.028 129.31 601.21 129.935C607.393 130.56 613.556 131.337 619.7 132.264C625.844 133.191 631.962 134.268 638.054 135.494C644.145 136.72 650.203 138.094 656.228 139.617C662.252 141.14 668.235 142.808 674.178 144.623C680.121 146.438 686.016 148.398 691.863 150.501C697.71 152.604 703.502 154.849 709.239 157.236C714.976 159.623 720.652 162.149 726.265 164.813C731.879 167.477 737.424 170.277 742.901 173.212C748.378 176.148 753.779 179.216 759.106 182.415C764.433 185.614 769.678 188.942 774.842 192.399C780.006 195.855 785.082 199.435 790.071 203.14C795.06 206.844 799.955 210.668 804.757 214.612C809.559 218.556 814.262 222.615 818.865 226.788C823.468 230.962 827.967 235.246 832.36 239.64C836.754 244.033 841.038 248.532 845.212 253.135C849.385 257.738 853.444 262.441 857.388 267.243C861.332 272.045 865.156 276.94 868.86 281.929C872.565 286.918 876.145 291.994 879.601 297.158C883.058 302.322 886.386 307.567 889.585 312.894C892.784 318.221 895.852 323.622 898.788 329.099C901.723 334.576 904.523 340.121 907.187 345.735C909.851 351.348 912.376 357.024 914.763 362.761C917.15 368.498 919.396 374.29 921.499 380.137C923.602 385.984 925.562 391.879 927.377 397.822C929.192 403.765 930.86 409.748 932.383 415.772C933.906 421.797 935.28 427.855 936.506 433.946C937.733 440.038 938.809 446.156 939.736 452.3C940.663 458.445 941.44 464.608 942.065 470.79C942.69 476.972 943.164 483.166 943.487 489.371C943.81 495.576 943.981 501.786 944 508Z"   fill="#D35230" ></path><path d="M944 512L944 508.352C943.982 502.132 943.812 495.916 943.489 489.705C943.167 483.494 942.693 477.294 942.068 471.106C941.442 464.917 940.665 458.748 939.738 452.598C938.811 446.448 937.734 440.324 936.507 434.226C935.28 428.129 933.905 422.065 932.382 416.035C930.859 410.004 929.189 404.015 927.372 398.066C925.556 392.117 923.595 386.217 921.49 380.364C919.385 374.511 917.138 368.714 914.75 362.971C912.361 357.228 909.834 351.547 907.167 345.928C904.5 340.309 901.698 334.758 898.76 329.276C895.822 323.794 892.752 318.387 889.549 313.055C886.347 307.723 883.016 302.472 879.557 297.303C876.098 292.134 872.514 287.053 868.806 282.059C865.098 277.066 861.27 272.166 857.323 267.359C853.375 262.552 849.312 257.845 845.135 253.238C840.957 248.63 836.669 244.127 832.271 239.729C827.873 235.331 823.37 231.043 818.762 226.865C814.155 222.688 809.448 218.625 804.641 214.677C799.834 210.73 794.934 206.902 789.941 203.194C784.947 199.486 779.866 195.902 774.697 192.443C769.528 188.984 764.277 185.653 758.945 182.451C753.613 179.248 748.206 176.178 742.724 173.24C737.242 170.302 731.691 167.5 726.072 164.833C720.453 162.166 714.772 159.639 709.029 157.251C703.286 154.862 697.489 152.615 691.636 150.51C685.783 148.405 679.883 146.445 673.934 144.628C667.985 142.811 661.996 141.141 655.965 139.618C649.935 138.095 643.871 136.72 637.774 135.493C631.676 134.266 625.552 133.189 619.402 132.262C613.252 131.335 607.083 130.558 600.894 129.932C594.706 129.307 588.506 128.833 582.295 128.511C576.084 128.188 569.868 128.018 563.648 128L560 128L560 512L944 512Z"   fill="#FF8F6B" ></path><path d="M176 508.352L176 512L560 512L560 128L556.368 128C550.148 128.018 543.932 128.188 537.721 128.51C531.509 128.832 525.309 129.306 519.121 129.931C512.932 130.556 506.763 131.333 500.612 132.26C494.462 133.187 488.338 134.263 482.24 135.49C476.142 136.717 470.078 138.092 464.048 139.615C458.017 141.138 452.028 142.808 446.079 144.624C440.13 146.441 434.229 148.401 428.376 150.506C422.523 152.611 416.725 154.857 410.982 157.246C405.239 159.635 399.557 162.162 393.938 164.828C388.319 167.495 382.768 170.297 377.286 173.235C371.803 176.173 366.396 179.243 361.064 182.445C355.732 185.648 350.481 188.979 345.312 192.438C340.143 195.897 335.061 199.481 330.067 203.189C325.073 206.896 320.173 210.724 315.366 214.672C310.559 218.619 305.852 222.682 301.244 226.86C296.636 231.037 292.133 235.325 287.735 239.723C283.336 244.121 279.048 248.624 274.87 253.232C270.692 257.84 266.629 262.547 262.682 267.354C258.734 272.16 254.906 277.06 251.198 282.054C247.49 287.048 243.906 292.129 240.447 297.298C236.988 302.467 233.657 307.718 230.454 313.05C227.251 318.382 224.181 323.789 221.242 329.272C218.304 334.754 215.502 340.305 212.835 345.924C210.168 351.543 207.641 357.224 205.252 362.967C202.863 368.71 200.616 374.508 198.511 380.361C196.406 386.214 194.446 392.114 192.629 398.063C190.812 404.012 189.142 410.001 187.619 416.032C186.095 422.063 184.72 428.127 183.493 434.224C182.266 440.322 181.189 446.446 180.262 452.597C179.335 458.747 178.558 464.916 177.933 471.105C177.307 477.293 176.833 483.493 176.511 489.705C176.188 495.916 176.018 502.132 176 508.352Z"   fill="#ED6C47" ></path><g opacity="0.2"><path d="M528 325.28L528 746.72C528.035 748.878 527.822 751.011 527.36 753.12C527.27 753.655 527.168 754.188 527.055 754.719C526.941 755.25 526.816 755.779 526.679 756.304C526.542 756.829 526.394 757.352 526.234 757.871C526.075 758.39 525.904 758.905 525.721 759.416C525.538 759.927 525.345 760.434 525.14 760.937C524.935 761.44 524.72 761.939 524.493 762.432C524.266 762.925 524.029 763.413 523.781 763.896C523.533 764.379 523.274 764.856 523.005 765.328C522.736 765.799 522.456 766.265 522.167 766.724C521.878 767.183 521.578 767.636 521.268 768.082C520.959 768.528 520.64 768.967 520.311 769.399C519.982 769.831 519.644 770.256 519.296 770.673C518.949 771.09 518.592 771.5 518.227 771.901C517.861 772.302 517.487 772.696 517.104 773.081C516.721 773.466 516.33 773.842 515.931 774.21C515.532 774.578 515.124 774.937 514.709 775.287C514.294 775.636 513.871 775.977 513.441 776.308C513.011 776.639 512.574 776.961 512.13 777.273C511.685 777.586 511.234 777.888 510.777 778.18C510.319 778.472 509.855 778.754 509.385 779.026C508.915 779.298 508.439 779.559 507.958 779.81C507.477 780.061 506.99 780.301 506.498 780.531C506.006 780.76 505.509 780.979 505.007 781.186C504.506 781.394 504 781.591 503.489 781.776C502.979 781.961 502.465 782.135 501.947 782.298C501.429 782.461 500.908 782.612 500.383 782.752C499.858 782.891 499.331 783.019 498.8 783.136C498.27 783.253 497.738 783.358 497.203 783.451C496.668 783.544 496.131 783.626 495.593 783.695C495.054 783.764 494.514 783.822 493.973 783.868C493.432 783.914 492.891 783.948 492.348 783.97C491.805 783.992 491.263 784.002 490.72 784L287.36 784C282.24 778.88 277.12 773.44 272.32 768C267.68 762.88 263.2 757.44 258.88 752C257.219 749.928 255.579 747.839 253.961 745.732C252.344 743.625 250.749 741.502 249.176 739.361C247.604 737.221 246.055 735.064 244.527 732.891C243.001 730.718 241.497 728.529 240.016 726.324C238.535 724.119 237.078 721.899 235.644 719.663C234.21 717.428 232.8 715.177 231.414 712.911C230.028 710.646 228.666 708.366 227.328 706.072C225.99 703.777 224.676 701.469 223.387 699.147C222.098 696.825 220.833 694.49 219.594 692.141C218.354 689.792 217.139 687.43 215.949 685.056C214.759 682.681 213.594 680.294 212.455 677.895C211.316 675.496 210.202 673.086 209.113 670.663C208.025 668.24 206.962 665.806 205.924 663.361C204.887 660.916 203.876 658.46 202.891 655.994C201.906 653.527 200.947 651.051 200.014 648.564C199.081 646.077 198.175 643.581 197.295 641.075C196.415 638.569 195.561 636.054 194.734 633.53C193.908 631.006 193.107 628.474 192.334 625.933C191.561 623.392 190.814 620.843 190.095 618.286C189.376 615.729 188.684 613.165 188.018 610.594C187.353 608.023 186.715 605.445 186.104 602.86C185.493 600.275 184.909 597.685 184.353 595.088C183.797 592.491 183.269 589.888 182.768 587.28C182.267 584.671 181.793 582.058 181.348 579.44C180.902 576.821 180.484 574.199 180.093 571.572C179.703 568.945 179.341 566.314 179.006 563.679C178.671 561.044 178.364 558.406 178.085 555.765C177.806 553.124 177.555 550.48 177.332 547.833C177.109 545.186 176.914 542.538 176.747 539.887C176.58 537.236 176.441 534.584 176.33 531.931C176.219 529.277 176.136 526.622 176.081 523.967C176.026 521.312 175.999 518.656 176 516L176 508C175.998 505.553 176.02 503.106 176.066 500.659C176.112 498.212 176.182 495.765 176.276 493.32C176.369 490.874 176.487 488.43 176.629 485.987C176.77 483.544 176.936 481.102 177.125 478.662C177.314 476.222 177.527 473.784 177.764 471.348C178.001 468.912 178.261 466.479 178.545 464.048C178.829 461.617 179.137 459.189 179.469 456.764C179.801 454.339 180.156 451.918 180.535 449.5C180.914 447.083 181.316 444.669 181.743 442.259C182.169 439.849 182.618 437.443 183.091 435.042C183.564 432.641 184.061 430.244 184.581 427.853C185.101 425.462 185.644 423.075 186.21 420.694C186.777 418.313 187.367 415.938 187.979 413.569C188.592 411.2 189.228 408.836 189.887 406.479C190.546 404.122 191.228 401.772 191.933 399.428C192.638 397.085 193.365 394.748 194.116 392.418C194.867 390.089 195.64 387.767 196.435 385.453C197.231 383.138 198.049 380.832 198.89 378.534C199.732 376.235 200.595 373.945 201.48 371.664C202.366 369.383 203.274 367.11 204.203 364.846C205.133 362.582 206.085 360.327 207.059 358.082C208.033 355.837 209.029 353.602 210.047 351.376C211.064 349.15 212.104 346.934 213.165 344.729C214.226 342.524 215.308 340.329 216.412 338.144C217.516 335.96 218.641 333.787 219.787 331.624C220.933 329.462 222.1 327.311 223.288 325.172C224.477 323.032 225.686 320.904 226.915 318.788C228.145 316.672 229.396 314.568 230.666 312.477C231.938 310.386 233.229 308.307 234.54 306.24C235.852 304.174 237.183 302.121 238.534 300.08C239.885 298.04 241.257 296.013 242.648 293.999C244.039 291.986 245.45 289.986 246.88 288L490.72 288C491.331 287.999 491.941 288.013 492.55 288.042C493.16 288.071 493.769 288.115 494.376 288.174C494.983 288.233 495.589 288.306 496.193 288.395C496.797 288.484 497.398 288.587 497.997 288.706C498.596 288.824 499.192 288.957 499.784 289.105C500.377 289.252 500.965 289.414 501.549 289.591C502.133 289.768 502.713 289.958 503.288 290.163C503.863 290.368 504.432 290.588 504.996 290.821C505.561 291.054 506.119 291.3 506.671 291.561C507.223 291.822 507.768 292.096 508.306 292.383C508.845 292.67 509.376 292.971 509.9 293.284C510.423 293.598 510.939 293.924 511.447 294.263C511.954 294.602 512.453 294.953 512.944 295.317C513.435 295.68 513.916 296.055 514.387 296.442C514.859 296.829 515.321 297.228 515.774 297.638C516.226 298.048 516.668 298.469 517.1 298.9C517.531 299.332 517.952 299.774 518.362 300.226C518.772 300.679 519.17 301.141 519.557 301.613C519.944 302.084 520.32 302.565 520.683 303.056C521.047 303.547 521.398 304.046 521.737 304.553C522.076 305.061 522.402 305.577 522.716 306.1C523.029 306.624 523.33 307.155 523.617 307.694C523.904 308.232 524.178 308.777 524.439 309.329C524.7 309.881 524.946 310.439 525.179 311.004C525.412 311.568 525.632 312.137 525.837 312.712C526.042 313.287 526.232 313.867 526.409 314.451C526.586 315.035 526.748 315.623 526.895 316.216C527.043 316.808 527.176 317.404 527.294 318.003C527.413 318.602 527.516 319.203 527.605 319.807C527.694 320.411 527.767 321.017 527.826 321.624C527.885 322.231 527.929 322.84 527.958 323.45C527.987 324.059 528.001 324.669 528 325.28Z"   fill="#000000" ></path></g><g opacity="0.1"><path d="M544 325.28L544 714.72C543.992 715.59 543.963 716.459 543.912 717.327C543.861 718.195 543.79 719.061 543.698 719.926C543.605 720.791 543.492 721.654 543.358 722.513C543.223 723.372 543.068 724.228 542.893 725.079C542.717 725.931 542.521 726.778 542.304 727.62C542.087 728.463 541.85 729.299 541.593 730.13C541.336 730.961 541.058 731.785 540.761 732.602C540.464 733.419 540.147 734.229 539.81 735.031C539.473 735.833 539.117 736.626 538.742 737.411C538.367 738.196 537.973 738.971 537.56 739.736C537.147 740.502 536.716 741.257 536.267 742.001C535.818 742.746 535.351 743.479 534.866 744.201C534.381 744.923 533.879 745.633 533.36 746.331C532.841 747.028 532.305 747.713 531.752 748.385C531.199 749.056 530.631 749.714 530.046 750.358C529.462 751.003 528.862 751.632 528.247 752.247C527.632 752.862 527.003 753.462 526.359 754.046C525.714 754.631 525.056 755.199 524.385 755.752C523.713 756.304 523.028 756.84 522.331 757.359C521.634 757.878 520.924 758.381 520.202 758.866C519.48 759.351 518.747 759.818 518.002 760.267C517.257 760.716 516.502 761.147 515.736 761.56C514.971 761.973 514.196 762.367 513.411 762.742C512.626 763.117 511.833 763.473 511.031 763.81C510.229 764.147 509.419 764.464 508.602 764.761C507.785 765.058 506.961 765.336 506.13 765.593C505.299 765.85 504.463 766.087 503.62 766.304C502.778 766.521 501.931 766.717 501.079 766.893C500.228 767.068 499.372 767.223 498.513 767.358C497.654 767.492 496.791 767.605 495.926 767.698C495.061 767.79 494.195 767.861 493.327 767.912C492.459 767.963 491.59 767.992 490.72 768L272.32 768C267.68 762.88 263.2 757.44 258.88 752C257.219 749.928 255.579 747.839 253.961 745.732C252.344 743.625 250.749 741.502 249.177 739.361C247.604 737.221 246.055 735.064 244.527 732.891C243 730.718 241.497 728.529 240.016 726.324C238.535 724.119 237.078 721.899 235.644 719.663C234.21 717.428 232.8 715.177 231.414 712.911C230.028 710.646 228.666 708.366 227.328 706.072C225.99 703.777 224.676 701.469 223.387 699.147C222.098 696.825 220.833 694.49 219.594 692.141C218.354 689.792 217.139 687.43 215.949 685.056C214.759 682.681 213.594 680.294 212.455 677.895C211.316 675.496 210.202 673.086 209.113 670.663C208.025 668.24 206.962 665.806 205.924 663.361C204.887 660.916 203.876 658.46 202.891 655.994C201.906 653.527 200.947 651.051 200.014 648.564C199.081 646.077 198.175 643.581 197.295 641.075C196.415 638.569 195.561 636.054 194.734 633.53C193.908 631.006 193.107 628.474 192.334 625.933C191.561 623.392 190.814 620.843 190.095 618.286C189.376 615.729 188.684 613.165 188.018 610.594C187.353 608.023 186.715 605.445 186.104 602.86C185.493 600.275 184.909 597.685 184.353 595.088C183.797 592.491 183.269 589.888 182.768 587.28C182.267 584.671 181.793 582.058 181.348 579.44C180.902 576.821 180.484 574.199 180.093 571.572C179.703 568.945 179.341 566.314 179.006 563.679C178.671 561.044 178.364 558.406 178.085 555.765C177.806 553.124 177.555 550.48 177.332 547.833C177.109 545.186 176.914 542.538 176.747 539.887C176.58 537.236 176.441 534.584 176.33 531.931C176.219 529.277 176.136 526.622 176.081 523.967C176.026 521.312 175.999 518.656 176 516L176 508C175.998 505.553 176.02 503.106 176.066 500.659C176.112 498.212 176.182 495.765 176.276 493.32C176.369 490.874 176.487 488.43 176.629 485.987C176.77 483.544 176.936 481.102 177.125 478.662C177.314 476.222 177.527 473.784 177.764 471.348C178.001 468.912 178.261 466.479 178.545 464.048C178.829 461.617 179.137 459.189 179.469 456.764C179.801 454.339 180.156 451.918 180.535 449.5C180.914 447.083 181.316 444.669 181.743 442.259C182.169 439.849 182.618 437.443 183.091 435.042C183.564 432.641 184.061 430.244 184.581 427.853C185.101 425.462 185.644 423.075 186.21 420.694C186.777 418.313 187.367 415.938 187.979 413.569C188.592 411.2 189.228 408.836 189.887 406.479C190.546 404.122 191.228 401.772 191.933 399.428C192.638 397.085 193.365 394.748 194.116 392.418C194.867 390.089 195.64 387.767 196.435 385.453C197.231 383.138 198.049 380.832 198.89 378.534C199.732 376.235 200.595 373.945 201.48 371.664C202.366 369.383 203.274 367.11 204.203 364.846C205.133 362.582 206.085 360.327 207.059 358.082C208.033 355.837 209.029 353.602 210.047 351.376C211.064 349.15 212.104 346.934 213.165 344.729C214.226 342.524 215.308 340.329 216.412 338.144C217.516 335.96 218.641 333.787 219.787 331.624C220.933 329.462 222.1 327.311 223.288 325.172C224.477 323.032 225.686 320.904 226.915 318.788C228.145 316.672 229.395 314.568 230.666 312.477C231.938 310.386 233.229 308.307 234.54 306.24C235.852 304.174 237.183 302.121 238.534 300.08C239.885 298.04 241.257 296.013 242.648 293.999C244.039 291.986 245.45 289.986 246.88 288C250.598 282.455 254.598 277.122 258.88 272L490.72 272C491.591 272.003 492.462 272.028 493.332 272.073C494.201 272.119 495.069 272.186 495.936 272.274C496.803 272.362 497.667 272.471 498.528 272.602C499.389 272.732 500.247 272.883 501.101 273.055C501.955 273.228 502.804 273.421 503.649 273.634C504.493 273.848 505.332 274.082 506.165 274.337C506.998 274.592 507.825 274.867 508.644 275.162C509.463 275.457 510.275 275.772 511.08 276.107C511.884 276.442 512.679 276.796 513.466 277.169C514.253 277.543 515.031 277.936 515.798 278.348C516.566 278.759 517.323 279.189 518.07 279.638C518.817 280.087 519.552 280.553 520.276 281.038C520.999 281.523 521.711 282.025 522.41 282.544C523.109 283.063 523.796 283.599 524.469 284.152C525.142 284.705 525.802 285.275 526.447 285.86C527.092 286.445 527.723 287.045 528.339 287.661C528.955 288.277 529.555 288.908 530.14 289.553C530.725 290.198 531.295 290.858 531.848 291.531C532.401 292.204 532.937 292.891 533.456 293.59C533.975 294.289 534.477 295.001 534.962 295.724C535.447 296.448 535.913 297.183 536.362 297.93C536.811 298.677 537.241 299.434 537.653 300.202C538.064 300.969 538.457 301.747 538.831 302.534C539.204 303.321 539.558 304.116 539.893 304.92C540.228 305.725 540.543 306.537 540.838 307.356C541.133 308.175 541.408 309.002 541.663 309.835C541.918 310.668 542.152 311.507 542.366 312.351C542.579 313.196 542.772 314.045 542.945 314.899C543.117 315.753 543.268 316.611 543.398 317.472C543.529 318.333 543.638 319.197 543.726 320.064C543.814 320.931 543.881 321.799 543.927 322.668C543.972 323.538 543.997 324.409 544 325.28Z"   fill="#000000" ></path></g><g opacity="0.2"><path d="M528 325.28L528 714.72C528.001 715.33 527.987 715.94 527.958 716.55C527.929 717.16 527.885 717.769 527.826 718.376C527.767 718.983 527.694 719.589 527.605 720.193C527.516 720.797 527.413 721.398 527.294 721.997C527.176 722.596 527.043 723.192 526.895 723.784C526.748 724.376 526.586 724.964 526.409 725.549C526.232 726.133 526.042 726.713 525.837 727.288C525.632 727.863 525.412 728.432 525.179 728.996C524.946 729.561 524.7 730.119 524.439 730.671C524.178 731.223 523.904 731.768 523.617 732.306C523.33 732.845 523.029 733.376 522.716 733.9C522.402 734.423 522.076 734.939 521.737 735.447C521.398 735.954 521.047 736.453 520.683 736.944C520.32 737.434 519.944 737.915 519.557 738.387C519.17 738.859 518.772 739.321 518.362 739.774C517.952 740.226 517.531 740.668 517.1 741.1C516.668 741.531 516.226 741.952 515.774 742.362C515.321 742.772 514.859 743.17 514.387 743.557C513.916 743.944 513.435 744.32 512.944 744.683C512.453 745.047 511.954 745.398 511.447 745.737C510.939 746.076 510.423 746.402 509.9 746.716C509.376 747.029 508.845 747.33 508.306 747.617C507.768 747.904 507.223 748.178 506.671 748.439C506.119 748.7 505.561 748.946 504.996 749.179C504.432 749.412 503.863 749.632 503.288 749.837C502.713 750.042 502.133 750.232 501.549 750.409C500.964 750.586 500.376 750.748 499.784 750.895C499.192 751.043 498.596 751.176 497.997 751.294C497.398 751.413 496.797 751.516 496.193 751.605C495.589 751.694 494.983 751.767 494.376 751.826C493.769 751.885 493.16 751.929 492.55 751.958C491.941 751.987 491.331 752.001 490.72 752L258.88 752C257.219 749.928 255.579 747.839 253.961 745.732C252.344 743.625 250.749 741.502 249.177 739.361C247.604 737.221 246.055 735.064 244.527 732.891C243 730.718 241.497 728.529 240.016 726.324C238.535 724.119 237.078 721.899 235.644 719.663C234.21 717.428 232.8 715.177 231.414 712.911C230.028 710.646 228.666 708.366 227.328 706.072C225.99 703.777 224.676 701.469 223.387 699.147C222.098 696.825 220.833 694.49 219.594 692.141C218.354 689.792 217.139 687.43 215.949 685.056C214.759 682.681 213.594 680.294 212.455 677.895C211.316 675.496 210.202 673.086 209.113 670.663C208.025 668.24 206.962 665.806 205.924 663.361C204.887 660.916 203.876 658.46 202.891 655.994C201.906 653.527 200.947 651.051 200.014 648.564C199.081 646.077 198.175 643.581 197.295 641.075C196.415 638.569 195.561 636.054 194.734 633.53C193.908 631.006 193.107 628.474 192.334 625.933C191.561 623.392 190.814 620.843 190.095 618.286C189.376 615.729 188.684 613.165 188.018 610.594C187.353 608.023 186.715 605.445 186.104 602.86C185.493 600.275 184.909 597.685 184.353 595.088C183.797 592.491 183.269 589.888 182.768 587.28C182.267 584.671 181.793 582.058 181.348 579.44C180.902 576.821 180.484 574.199 180.093 571.572C179.703 568.945 179.341 566.314 179.006 563.679C178.671 561.044 178.364 558.406 178.085 555.765C177.806 553.124 177.555 550.48 177.332 547.833C177.109 545.186 176.914 542.538 176.747 539.887C176.58 537.236 176.441 534.584 176.33 531.931C176.219 529.277 176.136 526.622 176.081 523.967C176.026 521.312 175.999 518.656 176 516L176 508C175.998 505.553 176.02 503.106 176.066 500.659C176.112 498.212 176.182 495.765 176.276 493.32C176.369 490.874 176.487 488.43 176.629 485.987C176.77 483.544 176.936 481.102 177.125 478.662C177.314 476.222 177.527 473.784 177.764 471.348C178.001 468.912 178.261 466.479 178.545 464.048C178.829 461.617 179.137 459.189 179.469 456.764C179.801 454.339 180.156 451.918 180.535 449.5C180.914 447.083 181.316 444.669 181.743 442.259C182.169 439.849 182.618 437.443 183.091 435.042C183.564 432.641 184.061 430.244 184.581 427.853C185.101 425.462 185.644 423.075 186.21 420.694C186.777 418.313 187.367 415.938 187.979 413.569C188.592 411.2 189.228 408.836 189.887 406.479C190.546 404.122 191.228 401.772 191.933 399.428C192.638 397.085 193.365 394.748 194.116 392.418C194.867 390.089 195.64 387.767 196.435 385.453C197.231 383.138 198.049 380.832 198.89 378.534C199.732 376.235 200.595 373.945 201.48 371.664C202.366 369.383 203.274 367.11 204.203 364.846C205.133 362.582 206.085 360.327 207.059 358.082C208.033 355.837 209.029 353.602 210.047 351.376C211.064 349.15 212.104 346.934 213.165 344.729C214.226 342.524 215.308 340.329 216.412 338.144C217.516 335.96 218.641 333.787 219.787 331.624C220.933 329.462 222.1 327.311 223.288 325.172C224.477 323.032 225.686 320.904 226.915 318.788C228.145 316.672 229.396 314.568 230.666 312.477C231.938 310.386 233.229 308.307 234.54 306.24C235.852 304.174 237.183 302.121 238.534 300.08C239.885 298.04 241.257 296.013 242.648 293.999C244.039 291.986 245.45 289.986 246.88 288L490.72 288C491.331 287.999 491.941 288.013 492.55 288.042C493.16 288.071 493.769 288.115 494.376 288.174C494.983 288.233 495.589 288.306 496.193 288.395C496.797 288.484 497.398 288.587 497.997 288.706C498.596 288.824 499.192 288.957 499.784 289.105C500.377 289.252 500.965 289.414 501.549 289.591C502.133 289.768 502.713 289.958 503.288 290.163C503.863 290.368 504.432 290.588 504.996 290.821C505.561 291.054 506.119 291.3 506.671 291.561C507.223 291.822 507.768 292.096 508.306 292.383C508.845 292.67 509.376 292.971 509.9 293.284C510.423 293.598 510.939 293.924 511.447 294.263C511.954 294.602 512.453 294.953 512.944 295.317C513.435 295.68 513.916 296.055 514.387 296.442C514.859 296.829 515.321 297.228 515.774 297.638C516.226 298.048 516.668 298.469 517.1 298.9C517.531 299.332 517.952 299.774 518.362 300.226C518.772 300.679 519.17 301.141 519.557 301.613C519.944 302.084 520.32 302.565 520.683 303.056C521.047 303.547 521.398 304.046 521.737 304.553C522.076 305.061 522.402 305.577 522.716 306.1C523.029 306.624 523.33 307.155 523.617 307.694C523.904 308.232 524.178 308.777 524.439 309.329C524.7 309.881 524.946 310.439 525.179 311.004C525.412 311.568 525.632 312.137 525.837 312.712C526.042 313.287 526.232 313.867 526.409 314.451C526.586 315.035 526.748 315.623 526.895 316.216C527.043 316.808 527.176 317.404 527.294 318.003C527.413 318.602 527.516 319.203 527.605 319.807C527.694 320.411 527.767 321.017 527.826 321.624C527.885 322.231 527.929 322.84 527.958 323.45C527.987 324.059 528.001 324.669 528 325.28Z"   fill="#000000" ></path></g><g opacity="0.1"><path d="M512 325.28L512 714.72C512.001 715.33 511.987 715.94 511.958 716.55C511.929 717.16 511.885 717.769 511.826 718.376C511.767 718.983 511.694 719.589 511.605 720.193C511.516 720.797 511.413 721.398 511.294 721.997C511.176 722.596 511.043 723.192 510.895 723.784C510.748 724.376 510.586 724.964 510.409 725.549C510.232 726.133 510.042 726.713 509.837 727.288C509.632 727.863 509.412 728.432 509.179 728.996C508.946 729.561 508.7 730.119 508.439 730.671C508.178 731.223 507.904 731.768 507.617 732.306C507.33 732.845 507.029 733.376 506.716 733.9C506.402 734.423 506.076 734.939 505.737 735.447C505.398 735.954 505.047 736.453 504.683 736.944C504.32 737.435 503.945 737.916 503.558 738.387C503.171 738.859 502.772 739.321 502.362 739.774C501.952 740.226 501.531 740.668 501.1 741.1C500.668 741.531 500.226 741.952 499.774 742.362C499.321 742.772 498.859 743.17 498.387 743.557C497.916 743.944 497.435 744.32 496.944 744.683C496.453 745.047 495.954 745.398 495.447 745.737C494.939 746.076 494.423 746.402 493.9 746.716C493.376 747.029 492.845 747.33 492.306 747.617C491.768 747.904 491.223 748.178 490.671 748.439C490.119 748.7 489.561 748.946 488.996 749.179C488.432 749.412 487.863 749.632 487.288 749.837C486.713 750.042 486.133 750.232 485.549 750.409C484.965 750.586 484.377 750.748 483.784 750.895C483.192 751.043 482.596 751.176 481.997 751.294C481.398 751.413 480.797 751.516 480.193 751.605C479.589 751.694 478.983 751.767 478.376 751.826C477.769 751.885 477.16 751.929 476.55 751.958C475.941 751.987 475.331 752.001 474.72 752L258.88 752C257.219 749.928 255.579 747.839 253.961 745.732C252.344 743.625 250.749 741.502 249.177 739.361C247.604 737.221 246.055 735.064 244.527 732.891C243 730.718 241.497 728.529 240.016 726.324C238.535 724.119 237.078 721.899 235.644 719.663C234.21 717.428 232.8 715.177 231.414 712.911C230.028 710.646 228.666 708.366 227.328 706.072C225.99 703.777 224.676 701.469 223.387 699.147C222.098 696.825 220.833 694.49 219.594 692.141C218.354 689.792 217.139 687.43 215.949 685.056C214.759 682.681 213.594 680.294 212.455 677.895C211.316 675.496 210.202 673.086 209.113 670.663C208.025 668.24 206.962 665.806 205.924 663.361C204.887 660.916 203.876 658.46 202.891 655.994C201.906 653.527 200.947 651.051 200.014 648.564C199.081 646.077 198.175 643.581 197.295 641.075C196.415 638.569 195.561 636.054 194.734 633.53C193.908 631.006 193.107 628.474 192.334 625.933C191.561 623.392 190.814 620.843 190.095 618.286C189.376 615.729 188.684 613.165 188.018 610.594C187.353 608.023 186.715 605.445 186.104 602.86C185.493 600.275 184.909 597.685 184.353 595.088C183.797 592.491 183.269 589.888 182.768 587.28C182.267 584.671 181.793 582.058 181.348 579.44C180.902 576.821 180.484 574.199 180.093 571.572C179.703 568.945 179.341 566.314 179.006 563.679C178.671 561.044 178.364 558.406 178.085 555.765C177.806 553.124 177.555 550.48 177.332 547.833C177.109 545.186 176.914 542.538 176.747 539.887C176.58 537.236 176.441 534.584 176.33 531.931C176.219 529.277 176.136 526.622 176.081 523.967C176.026 521.312 175.999 518.656 176 516L176 508C175.998 505.553 176.02 503.106 176.066 500.659C176.112 498.212 176.182 495.765 176.276 493.32C176.369 490.874 176.487 488.43 176.629 485.987C176.77 483.544 176.936 481.102 177.125 478.662C177.314 476.222 177.527 473.784 177.764 471.348C178.001 468.912 178.261 466.479 178.545 464.048C178.829 461.617 179.137 459.189 179.469 456.764C179.801 454.339 180.156 451.918 180.535 449.5C180.914 447.083 181.316 444.669 181.743 442.259C182.169 439.849 182.618 437.443 183.091 435.042C183.564 432.641 184.061 430.244 184.581 427.853C185.101 425.462 185.644 423.075 186.21 420.694C186.777 418.313 187.367 415.938 187.979 413.569C188.592 411.2 189.228 408.836 189.887 406.479C190.546 404.122 191.228 401.772 191.933 399.428C192.638 397.085 193.365 394.748 194.116 392.418C194.867 390.089 195.64 387.767 196.435 385.453C197.231 383.138 198.049 380.832 198.89 378.534C199.732 376.235 200.595 373.945 201.48 371.664C202.366 369.383 203.274 367.11 204.203 364.846C205.133 362.582 206.085 360.327 207.059 358.082C208.033 355.837 209.029 353.602 210.047 351.376C211.064 349.15 212.104 346.934 213.165 344.729C214.226 342.524 215.308 340.329 216.412 338.144C217.516 335.96 218.641 333.787 219.787 331.624C220.933 329.462 222.1 327.311 223.288 325.172C224.477 323.032 225.686 320.904 226.915 318.788C228.145 316.672 229.396 314.568 230.666 312.477C231.938 310.386 233.229 308.307 234.54 306.24C235.852 304.174 237.183 302.121 238.534 300.08C239.885 298.04 241.257 296.013 242.648 293.999C244.039 291.986 245.45 289.986 246.88 288L474.72 288C475.331 287.999 475.941 288.013 476.55 288.042C477.16 288.071 477.769 288.115 478.376 288.174C478.983 288.233 479.589 288.306 480.193 288.395C480.797 288.484 481.398 288.587 481.997 288.706C482.596 288.824 483.192 288.957 483.784 289.105C484.376 289.252 484.964 289.414 485.549 289.591C486.133 289.768 486.713 289.958 487.288 290.163C487.863 290.368 488.432 290.588 488.996 290.821C489.561 291.054 490.119 291.3 490.671 291.561C491.223 291.822 491.768 292.096 492.306 292.383C492.845 292.67 493.376 292.971 493.9 293.284C494.423 293.598 494.939 293.924 495.447 294.263C495.954 294.602 496.453 294.953 496.944 295.317C497.435 295.68 497.916 296.055 498.387 296.442C498.859 296.829 499.321 297.228 499.774 297.638C500.226 298.048 500.668 298.469 501.1 298.9C501.531 299.332 501.952 299.774 502.362 300.226C502.772 300.679 503.17 301.141 503.557 301.613C503.944 302.084 504.32 302.565 504.683 303.056C505.047 303.547 505.398 304.046 505.737 304.553C506.076 305.061 506.402 305.577 506.716 306.1C507.029 306.624 507.33 307.155 507.617 307.694C507.904 308.232 508.178 308.777 508.439 309.329C508.7 309.881 508.946 310.439 509.179 311.004C509.412 311.568 509.632 312.137 509.837 312.712C510.042 313.287 510.232 313.867 510.409 314.451C510.586 315.035 510.748 315.623 510.895 316.216C511.043 316.808 511.176 317.404 511.294 318.003C511.413 318.602 511.516 319.203 511.605 319.807C511.694 320.411 511.767 321.017 511.826 321.624C511.885 322.231 511.929 322.84 511.958 323.45C511.987 324.059 512.001 324.669 512 325.28Z"   fill="#000000" ></path></g><path d="M101.344 288L474.656 288C499.552 288 512 300.448 512 325.344L512 698.656C512 723.552 499.552 736 474.656 736L101.344 736C76.448 736 64 723.552 64 698.656L64 325.344C64 300.448 76.448 288 101.344 288Z"   fill="#C43E1C" ></path><path d="M295.408 386.512C296.881 386.413 298.356 386.346 299.833 386.313C301.31 386.28 302.786 386.28 304.263 386.313C305.74 386.346 307.215 386.413 308.689 386.512C310.162 386.611 311.633 386.744 313.101 386.91C314.568 387.075 316.031 387.274 317.49 387.505C318.949 387.736 320.402 388 321.849 388.296C323.296 388.593 324.735 388.922 326.168 389.283C327.6 389.644 329.023 390.038 330.438 390.463C331.852 390.888 333.256 391.344 334.65 391.833C336.044 392.321 337.426 392.84 338.797 393.391C340.168 393.941 341.525 394.522 342.87 395.133C344.215 395.744 345.545 396.386 346.86 397.057C348.176 397.728 349.476 398.429 350.76 399.158C352.045 399.887 353.312 400.645 354.562 401.432C355.812 402.218 357.044 403.032 358.258 403.874C359.471 404.716 360.665 405.585 361.84 406.48C362.332 406.935 362.818 407.396 363.297 407.865C363.776 408.334 364.248 408.809 364.714 409.29C365.18 409.772 365.639 410.26 366.091 410.754C366.544 411.249 366.989 411.749 367.427 412.256C367.866 412.763 368.297 413.275 368.721 413.794C369.145 414.313 369.562 414.837 369.971 415.368C370.381 415.898 370.783 416.434 371.178 416.975C371.573 417.517 371.96 418.064 372.339 418.616C372.718 419.169 373.09 419.726 373.454 420.288C373.818 420.851 374.174 421.418 374.522 421.991C374.87 422.564 375.21 423.141 375.543 423.723C375.875 424.305 376.199 424.891 376.515 425.482C376.83 426.073 377.138 426.668 377.437 427.268C377.736 427.867 378.027 428.471 378.31 429.078C378.593 429.686 378.867 430.298 379.132 430.913C379.397 431.528 379.654 432.147 379.903 432.769C380.151 433.392 380.39 434.017 380.621 434.646C380.852 435.275 381.075 435.907 381.288 436.542C381.501 437.177 381.706 437.816 381.901 438.457C382.096 439.098 382.283 439.741 382.461 440.387C382.638 441.033 382.807 441.681 382.967 442.332C383.126 442.983 383.277 443.636 383.419 444.291C383.56 444.946 383.693 445.602 383.816 446.261C383.939 446.92 384.053 447.58 384.158 448.242C384.263 448.903 384.358 449.566 384.445 450.231C384.532 450.896 384.609 451.561 384.677 452.228C384.745 452.895 384.804 453.562 384.853 454.23C384.902 454.898 384.942 455.567 384.973 456.236C385.004 456.905 385.025 457.575 385.038 458.245C385.05 458.915 385.053 459.585 385.046 460.255C385.04 460.925 385.024 461.595 384.999 462.265C384.974 462.934 384.939 463.603 384.896 464.272C384.93 466.159 384.899 468.044 384.803 469.928C384.707 471.812 384.546 473.691 384.32 475.564C384.095 477.437 383.805 479.301 383.451 481.154C383.096 483.007 382.679 484.846 382.198 486.67C381.717 488.495 381.174 490.3 380.568 492.087C379.963 493.874 379.297 495.638 378.57 497.379C377.843 499.12 377.056 500.834 376.211 502.521C375.366 504.208 374.463 505.863 373.504 507.488C373.024 508.279 372.53 509.061 372.021 509.834C371.513 510.607 370.991 511.37 370.455 512.124C369.919 512.879 369.37 513.623 368.807 514.357C368.244 515.092 367.669 515.816 367.08 516.529C366.491 517.243 365.89 517.946 365.275 518.637C364.661 519.329 364.035 520.01 363.396 520.68C362.757 521.349 362.107 522.006 361.445 522.652C360.782 523.298 360.109 523.932 359.424 524.554C358.739 525.175 358.042 525.784 357.335 526.381C356.628 526.978 355.91 527.561 355.182 528.132C354.454 528.703 353.716 529.26 352.967 529.804C352.219 530.348 351.461 530.878 350.694 531.395C349.927 531.912 349.15 532.415 348.365 532.904C347.579 533.393 346.785 533.867 345.982 534.327C345.179 534.787 344.369 535.233 343.55 535.664C342.731 536.095 341.905 536.511 341.072 536.912C339.181 537.815 337.266 538.663 335.326 539.455C333.385 540.246 331.424 540.981 329.441 541.658C327.458 542.335 325.456 542.954 323.437 543.514C321.418 544.074 319.384 544.575 317.336 545.016C315.287 545.458 313.228 545.839 311.157 546.16C309.086 546.481 307.008 546.742 304.922 546.942C302.836 547.142 300.746 547.281 298.652 547.358C296.558 547.436 294.464 547.453 292.368 547.408L246.272 547.408L246.272 635.408L198.992 635.408L198.992 386.512L295.408 386.512ZM246.272 509.392L286.96 509.392C287.76 509.451 288.561 509.491 289.362 509.513C290.164 509.535 290.966 509.538 291.768 509.523C292.569 509.508 293.37 509.474 294.171 509.422C294.971 509.369 295.77 509.298 296.567 509.209C297.365 509.12 298.159 509.012 298.951 508.886C299.743 508.76 300.532 508.616 301.317 508.453C302.102 508.29 302.883 508.109 303.66 507.91C304.437 507.711 305.209 507.495 305.976 507.26C306.743 507.025 307.504 506.773 308.259 506.503C309.014 506.233 309.763 505.946 310.505 505.641C311.247 505.336 311.981 505.015 312.708 504.676C313.435 504.337 314.154 503.982 314.864 503.61C315.575 503.237 316.276 502.849 316.969 502.445C317.662 502.04 318.344 501.62 319.017 501.184C319.69 500.747 320.353 500.296 321.005 499.829C321.657 499.362 322.298 498.881 322.928 498.384C323.455 497.864 323.967 497.33 324.464 496.782C324.962 496.235 325.445 495.674 325.912 495.1C326.38 494.527 326.832 493.941 327.268 493.343C327.704 492.745 328.124 492.136 328.527 491.515C328.93 490.894 329.316 490.263 329.685 489.622C330.054 488.981 330.406 488.33 330.741 487.67C331.075 487.01 331.391 486.341 331.689 485.664C331.988 484.987 332.268 484.302 332.529 483.609C332.79 482.917 333.033 482.218 333.257 481.513C333.48 480.807 333.685 480.096 333.871 479.38C334.056 478.663 334.222 477.942 334.369 477.217C334.516 476.492 334.643 475.763 334.75 475.031C334.857 474.299 334.945 473.564 335.013 472.827C335.081 472.09 335.129 471.352 335.158 470.613C335.186 469.873 335.194 469.133 335.182 468.393C335.171 467.653 335.139 466.914 335.088 466.176C335.088 438.763 319.552 425.056 288.48 425.056L246.272 425.056L246.272 509.392Z"   fill="#FFFFFF" ></path></g><defs><clipPath id="clip-path-XcRzDTvkcehIyOHu7UCUc"><path d="M0 1024L1024 1024L1024 0L0 0L0 1024Z" fill="white"/></clipPath></defs></svg>