<svg xmlns="http://www.w3.org/2000/svg" width="1024" height="1024" viewBox="0 0 1024 1024" fill="none"><path d="M557.94 46C815.324 46 1024 254.63 1024 512C1024 769.37 815.368 978 557.9 978C554.105 978 550.305 977.958 546.51 977.87C542.716 977.78 538.931 977.651 535.14 977.47C531.349 977.288 527.555 977.054 523.77 976.78C519.984 976.506 516.208 976.188 512.43 975.82C508.653 975.453 504.878 975.038 501.11 974.58C497.344 974.12 493.585 973.621 489.83 973.07C486.075 972.518 482.33 971.923 478.59 971.28C474.851 970.637 471.114 969.945 467.39 969.21C463.668 968.476 459.955 967.696 456.25 966.87C452.546 966.045 448.852 965.175 445.17 964.26C441.488 963.345 437.82 962.386 434.16 961.38C430.501 960.374 426.854 959.325 423.22 958.23C419.587 957.135 415.965 955.993 412.36 954.81C408.753 953.626 405.165 952.391 401.59 951.12C398.014 949.849 394.453 948.539 390.91 947.18C387.367 945.822 383.839 944.415 380.33 942.97C376.821 941.525 373.333 940.041 369.86 938.51C366.387 936.979 362.934 935.405 359.5 933.79C356.066 932.175 352.654 930.518 349.26 928.82C345.866 927.12 342.491 925.382 339.14 923.6C335.789 921.818 332.465 919.993 329.16 918.13C325.853 916.267 322.57 914.364 319.31 912.42C316.05 910.476 312.811 908.492 309.6 906.47C306.389 904.447 303.21 902.39 300.05 900.29C296.89 898.189 293.748 896.048 290.64 893.87C287.533 891.692 284.455 889.483 281.4 887.23C278.347 884.977 275.328 882.687 272.33 880.36C269.332 878.033 266.36 875.67 263.42 873.27C260.481 870.87 257.571 868.431 254.69 865.96C251.811 863.489 248.958 860.981 246.14 858.44C243.322 855.899 240.536 853.329 237.78 850.72C235.025 848.111 232.301 845.466 229.61 842.79C227.171 840.337 224.786 837.832 222.46 835.27C221.748 834.49 221.063 833.693 220.39 832.88C219.717 832.066 219.064 831.235 218.43 830.39C217.799 829.545 217.19 828.685 216.6 827.81C216.01 826.934 215.437 826.042 214.89 825.14C214.345 824.236 213.821 823.318 213.32 822.39C212.819 821.46 212.346 820.522 211.89 819.57C211.435 818.617 210.998 817.654 210.59 816.68C210.183 815.706 209.8 814.722 209.44 813.73C209.082 812.737 208.752 811.739 208.44 810.73C208.131 809.721 207.84 808.703 207.58 807.68C207.319 806.657 207.089 805.625 206.88 804.59C206.671 803.555 206.48 802.523 206.32 801.48C206.162 800.436 206.038 799.38 205.93 798.33C205.824 797.28 205.737 796.234 205.68 795.18C205.624 794.126 205.59 793.066 205.59 792.01C205.59 790.954 205.613 789.904 205.66 788.85C205.709 787.796 205.781 786.74 205.88 785.69C205.98 784.64 206.109 783.595 206.26 782.55C206.412 781.505 206.589 780.466 206.79 779.43C206.993 778.394 207.218 777.354 207.47 776.33C207.725 775.305 208.007 774.292 208.31 773.28C208.614 772.268 208.939 771.266 209.29 770.27C209.642 769.275 210.02 768.286 210.42 767.31C210.821 766.332 211.243 765.366 211.69 764.41C212.139 763.454 212.616 762.512 213.11 761.58C213.605 760.646 214.12 759.728 214.66 758.82C215.2 757.912 215.757 757.019 216.34 756.14C216.924 755.26 217.534 754.401 218.16 753.55C218.787 752.701 219.434 751.859 220.1 751.04C220.768 750.222 221.455 749.424 222.16 748.64C222.867 747.854 223.586 747.089 224.33 746.34C225.074 745.591 225.841 744.862 226.62 744.15L227.74 743.15L228.91 742.2L249.98 767.54C252.315 770.359 254.688 773.146 257.1 775.9C259.512 778.654 261.954 781.373 264.44 784.06C266.927 786.747 269.461 789.404 272.02 792.02C274.58 794.638 277.169 797.215 279.8 799.76C282.431 802.306 285.101 804.818 287.8 807.29C290.5 809.764 293.234 812.193 296 814.59C298.768 816.987 301.559 819.35 304.39 821.67C307.221 823.99 310.085 826.269 312.98 828.51C315.875 830.751 318.807 832.958 321.76 835.12C324.716 837.281 327.697 839.401 330.71 841.48C333.723 843.559 336.771 845.594 339.84 847.59C342.909 849.586 345.998 851.54 349.12 853.45C352.244 855.36 355.396 857.226 358.57 859.05C361.744 860.873 364.946 862.644 368.17 864.38C371.394 866.116 374.64 867.814 377.91 869.46C381.18 871.107 384.476 872.704 387.79 874.26C391.104 875.816 394.434 877.327 397.79 878.79C401.146 880.253 404.526 881.669 407.92 883.04C411.315 884.411 414.719 885.734 418.15 887.01C421.58 888.288 425.035 889.518 428.5 890.7C431.965 891.883 435.444 893.023 438.94 894.11C442.436 895.197 445.945 896.229 449.47 897.22C452.995 898.209 456.53 899.158 460.08 900.05C463.631 900.943 467.196 901.785 470.77 902.58C474.344 903.375 477.926 904.114 481.52 904.81C485.114 905.507 488.718 906.154 492.33 906.75C495.943 907.347 499.564 907.903 503.19 908.4C506.819 908.897 510.451 909.341 514.09 909.74C517.73 910.137 521.382 910.483 525.03 910.78C528.68 911.077 532.325 911.324 535.98 911.52C539.636 911.717 543.3 911.864 546.96 911.96C550.621 912.056 554.28 912.1 557.94 912.1C564.49 912.1 571.039 911.941 577.58 911.62C584.122 911.299 590.651 910.813 597.17 910.17C603.689 909.529 610.182 908.731 616.66 907.77C623.138 906.809 629.586 905.688 636.01 904.41C642.434 903.134 648.828 901.701 655.18 900.11C661.534 898.519 667.842 896.771 674.11 894.87C680.378 892.969 686.593 890.916 692.76 888.71C698.927 886.504 705.03 884.146 711.08 881.64C717.132 879.134 723.12 876.48 729.04 873.68C734.96 870.88 740.813 867.946 746.59 864.86C752.366 861.773 758.063 858.547 763.68 855.18C769.298 851.813 774.824 848.307 780.27 844.67C785.716 841.033 791.07 837.261 796.33 833.36C801.59 829.459 806.757 825.434 811.82 821.28C816.883 817.126 821.836 812.847 826.69 808.45C831.544 804.052 836.28 799.54 840.91 794.91C845.541 790.281 850.062 785.542 854.46 780.69C858.858 775.838 863.135 770.881 867.29 765.82C871.446 760.758 875.469 755.6 879.37 750.34C883.271 745.081 887.041 739.725 890.68 734.28C894.319 728.835 897.824 723.306 901.19 717.69C904.558 712.074 907.783 706.374 910.87 700.6C913.957 694.826 916.9 688.979 919.7 683.06C922.5 677.14 925.153 671.16 927.66 665.11C930.167 659.06 932.525 652.955 934.73 646.79C936.937 640.625 938.989 634.405 940.89 628.14C942.791 621.874 944.539 615.571 946.13 609.22C947.722 602.868 949.163 596.481 950.44 590.06C951.718 583.638 952.829 577.187 953.79 570.71C954.751 564.232 955.558 557.736 956.2 551.22C956.843 544.703 957.319 538.17 957.64 531.63C957.962 525.09 958.13 518.548 958.13 512C958.13 505.452 957.962 498.91 957.64 492.37C957.319 485.83 956.843 479.297 956.2 472.78C955.558 466.263 954.751 459.767 953.79 453.29C952.829 446.813 951.718 440.362 950.44 433.94C949.163 427.518 947.722 421.131 946.13 414.78C944.539 408.428 942.791 402.125 940.89 395.86C938.989 389.595 936.937 383.375 934.73 377.21C932.525 371.045 930.167 364.94 927.66 358.89C925.153 352.84 922.5 346.86 919.7 340.94C916.9 335.02 913.957 329.164 910.87 323.39C907.783 317.616 904.558 311.926 901.19 306.31C897.824 300.694 894.319 295.165 890.68 289.72C887.041 284.275 883.271 278.92 879.37 273.66C875.469 268.401 871.446 263.241 867.29 258.18C863.135 253.117 858.858 248.161 854.46 243.31C850.062 238.458 845.541 233.719 840.91 229.09C836.28 224.46 831.544 219.948 826.69 215.55C821.836 211.152 816.883 206.874 811.82 202.72C806.757 198.566 801.59 194.541 796.33 190.64C791.07 186.739 785.716 182.967 780.27 179.33C774.824 175.692 769.298 172.186 763.68 168.82C758.063 165.453 752.366 162.227 746.59 159.14C740.813 156.054 734.96 153.11 729.04 150.31C723.12 147.51 717.132 144.865 711.08 142.36C705.03 139.854 698.927 137.496 692.76 135.29C686.593 133.084 680.378 131.031 674.11 129.13C667.842 127.229 661.534 125.481 655.18 123.89C648.828 122.299 642.434 120.867 636.01 119.59C629.586 118.312 623.138 117.191 616.66 116.23C610.182 115.269 603.689 114.471 597.17 113.83C590.651 113.188 584.122 112.701 577.58 112.38C571.039 112.059 564.49 111.9 557.94 111.9C356.371 111.9 189.584 260.902 161.78 454.74L245.32 371.26C271.046 397.022 271.046 438.74 245.32 464.46L155.59 554.13C155.209 554.51 154.82 554.888 154.42 555.25C154.021 555.612 153.618 555.958 153.2 556.3C152.784 556.641 152.352 556.979 151.92 557.3C151.486 557.621 151.048 557.93 150.6 558.23C150.152 558.53 149.692 558.813 149.23 559.09C148.768 559.367 148.307 559.635 147.83 559.89C147.355 560.143 146.868 560.38 146.38 560.61C145.893 560.84 145.399 561.064 144.9 561.27C144.403 561.476 143.908 561.668 143.4 561.85C142.892 562.032 142.377 562.204 141.86 562.36C141.346 562.517 140.823 562.659 140.3 562.79C139.778 562.921 139.25 563.035 138.72 563.14C138.191 563.245 137.664 563.341 137.13 563.42C136.598 563.499 136.068 563.567 135.53 563.62C134.994 563.673 134.449 563.704 133.91 563.73C133.372 563.757 132.84 563.77 132.3 563.77C131.761 563.77 131.218 563.757 130.68 563.73C130.142 563.704 129.607 563.673 129.07 563.62C128.533 563.567 128.002 563.499 127.47 563.42C126.937 563.341 126.399 563.245 125.87 563.14C125.341 563.035 124.813 562.921 124.29 562.79C123.767 562.659 123.255 562.517 122.74 562.36C122.224 562.204 121.708 562.032 121.2 561.85C120.693 561.668 120.188 561.476 119.69 561.27C119.192 561.064 118.697 560.84 118.21 560.61C117.722 560.38 117.245 560.143 116.77 559.89C116.295 559.635 115.823 559.367 115.36 559.09C114.898 558.813 114.448 558.53 114 558.23C113.551 557.93 113.103 557.621 112.67 557.3C112.236 556.979 111.816 556.641 111.4 556.3C110.983 555.958 110.569 555.612 110.17 555.25C109.77 554.888 109.381 554.51 109 554.13L19.32 464.46C18.6039 463.745 17.9022 463.018 17.22 462.27C16.5368 461.522 15.8668 460.758 15.22 459.98C14.5723 459.201 13.9504 458.408 13.34 457.6C12.7295 456.792 12.1332 455.975 11.56 455.14C10.9868 454.305 10.4334 453.451 9.9 452.59C9.36578 451.729 8.85354 450.864 8.36 449.98C7.86647 449.096 7.39196 448.195 6.94 447.29C6.48716 446.385 6.05954 445.466 5.65 444.54C5.23959 443.614 4.8471 442.684 4.48 441.74C4.11288 440.796 3.77296 439.85 3.45 438.89C3.12705 437.93 2.81879 436.963 2.54 435.99C2.26121 435.016 2.01292 434.036 1.78 433.05C1.54623 432.064 1.32789 431.075 1.14 430.08C0.952109 429.085 0.791993 428.082 0.65 427.08C0.508859 426.078 0.386115 425.079 0.29 424.07C0.194756 423.062 0.128494 422.052 0.08 421.04C0.0306541 420.028 0 419.012 0 418C0 416.987 0.0158463 415.982 0.06 414.97C0.104154 413.958 0.178224 412.948 0.27 411.94C0.360923 410.931 0.4732 409.924 0.61 408.92C0.747673 407.916 0.907301 406.916 1.09 405.92C1.27355 404.924 1.48055 403.936 1.71 402.95C1.9386 401.963 2.18552 400.984 2.46 400.01C2.73447 399.035 3.03137 398.071 3.35 397.11C3.66863 396.149 4.0072 395.195 4.37 394.25C4.73278 393.305 5.12391 392.368 5.53 391.44C5.93609 390.513 6.36148 389.588 6.81 388.68C7.25849 387.772 7.73081 386.876 8.22 385.99C8.70921 385.103 9.21922 384.233 9.75 383.37C10.2799 382.508 10.8211 381.658 11.39 380.82C11.9589 379.982 12.553 379.16 13.16 378.35C13.7669 377.54 14.3858 376.742 15.03 375.96L19.32 371.26L96.16 448.14C127.33 220.978 322.169 46 557.9 46L557.94 46ZM539.07 304.87C557.273 304.87 572.03 319.66 572.03 337.86L572.03 552.01L683.16 635.32C697.706 646.248 700.66 666.907 689.73 681.45L676.18 699.52C676.077 699.656 675.969 699.789 675.86 699.92C675.751 700.051 675.644 700.185 675.53 700.31C675.414 700.436 675.292 700.551 675.17 700.67C675.051 700.789 674.927 700.907 674.8 701.02C674.673 701.134 674.551 701.244 674.42 701.35C674.288 701.458 674.146 701.57 674.01 701.67C673.874 701.77 673.732 701.865 673.59 701.96C673.448 702.053 673.307 702.143 673.16 702.23C673.015 702.317 672.871 702.401 672.72 702.48C672.571 702.559 672.415 702.629 672.26 702.7C672.105 702.771 671.947 702.846 671.79 702.91C671.633 702.975 671.48 703.034 671.32 703.09C671.159 703.146 670.994 703.202 670.83 703.25C670.668 703.298 670.505 703.34 670.34 703.38C670.175 703.42 670.006 703.458 669.84 703.49C669.674 703.522 669.509 703.545 669.34 703.57C669.172 703.593 669 703.613 668.83 703.63C668.661 703.646 668.49 703.67 668.32 703.67C668.15 703.67 667.98 703.68 667.81 703.68C667.64 703.68 667.47 703.66 667.3 703.66C667.131 703.66 666.96 703.638 666.79 703.62C666.621 703.603 666.459 703.586 666.29 703.56C666.122 703.534 665.958 703.504 665.79 703.47C665.624 703.436 665.455 703.393 665.29 703.35C665.125 703.307 664.962 703.261 664.8 703.21C664.638 703.159 664.48 703.108 664.32 703.05C664.16 702.992 663.997 702.936 663.84 702.87C663.684 702.804 663.533 702.733 663.38 702.66C663.227 702.586 663.069 702.502 662.92 702.42C662.771 702.339 662.625 702.258 662.48 702.17C662.336 702.082 662.192 701.995 662.05 701.9C661.91 701.805 661.766 701.703 661.63 701.6L506.11 584.96L506.11 315.3C506.11 315.13 506.13 314.96 506.13 314.79C506.13 314.62 506.143 314.449 506.16 314.28C506.177 314.11 506.205 313.938 506.23 313.77C506.255 313.603 506.276 313.438 506.31 313.27C506.344 313.104 506.388 312.935 506.43 312.77C506.472 312.605 506.511 312.442 506.56 312.28C506.609 312.118 506.662 311.96 506.72 311.8C506.777 311.64 506.835 311.477 506.9 311.32C506.965 311.163 507.037 311.003 507.11 310.85C507.183 310.695 507.259 310.549 507.34 310.4C507.419 310.251 507.503 310.097 507.59 309.95C507.678 309.805 507.766 309.662 507.86 309.52C507.955 309.378 508.059 309.246 508.16 309.11C508.261 308.974 508.362 308.841 508.47 308.71C508.578 308.579 508.686 308.446 508.8 308.32C508.914 308.194 509.041 308.071 509.16 307.95C509.281 307.829 509.404 307.714 509.53 307.6C509.656 307.487 509.779 307.378 509.91 307.27C510.042 307.162 510.175 307.051 510.31 306.95C510.446 306.849 510.588 306.755 510.73 306.66C510.873 306.565 511.015 306.467 511.16 306.38C511.307 306.293 511.461 306.209 511.61 306.13C511.761 306.049 511.907 305.973 512.06 305.9C512.213 305.827 512.373 305.765 512.53 305.7C512.687 305.635 512.84 305.567 513 305.51C513.16 305.453 513.328 305.409 513.49 305.36C513.652 305.311 513.816 305.262 513.98 305.22C514.145 305.178 514.314 305.142 514.48 305.11C514.648 305.076 514.812 305.045 514.98 305.02C515.149 304.995 515.321 304.977 515.49 304.96C515.659 304.943 515.821 304.92 515.99 304.92C516.16 304.92 516.331 304.91 516.5 304.91L539.07 304.91L539.07 304.87Z"   fill="currentColor" ></path></svg>