<svg xmlns="http://www.w3.org/2000/svg" width="1024" height="1024" viewBox="0 0 1024 1024" fill="none"><path d="M653.185 195.003C649.429 191.247 645.582 187.584 641.646 184.015C637.71 180.447 633.688 176.979 629.582 173.608C625.475 170.238 621.287 166.969 617.021 163.804C612.754 160.64 608.412 157.581 603.996 154.628C599.578 151.677 595.092 148.834 590.535 146.103C585.978 143.372 581.357 140.753 576.672 138.249C571.987 135.745 567.243 133.357 562.44 131.085C557.638 128.812 552.783 126.661 547.875 124.627C542.967 122.594 538.012 120.682 533.01 118.892C528.009 117.102 522.965 115.437 517.882 113.895C512.798 112.352 507.68 110.936 502.527 109.644C497.373 108.353 492.191 107.189 486.982 106.153C481.772 105.117 476.538 104.208 471.283 103.429C466.028 102.649 460.758 101.999 455.471 101.479C450.183 100.957 444.887 100.566 439.581 100.305C434.275 100.045 428.967 99.9145 423.654 99.9145C418.341 99.9145 413.032 100.045 407.726 100.305C402.42 100.566 397.124 100.957 391.837 101.479C386.55 101.999 381.279 102.649 376.024 103.429C370.769 104.208 365.536 105.117 360.326 106.153C355.116 107.189 349.935 108.353 344.781 109.644C339.627 110.936 334.51 112.352 329.426 113.895C324.343 115.437 319.299 117.102 314.297 118.892C309.296 120.682 304.341 122.594 299.433 124.627C294.525 126.661 289.67 128.812 284.867 131.085C280.065 133.357 275.321 135.745 270.635 138.249C265.95 140.753 261.33 143.372 256.773 146.103C252.216 148.834 247.73 151.677 243.312 154.629C238.896 157.581 234.553 160.64 230.287 163.804C226.02 166.969 221.834 170.238 217.726 173.608C213.619 176.979 209.598 180.447 205.662 184.015C201.726 187.584 197.879 191.247 194.123 195.003C190.367 198.76 186.704 202.607 183.137 206.544C179.569 210.481 176.101 214.502 172.731 218.61C169.361 222.718 166.093 226.905 162.928 231.172C159.764 235.44 156.706 239.783 153.755 244.2C150.803 248.618 147.961 253.105 145.23 257.662C142.499 262.22 139.881 266.84 137.377 271.527C134.873 276.213 132.486 280.958 130.214 285.761C127.943 290.564 125.79 295.42 123.757 300.329C121.724 305.237 119.813 310.193 118.023 315.195C116.234 320.197 114.568 325.242 113.026 330.326C111.484 335.41 110.068 340.53 108.776 345.683C107.485 350.837 106.322 356.02 105.286 361.23C104.249 366.441 103.341 371.675 102.562 376.93C101.782 382.187 101.132 387.458 100.612 392.746C100.091 398.034 99.6996 403.33 99.439 408.637C99.1784 413.944 99.048 419.254 99.048 424.567C99.048 429.881 99.1784 435.191 99.439 440.498C99.6996 445.804 100.091 451.101 100.612 456.389C101.132 461.676 101.782 466.948 102.562 472.203C103.341 477.459 104.249 482.694 105.286 487.904C106.322 493.115 107.485 498.297 108.776 503.452C110.068 508.605 111.484 513.724 113.026 518.809C114.568 523.893 116.234 528.937 118.023 533.94C119.813 538.942 121.724 543.897 123.757 548.806C125.79 553.715 127.942 558.571 130.214 563.374C132.486 568.177 134.873 572.921 137.377 577.607C139.881 582.293 142.499 586.915 145.23 591.472C147.961 596.03 150.803 600.517 153.755 604.935C156.706 609.352 159.764 613.695 162.928 617.962C166.093 622.229 169.361 626.417 172.731 630.525C176.101 634.631 179.569 638.654 183.137 642.591C186.704 646.528 190.367 650.375 194.123 654.131C197.879 657.888 201.726 661.551 205.662 665.119C209.598 668.687 213.619 672.156 217.726 675.526C221.834 678.897 226.02 682.165 230.287 685.331C234.553 688.495 238.896 691.554 243.312 694.505C247.73 697.458 252.216 700.3 256.773 703.031C261.33 705.763 265.95 708.381 270.635 710.885C275.321 713.389 280.065 715.778 284.867 718.05C289.67 720.321 294.525 722.474 299.433 724.507C304.341 726.541 309.296 728.451 314.297 730.241C319.299 732.031 324.343 733.698 329.426 735.24C334.51 736.782 339.627 738.2 344.781 739.491C349.935 740.782 355.116 741.946 360.326 742.982C365.536 744.018 370.769 744.926 376.024 745.706C381.279 746.486 386.55 747.135 391.837 747.656C397.124 748.177 402.42 748.568 407.726 748.829C413.032 749.09 418.341 749.22 423.654 749.22C428.967 749.22 434.275 749.09 439.581 748.829C444.887 748.568 450.183 748.177 455.471 747.656C460.758 747.135 466.028 746.486 471.283 745.706C476.538 744.926 481.772 744.018 486.982 742.982C492.191 741.946 497.373 740.782 502.527 739.491C507.68 738.2 512.798 736.782 517.882 735.24C522.965 733.698 528.009 732.031 533.01 730.241C538.012 728.451 542.967 726.541 547.875 724.507C552.783 722.474 557.638 720.321 562.44 718.05C567.243 715.778 571.986 713.389 576.671 710.885C581.357 708.381 585.978 705.763 590.535 703.031C595.092 700.3 599.578 697.458 603.996 694.505C608.412 691.554 612.754 688.495 617.021 685.331C621.287 682.165 625.475 678.897 629.582 675.526C633.688 672.156 637.71 668.687 641.646 665.119C645.582 661.551 649.429 657.888 653.185 654.131C656.941 650.375 660.603 646.528 664.171 642.591C667.739 638.654 671.207 634.631 674.577 630.525C677.947 626.417 681.215 622.229 684.38 617.962C687.544 613.695 690.602 609.352 693.553 604.935C696.505 600.517 699.347 596.03 702.078 591.472C704.809 586.915 707.427 582.293 709.931 577.608C712.434 572.922 714.822 568.177 717.094 563.374C719.365 558.571 721.517 553.715 723.551 548.806C725.584 543.897 727.494 538.942 729.284 533.94C731.073 528.937 732.74 523.893 734.282 518.809C735.823 513.724 737.241 508.605 738.532 503.452C739.823 498.297 740.986 493.115 742.022 487.904C743.058 482.694 743.967 477.459 744.746 472.203C745.526 466.948 746.175 461.676 746.696 456.389C747.217 451.101 747.608 445.803 747.869 440.497C748.13 435.19 748.26 429.881 748.26 424.567C748.26 419.254 748.13 413.944 747.869 408.637C747.608 403.33 747.217 398.034 746.696 392.746C746.175 387.458 745.526 382.187 744.746 376.93C743.967 371.675 743.058 366.441 742.022 361.23C740.986 356.02 739.823 350.837 738.532 345.683C737.241 340.528 735.823 335.41 734.282 330.326C732.74 325.242 731.073 320.197 729.284 315.195C727.494 310.193 725.584 305.237 723.551 300.329C721.517 295.42 719.365 290.564 717.094 285.761C714.822 280.958 712.434 276.213 709.931 271.527C707.427 266.84 704.809 262.22 702.078 257.662C699.347 253.105 696.505 248.618 693.553 244.2C690.602 239.783 687.544 235.44 684.38 231.172C681.215 226.905 677.947 222.718 674.577 218.61C671.207 214.502 667.739 210.481 664.171 206.544C660.603 202.607 656.941 198.76 653.185 195.003ZM123.481 124.351C128.209 119.623 133.046 115.008 137.993 110.508C142.939 106.008 147.989 101.627 153.143 97.3648C158.296 93.1036 163.547 88.9664 168.895 84.9533C174.244 80.9403 179.685 77.0556 185.217 73.2992C190.75 69.543 196.367 65.9194 202.071 62.4284C207.775 58.9376 213.557 55.5835 219.419 52.3665C225.281 49.1488 231.215 46.0714 237.223 43.1347C243.23 40.1978 249.304 37.4046 255.443 34.7549C261.583 32.1045 267.78 29.6009 274.038 27.2439C280.297 24.8869 286.606 22.6791 292.967 20.6203C299.329 18.5615 305.736 16.6541 312.189 14.8982C318.641 13.1422 325.13 11.5395 331.658 10.0902C338.186 8.6409 344.745 7.34657 351.333 6.20719C357.922 5.06789 364.534 4.08481 371.17 3.25792C377.805 2.43104 384.456 1.76133 391.123 1.24881C397.79 0.736215 404.466 0.381385 411.149 0.18432C417.833 -0.0126649 424.518 -0.0517581 431.204 0.0670221C437.89 0.185883 444.568 0.462554 451.24 0.897028C457.913 1.33158 464.571 1.92344 471.216 2.67258C477.861 3.42181 484.484 4.32753 491.087 5.38971C497.688 6.4519 504.261 7.66939 510.805 9.04221C517.35 10.415 523.858 11.9417 530.33 13.622C536.802 15.3023 543.231 17.1349 549.616 19.1195C556.001 21.1033 562.337 23.2371 568.622 25.5206C574.906 27.8043 581.134 30.2349 587.304 32.8129C593.474 35.3906 599.579 38.1128 605.62 40.9795C611.661 43.846 617.632 46.8534 623.531 50.0018C629.431 53.1508 635.253 56.4374 640.996 59.8612C646.74 63.285 652.401 66.8423 657.976 70.5331C663.552 74.2245 669.038 78.0456 674.433 81.9962C679.828 85.9461 685.127 90.0216 690.329 94.2226C695.532 98.4238 700.633 102.745 705.631 107.187C710.631 111.629 715.521 116.187 720.305 120.86C725.089 125.532 729.759 130.316 734.316 135.21C738.872 140.104 743.312 145.102 747.634 150.206C751.954 155.309 756.153 160.513 760.228 165.815C764.303 171.117 768.251 176.511 772.071 182.001C775.892 187.489 779.58 193.065 783.137 198.727C786.695 204.39 790.116 210.134 793.402 215.96C796.687 221.784 799.835 227.683 802.84 233.655C805.847 239.629 808.712 245.67 811.433 251.779C814.155 257.887 816.731 264.057 819.161 270.287C821.591 276.517 823.872 282.801 826.005 289.141C828.139 295.479 830.121 301.863 831.952 308.295C833.784 314.728 835.462 321.199 836.987 327.71C838.513 334.221 839.885 340.765 841.101 347.34C842.317 353.916 843.378 360.518 844.283 367.145C845.188 373.771 845.935 380.414 846.526 387.075C847.117 393.738 847.55 400.409 847.825 407.09C848.101 413.773 848.22 420.457 848.179 427.145C848.138 433.833 847.94 440.515 847.584 447.193C847.228 453.872 846.716 460.537 846.044 467.191C845.373 473.846 844.545 480.48 843.561 487.094C842.577 493.71 841.437 500.297 840.141 506.858C838.845 513.419 837.396 519.945 835.791 526.438C834.188 532.931 832.431 539.381 830.522 545.79C828.613 552.2 826.554 558.561 824.345 564.872C822.136 571.185 819.779 577.441 817.274 583.642C814.769 589.843 812.119 595.981 809.324 602.056C806.53 608.131 803.593 614.138 800.513 620.074C797.435 626.011 794.219 631.871 790.863 637.655C787.507 643.44 784.018 649.142 780.393 654.762C776.768 660.383 773.011 665.913 769.125 671.355C765.239 676.798 761.227 682.144 757.088 687.397L1024 954.348L953.358 1025L686.446 758.049C681.191 762.167 675.842 766.158 670.399 770.022C664.956 773.886 659.426 777.621 653.807 781.224C648.188 784.829 642.487 788.297 636.705 791.633C630.923 794.968 625.065 798.164 619.131 801.223C613.198 804.28 607.197 807.198 601.125 809.973C595.054 812.749 588.922 815.38 582.728 817.865C576.532 820.351 570.283 822.69 563.977 824.882C557.672 827.073 551.319 829.115 544.918 831.007C538.516 832.899 532.074 834.638 525.591 836.226C519.107 837.813 512.59 839.247 506.039 840.528C499.487 841.809 492.91 842.934 486.306 843.904C479.702 844.875 473.08 845.688 466.437 846.346C459.794 847.003 453.14 847.504 446.474 847.848C439.808 848.192 433.137 848.378 426.462 848.408C419.787 848.437 413.115 848.309 406.446 848.024C399.778 847.738 393.119 847.296 386.472 846.696C379.823 846.097 373.194 845.341 366.581 844.429C359.969 843.517 353.382 842.449 346.82 841.226C340.257 840.002 333.728 838.626 327.23 837.094C320.734 835.564 314.276 833.881 307.858 832.045C301.441 830.21 295.071 828.224 288.747 826.088C282.422 823.951 276.152 821.667 269.935 819.236C263.719 816.804 257.563 814.228 251.468 811.506C245.374 808.784 239.347 805.919 233.386 802.913C227.427 799.906 221.541 796.76 215.729 793.476C209.918 790.193 204.187 786.773 198.537 783.219C192.887 779.665 187.324 775.979 181.847 772.163C176.37 768.345 170.987 764.401 165.697 760.331C160.407 756.261 155.216 752.067 150.123 747.752C145.03 743.436 140.041 739.003 135.158 734.452C130.273 729.902 125.5 725.238 120.837 720.462C116.173 715.686 111.624 710.802 107.19 705.812C102.757 700.821 98.4437 695.73 94.2501 690.536C90.0567 685.341 85.988 680.051 82.0441 674.665C78.1004 669.279 74.2853 663.803 70.599 658.237C66.9135 652.671 63.361 647.022 59.9417 641.288C56.5221 635.555 53.2401 629.744 50.0953 623.855C46.9498 617.967 43.9448 612.008 41.0801 605.978C38.2163 599.948 35.4956 593.855 32.9182 587.696C30.3415 581.537 27.9112 575.322 25.6271 569.049C23.3431 562.776 21.2084 556.453 19.2233 550.078C17.2374 543.705 15.4029 537.289 13.7197 530.828C12.0367 524.367 10.5068 517.871 9.12998 511.339C7.75323 504.806 6.53118 498.245 5.46385 491.655C4.39642 485.065 3.48491 478.454 2.72932 471.821C1.97371 465.188 1.37481 458.541 0.932592 451.879C0.490457 445.218 0.20552 438.55 0.0777733 431.876C-0.0499646 425.202 -0.020352 418.528 0.16662 411.854C0.353583 405.18 0.697709 398.515 1.199 391.859C1.70021 385.201 2.35804 378.56 3.17247 371.934C3.98689 365.308 4.95702 358.704 6.08281 352.124C7.20868 345.544 8.48893 338.994 9.92356 332.474C11.3582 325.955 12.9458 319.471 14.6861 313.027C16.4265 306.582 18.3178 300.181 20.3598 293.826C22.402 287.47 24.5928 281.166 26.9322 274.913C29.2717 268.661 31.757 262.467 34.3883 256.331C37.0204 250.196 39.7953 244.127 42.7129 238.123C45.6306 232.118 48.688 226.185 51.885 220.325C55.0829 214.466 58.4168 208.684 61.8869 202.982C65.3563 197.278 68.9587 191.66 72.6942 186.127C76.4289 180.594 80.292 175.152 84.2833 169.801C88.2755 164.45 92.391 159.197 96.6298 154.04C100.869 148.884 105.228 143.83 109.706 138.879C114.183 133.928 118.774 129.085 123.481 124.351Z"   fill="currentColor" ></path></svg>