<svg xmlns="http://www.w3.org/2000/svg" width="1024" height="1024" viewBox="0 0 1024 1024" fill="none"><path d="M377.874 -5C377.435 -5 376.995 -4.98939 376.558 -4.96816C376.12 -4.94581 375.683 -4.91341 375.245 -4.87096C374.808 -4.82738 374.372 -4.77375 373.938 -4.71005C373.503 -4.64524 373.073 -4.57039 372.642 -4.48546C372.211 -4.39943 371.782 -4.30335 371.356 -4.1972C370.93 -4.08994 370.508 -3.97261 370.087 -3.84525C369.668 -3.71787 369.252 -3.58044 368.838 -3.43296C368.424 -3.28434 368.015 -3.12625 367.609 -2.95865C367.203 -2.79107 366.803 -2.61339 366.406 -2.42568C366.008 -2.23799 365.618 -2.04076 365.23 -1.83404C364.843 -1.62736 364.461 -1.41116 364.084 -1.18545C363.707 -0.959765 363.336 -0.724574 362.972 -0.479847C362.607 -0.236292 362.248 0.0162287 361.896 0.277683C361.542 0.53912 361.197 0.80897 360.858 1.08718C360.518 1.3654 360.186 1.65198 359.861 1.94697C359.536 2.24194 359.217 2.54417 358.907 2.85367C358.597 3.1643 358.295 3.48217 358 3.80731C357.705 4.13247 357.418 4.46487 357.14 4.80454C356.862 5.14307 356.592 5.48888 356.33 5.84194C356.069 6.19392 355.816 6.55259 355.571 6.91793C355.328 7.2822 355.093 7.65258 354.867 8.02912C354.641 8.40567 354.424 8.78779 354.218 9.17548C354.012 9.56208 353.814 9.95371 353.626 10.3504C353.439 10.747 353.261 11.1481 353.093 11.5537C352.926 11.9593 352.768 12.3688 352.619 12.7822C352.471 13.1957 352.334 13.6118 352.207 14.0308C352.079 14.451 351.962 14.8739 351.854 15.2996C351.749 15.7253 351.652 16.1538 351.566 16.585C351.481 17.0153 351.407 17.447 351.341 17.8806C351.278 18.3152 351.224 18.7509 351.181 19.1878C351.139 19.6248 351.105 20.0622 351.083 20.5001C351.062 20.9381 351.051 21.3767 351.051 21.8158L351.051 135.729C344.16 138.742 337.357 141.945 330.646 145.339C323.934 148.734 317.322 152.314 310.811 156.079C304.302 159.845 297.901 163.789 291.612 167.913C285.324 172.038 279.154 176.337 273.106 180.807L174.346 123.823C173.966 123.604 173.58 123.394 173.19 123.193C172.799 122.993 172.405 122.802 172.004 122.621C171.605 122.439 171.201 122.268 170.792 122.107C170.385 121.946 169.973 121.795 169.557 121.654C169.141 121.512 168.722 121.381 168.301 121.26C167.879 121.141 167.454 121.031 167.026 120.93C166.599 120.831 166.169 120.742 165.737 120.664C165.305 120.586 164.872 120.518 164.437 120.459C164.002 120.402 163.565 120.356 163.128 120.32C162.69 120.285 162.252 120.259 161.814 120.245C161.375 120.23 160.935 120.227 160.496 120.235C160.058 120.241 159.62 120.259 159.182 120.288C158.744 120.316 158.307 120.355 157.871 120.406C157.435 120.456 157 120.517 156.567 120.588C156.133 120.66 155.702 120.742 155.274 120.835C154.845 120.927 154.418 121.031 153.993 121.145C153.57 121.258 153.149 121.381 152.731 121.515C152.313 121.65 151.898 121.795 151.487 121.949C151.077 122.103 150.67 122.268 150.267 122.442C149.865 122.618 149.467 122.802 149.073 122.995C148.68 123.19 148.291 123.393 147.907 123.607C147.523 123.82 147.145 124.043 146.772 124.274C146.399 124.505 146.033 124.746 145.672 124.996C145.311 125.246 144.956 125.505 144.607 125.772C144.26 126.039 143.918 126.315 143.583 126.598C143.249 126.882 142.921 127.174 142.601 127.473C142.28 127.774 141.967 128.082 141.662 128.397C141.357 128.712 141.059 129.035 140.77 129.366C140.481 129.695 140.199 130.032 139.927 130.376C139.654 130.719 139.39 131.069 139.134 131.425C138.878 131.783 138.631 132.146 138.393 132.515C138.155 132.883 137.926 133.258 137.707 133.638L3.59598 365.862C3.37692 366.243 3.16682 366.628 2.96564 367.019C2.76559 367.409 2.57505 367.803 2.394 368.204C2.21295 368.603 2.04139 369.007 1.87934 369.415C1.71842 369.823 1.56753 370.235 1.42671 370.651C1.28479 371.066 1.15347 371.485 1.03275 371.906C0.913196 372.328 0.803101 372.754 0.70252 373.181C0.603042 373.609 0.514203 374.038 0.435981 374.47C0.357732 374.901 0.289561 375.335 0.231446 375.769C0.174454 376.205 0.128078 376.641 0.0923172 377.078C0.0565568 377.516 0.0314119 377.955 0.0168826 378.392C0.00235334 378.831 -0.000997609 379.27 0.00680421 379.709C0.0135317 380.147 0.0314119 380.586 0.0604705 381.023C0.0884035 381.461 0.127515 381.898 0.177805 382.334C0.228095 382.771 0.289 383.205 0.360547 383.638C0.432066 384.072 0.514203 384.503 0.606956 384.93C0.699733 385.359 0.803101 385.786 0.917083 386.211C1.02997 386.635 1.15347 387.055 1.28758 387.473C1.42279 387.89 1.56753 388.306 1.72177 388.716C1.87598 389.127 2.04082 389.532 2.21631 389.936C2.39065 390.338 2.5745 390.736 2.76782 391.13C2.96228 391.523 3.16625 391.912 3.37972 392.296C3.59318 392.68 3.81557 393.057 4.04691 393.431C4.27938 393.803 4.52022 394.17 4.76943 394.53C5.01979 394.89 5.2785 395.246 5.5456 395.594C5.8127 395.941 6.0882 396.283 6.37208 396.618C6.65594 396.952 6.94762 397.28 7.24714 397.601C7.54779 397.921 7.85569 398.234 8.17085 398.539C8.48601 398.844 8.80898 399.141 9.1398 399.431C9.46948 399.721 9.80644 400.001 10.1507 400.274C10.4938 400.547 10.8436 400.81 11.2001 401.066C11.5577 401.323 11.9209 401.569 12.2897 401.807C12.6585 402.045 13.0329 402.273 13.4129 402.493L112.146 459.476C111.313 466.951 110.688 474.443 110.27 481.953C109.853 489.463 109.645 496.978 109.645 504.5C109.645 512.022 109.853 519.537 110.27 527.047C110.688 534.557 111.313 542.049 112.146 549.524L13.4397 606.507C13.0877 606.71 12.7407 606.92 12.3987 607.139C12.0556 607.357 11.7181 607.583 11.3862 607.818C11.0542 608.051 10.7273 608.292 10.4055 608.54C10.0847 608.79 9.76956 609.045 9.45999 609.308C9.14929 609.571 8.84531 609.841 8.54802 610.117C8.25076 610.394 7.96018 610.677 7.67631 610.967C7.39133 611.257 7.11358 611.554 6.84313 611.855C6.57156 612.159 6.30727 612.467 6.05021 612.782C5.79316 613.096 5.54337 613.416 5.30085 613.742C5.05834 614.069 4.82365 614.399 4.59678 614.736C4.36878 615.073 4.14919 615.413 3.93794 615.76C3.72561 616.107 3.52166 616.458 3.32608 616.815C3.13049 617.17 2.94274 617.53 2.76281 617.894C2.58287 618.258 2.41189 618.626 2.24983 618.998C2.08667 619.372 1.93187 619.748 1.78546 620.126C1.64017 620.505 1.50327 620.887 1.37476 621.273C1.24622 621.658 1.12663 622.047 1.016 622.438C0.905369 622.828 0.803664 623.22 0.710911 623.616C0.618134 624.011 0.53431 624.409 0.459437 624.807C0.384566 625.208 0.31862 625.608 0.261629 626.011C0.205737 626.413 0.158262 626.817 0.119125 627.221C0.0811389 627.625 0.0520803 628.029 0.031949 628.436C0.0129689 628.841 0.00235334 629.247 0.000102319 629.653C-0.000997609 630.06 0.00680421 630.466 0.0235845 630.871C0.0414647 631.277 0.0677351 631.682 0.10237 632.086C0.13813 632.49 0.182844 632.894 0.236485 633.298C0.290125 633.7 0.353281 634.101 0.425902 634.501C0.497449 634.9 0.578459 635.297 0.668986 635.695C0.758388 636.09 0.857303 636.484 0.96571 636.876C1.07412 637.267 1.19091 637.655 1.31608 638.043C1.44236 638.43 1.57704 638.812 1.72008 639.192C1.86314 639.573 2.01459 639.948 2.17438 640.322L3.59598 643.138L137.707 875.362C137.926 875.743 138.155 876.117 138.393 876.485C138.631 876.854 138.878 877.218 139.134 877.575C139.39 877.932 139.654 878.282 139.927 878.625C140.199 878.969 140.481 879.304 140.77 879.634C141.059 879.965 141.357 880.288 141.662 880.603C141.967 880.918 142.28 881.227 142.601 881.527C142.921 881.827 143.249 882.118 143.583 882.401C143.918 882.685 144.26 882.961 144.607 883.228C144.956 883.496 145.311 883.754 145.672 884.004C146.033 884.253 146.399 884.495 146.772 884.726C147.145 884.957 147.523 885.18 147.907 885.393C148.291 885.606 148.68 885.81 149.073 886.005C149.467 886.198 149.865 886.382 150.267 886.558C150.67 886.732 151.077 886.896 151.487 887.051C151.898 887.207 152.313 887.351 152.731 887.485C153.149 887.619 153.57 887.743 153.993 887.855C154.418 887.969 154.845 888.073 155.274 888.165C155.702 888.257 156.133 888.34 156.567 888.412C157 888.484 157.435 888.544 157.871 888.594C158.307 888.645 158.744 888.683 159.182 888.712C159.62 888.74 160.059 888.759 160.498 888.765C160.936 888.774 161.375 888.77 161.814 888.755C162.252 888.74 162.69 888.715 163.128 888.68C163.565 888.645 164.002 888.598 164.437 888.541C164.872 888.482 165.305 888.415 165.737 888.336C166.169 888.257 166.599 888.169 167.026 888.07C167.454 887.969 167.879 887.859 168.301 887.74C168.722 887.619 169.141 887.488 169.557 887.347C169.973 887.205 170.385 887.054 170.792 886.893C171.201 886.732 171.605 886.561 172.004 886.38C172.405 886.198 172.801 886.007 173.191 885.807C173.582 885.606 173.966 885.396 174.346 885.177L273.106 828.193C279.154 832.662 285.324 836.957 291.613 841.08C297.901 845.201 304.302 849.145 310.813 852.907C317.324 856.67 323.936 860.248 330.646 863.641C337.359 867.033 344.16 870.234 351.051 873.244L351.051 987.184C351.051 987.623 351.062 988.062 351.083 988.5C351.105 988.937 351.139 989.375 351.181 989.812C351.224 990.25 351.278 990.685 351.341 991.119C351.407 991.554 351.481 991.984 351.566 992.415C351.652 992.846 351.749 993.275 351.856 993.7C351.962 994.126 352.079 994.549 352.207 994.967C352.334 995.388 352.471 995.804 352.619 996.218C352.768 996.632 352.926 997.041 353.093 997.446C353.261 997.852 353.439 998.252 353.626 998.65C353.814 999.047 354.012 999.437 354.218 999.825C354.424 1000.21 354.641 1000.59 354.867 1000.97C355.093 1001.35 355.328 1001.72 355.573 1002.08C355.816 1002.45 356.069 1002.81 356.33 1003.16C356.592 1003.51 356.862 1003.86 357.14 1004.2C357.418 1004.54 357.705 1004.87 358 1005.19C358.295 1005.52 358.597 1005.84 358.907 1006.15C359.217 1006.46 359.536 1006.76 359.861 1007.05C360.186 1007.35 360.518 1007.63 360.858 1007.91C361.197 1008.19 361.542 1008.46 361.896 1008.72C362.248 1008.98 362.607 1009.24 362.972 1009.48C363.336 1009.72 363.707 1009.96 364.084 1010.19C364.461 1010.41 364.843 1010.63 365.23 1010.83C365.618 1011.04 366.008 1011.24 366.406 1011.43C366.803 1011.61 367.203 1011.79 367.609 1011.96C368.015 1012.13 368.424 1012.28 368.838 1012.43C369.252 1012.58 369.668 1012.72 370.087 1012.85C370.508 1012.97 370.93 1013.09 371.356 1013.2C371.782 1013.3 372.211 1013.4 372.642 1013.49C373.073 1013.57 373.503 1013.64 373.938 1013.71C374.372 1013.78 374.808 1013.83 375.245 1013.87C375.683 1013.91 376.12 1013.95 376.558 1013.97C376.995 1013.99 377.435 1014 377.874 1014L646.096 1014C646.536 1014 646.975 1013.99 647.412 1013.97C647.85 1013.95 648.287 1013.91 648.725 1013.87C649.162 1013.83 649.598 1013.77 650.033 1013.71C650.467 1013.64 650.898 1013.57 651.328 1013.49C651.759 1013.4 652.188 1013.3 652.614 1013.2C653.04 1013.09 653.462 1012.97 653.883 1012.85C654.302 1012.72 654.718 1012.58 655.132 1012.43C655.546 1012.28 655.955 1012.13 656.361 1011.96C656.767 1011.79 657.167 1011.61 657.565 1011.43C657.962 1011.24 658.352 1011.04 658.74 1010.83C659.127 1010.63 659.509 1010.41 659.886 1010.19C660.262 1009.96 660.632 1009.72 660.998 1009.48C661.363 1009.24 661.722 1008.98 662.074 1008.72C662.428 1008.46 662.773 1008.19 663.112 1007.91C663.452 1007.63 663.784 1007.35 664.109 1007.05C664.434 1006.76 664.753 1006.46 665.063 1006.15C665.373 1005.84 665.675 1005.52 665.97 1005.19C666.265 1004.87 666.552 1004.54 666.83 1004.2C667.108 1003.86 667.378 1003.51 667.64 1003.16C667.901 1002.81 668.154 1002.45 668.399 1002.08C668.642 1001.72 668.877 1001.35 669.103 1000.97C669.329 1000.59 669.546 1000.21 669.752 999.825C669.958 999.437 670.156 999.047 670.344 998.65C670.531 998.252 670.709 997.852 670.877 997.446C671.044 997.041 671.202 996.632 671.351 996.218C671.499 995.804 671.636 995.388 671.764 994.969C671.891 994.549 672.008 994.126 672.114 993.7C672.221 993.275 672.318 992.846 672.404 992.415C672.49 991.984 672.563 991.554 672.629 991.119C672.692 990.685 672.746 990.25 672.79 989.812C672.831 989.375 672.865 988.937 672.887 988.5C672.909 988.062 672.919 987.623 672.919 987.184L672.919 873.271C679.814 870.259 686.616 867.056 693.33 863.662C700.044 860.268 706.659 856.689 713.172 852.923C719.685 849.157 726.087 845.211 732.379 841.087C738.67 836.962 744.841 832.665 750.891 828.193L849.651 885.177C850.031 885.396 850.417 885.606 850.807 885.807C851.198 886.007 851.592 886.198 851.992 886.379C852.393 886.561 852.797 886.732 853.204 886.893C853.612 887.054 854.024 887.205 854.44 887.346C854.856 887.488 855.275 887.619 855.697 887.74C856.118 887.859 856.544 887.969 856.971 888.07C857.399 888.169 857.828 888.257 858.26 888.336C858.691 888.415 859.125 888.482 859.561 888.541C859.996 888.598 860.431 888.645 860.869 888.68C861.307 888.715 861.746 888.74 862.183 888.755C862.622 888.77 863.062 888.774 863.501 888.765C863.938 888.759 864.378 888.74 864.815 888.712C865.253 888.683 865.69 888.645 866.126 888.594C866.564 888.544 866.998 888.484 867.43 888.412C867.865 888.34 868.295 888.257 868.725 888.165C869.154 888.073 869.579 887.969 870.004 887.855C870.428 887.743 870.849 887.619 871.266 887.485C871.683 887.351 872.099 887.207 872.51 887.051C872.921 886.896 873.326 886.732 873.73 886.558C874.133 886.382 874.53 886.198 874.924 886.005C875.318 885.81 875.707 885.606 876.091 885.393C876.474 885.18 876.852 884.957 877.226 884.726C877.598 884.495 877.965 884.253 878.325 884.004C878.686 883.754 879.041 883.496 879.39 883.228C879.738 882.961 880.08 882.685 880.414 882.401C880.749 882.118 881.076 881.827 881.396 881.527C881.717 881.227 882.03 880.918 882.335 880.603C882.64 880.288 882.937 879.965 883.227 879.634C883.517 879.304 883.797 878.969 884.07 878.625C884.343 878.282 884.607 877.932 884.863 877.575C885.12 877.218 885.366 876.854 885.604 876.485C885.842 876.117 886.07 875.743 886.29 875.362L1020.4 643.138C1020.6 642.786 1020.8 642.429 1020.99 642.068C1021.17 641.708 1021.35 641.344 1021.52 640.976C1021.69 640.607 1021.86 640.235 1022.01 639.858C1022.16 639.482 1022.31 639.104 1022.44 638.72C1022.58 638.338 1022.71 637.952 1022.83 637.563C1022.95 637.174 1023.06 636.784 1023.16 636.39C1023.26 635.996 1023.35 635.601 1023.43 635.203C1023.52 634.806 1023.59 634.406 1023.65 634.005C1023.72 633.605 1023.78 633.202 1023.82 632.798C1023.87 632.395 1023.91 631.991 1023.93 631.585C1023.96 631.181 1023.98 630.776 1023.99 630.368C1024 629.963 1024 629.557 1023.99 629.15C1023.99 628.744 1023.97 628.339 1023.94 627.933C1023.91 627.527 1023.88 627.124 1023.83 626.72C1023.79 626.316 1023.73 625.914 1023.67 625.513C1023.6 625.111 1023.53 624.71 1023.45 624.313C1023.37 623.916 1023.28 623.52 1023.18 623.126C1023.08 622.732 1022.97 622.34 1022.85 621.951C1022.73 621.563 1022.61 621.177 1022.47 620.795C1022.34 620.411 1022.19 620.032 1022.04 619.655C1021.89 619.278 1021.73 618.906 1021.56 618.536C1021.39 618.167 1021.21 617.802 1021.02 617.441C1020.84 617.079 1020.64 616.722 1020.44 616.37C1020.24 616.018 1020.03 615.672 1019.81 615.328C1019.59 614.984 1019.37 614.648 1019.13 614.316C1018.9 613.982 1018.66 613.655 1018.41 613.334C1018.16 613.012 1017.91 612.697 1017.64 612.387C1017.38 612.077 1017.11 611.773 1016.84 611.475C1016.56 611.178 1016.28 610.887 1015.99 610.602C1015.7 610.317 1015.4 610.039 1015.1 609.767C1014.8 609.496 1014.49 609.231 1014.17 608.974C1013.86 608.716 1013.54 608.466 1013.21 608.223L1010.58 606.507L911.851 549.524C912.685 542.049 913.31 534.557 913.727 527.047C914.145 519.537 914.353 512.02 914.353 504.5C914.353 496.978 914.145 489.463 913.727 481.953C913.31 474.443 912.685 466.951 911.851 459.476L1010.56 402.493C1010.91 402.29 1011.26 402.08 1011.6 401.861C1011.94 401.643 1012.28 401.417 1012.61 401.182C1012.94 400.949 1013.27 400.708 1013.59 400.46C1013.91 400.21 1014.23 399.955 1014.54 399.692C1014.85 399.429 1015.15 399.159 1015.45 398.883C1015.75 398.606 1016.04 398.323 1016.32 398.033C1016.61 397.743 1016.88 397.446 1017.16 397.143C1017.43 396.841 1017.69 396.533 1017.95 396.218C1018.2 395.904 1018.45 395.584 1018.7 395.258C1018.94 394.931 1019.17 394.601 1019.4 394.264C1019.63 393.927 1019.85 393.587 1020.06 393.24C1020.27 392.893 1020.47 392.542 1020.67 392.185C1020.87 391.83 1021.05 391.47 1021.23 391.106C1021.41 390.742 1021.59 390.374 1021.75 390C1021.91 389.628 1022.07 389.252 1022.21 388.874C1022.36 388.495 1022.49 388.113 1022.62 387.727C1022.75 387.342 1022.87 386.953 1022.98 386.562C1023.09 386.172 1023.19 385.78 1023.29 385.384C1023.38 384.989 1023.46 384.592 1023.54 384.191C1023.61 383.792 1023.68 383.392 1023.74 382.989C1023.79 382.587 1023.84 382.183 1023.88 381.779C1023.92 381.375 1023.94 380.971 1023.97 380.564C1023.98 380.159 1024 379.753 1024 379.347C1024 378.94 1023.99 378.535 1023.97 378.129C1023.96 377.723 1023.93 377.318 1023.89 376.914C1023.86 376.51 1023.81 376.106 1023.76 375.702C1023.71 375.3 1023.64 374.899 1023.57 374.499C1023.5 374.1 1023.42 373.703 1023.33 373.305C1023.24 372.91 1023.14 372.516 1023.03 372.124C1022.92 371.733 1022.81 371.345 1022.68 370.957C1022.56 370.57 1022.42 370.188 1022.28 369.808C1022.13 369.427 1021.98 369.052 1021.82 368.678L1020.4 365.862L886.29 133.638C886.07 133.258 885.842 132.883 885.604 132.515C885.366 132.146 885.12 131.783 884.863 131.425C884.607 131.069 884.343 130.719 884.07 130.376C883.797 130.032 883.517 129.695 883.227 129.366C882.937 129.035 882.64 128.712 882.335 128.397C882.03 128.082 881.717 127.774 881.396 127.473C881.076 127.174 880.748 126.882 880.414 126.598C880.079 126.315 879.737 126.039 879.39 125.772C879.041 125.504 878.686 125.245 878.325 124.996C877.965 124.746 877.598 124.505 877.226 124.274C876.852 124.043 876.474 123.82 876.091 123.607C875.707 123.393 875.318 123.19 874.924 122.995C874.53 122.802 874.133 122.618 873.73 122.442C873.326 122.268 872.921 122.103 872.51 121.949C872.099 121.795 871.683 121.65 871.266 121.515C870.849 121.381 870.428 121.258 870.004 121.145C869.579 121.031 869.152 120.927 868.725 120.835C868.295 120.742 867.865 120.66 867.43 120.588C866.998 120.517 866.564 120.456 866.126 120.406C865.69 120.355 865.253 120.316 864.815 120.288C864.378 120.259 863.938 120.241 863.501 120.235C863.062 120.227 862.622 120.23 862.183 120.245C861.746 120.259 861.307 120.285 860.869 120.32C860.431 120.356 859.996 120.402 859.56 120.459C859.125 120.518 858.691 120.586 858.26 120.664C857.828 120.742 857.399 120.831 856.971 120.93C856.544 121.031 856.118 121.141 855.696 121.26C855.275 121.381 854.856 121.512 854.44 121.654C854.024 121.795 853.612 121.946 853.204 122.107C852.795 122.268 852.391 122.439 851.992 122.621C851.592 122.802 851.198 122.993 850.807 123.193C850.417 123.394 850.031 123.604 849.651 123.823L750.891 180.807C744.843 176.338 738.673 172.043 732.384 167.92C726.095 163.799 719.695 159.856 713.184 156.092C706.673 152.329 700.061 148.752 693.351 145.359C686.638 141.967 679.837 138.766 672.945 135.756L672.945 21.8158C672.945 21.3767 672.935 20.9381 672.914 20.5001C672.892 20.0622 672.858 19.6248 672.816 19.1878C672.773 18.7509 672.719 18.3152 672.655 17.8806C672.59 17.447 672.516 17.0153 672.431 16.585C672.345 16.1538 672.248 15.7253 672.141 15.2996C672.035 14.8739 671.918 14.451 671.79 14.0308C671.663 13.6118 671.526 13.1957 671.378 12.7822C671.229 12.3688 671.071 11.9593 670.904 11.5537C670.736 11.1481 670.558 10.747 670.371 10.3504C670.183 9.95371 669.985 9.56208 669.779 9.17548C669.573 8.78779 669.356 8.40567 669.13 8.02912C668.904 7.65258 668.669 7.2822 668.424 6.91793C668.181 6.55259 667.928 6.19392 667.667 5.84194C667.405 5.48888 667.135 5.14307 666.857 4.80454C666.579 4.46487 666.292 4.13247 665.997 3.80731C665.702 3.48217 665.4 3.1643 665.09 2.85367C664.78 2.54417 664.461 2.24194 664.136 1.94697C663.811 1.65198 663.479 1.3654 663.139 1.08718C662.8 0.80897 662.455 0.53912 662.101 0.277683C661.749 0.0162287 661.39 -0.236845 661.025 -0.481539C660.659 -0.725127 660.289 -0.959765 659.913 -1.18545C659.536 -1.41116 659.154 -1.62736 658.767 -1.83404C658.379 -2.04076 657.989 -2.23799 657.591 -2.42568C657.194 -2.61339 656.793 -2.79107 656.388 -2.95865C655.982 -3.12625 655.573 -3.28434 655.159 -3.43296C654.745 -3.58044 654.329 -3.71787 653.908 -3.84525C653.489 -3.97261 653.067 -4.08938 652.641 -4.19553C652.215 -4.30279 651.786 -4.39943 651.355 -4.48546C650.924 -4.57039 650.494 -4.64524 650.059 -4.71005C649.625 -4.77375 649.189 -4.82738 648.752 -4.87096C648.314 -4.91341 647.877 -4.94581 647.439 -4.96816C647.002 -4.98939 646.562 -5 646.123 -5L377.901 -5L377.874 -5ZM431.518 75.4474L592.452 75.4474L592.452 188.369L640.732 209.446C662.78 219.1 683.701 231.193 703.067 245.513L745.446 276.834L843.428 220.306L923.895 359.641L826.047 416.088L831.867 468.379C833.205 480.383 833.874 492.423 833.874 504.5C833.874 516.577 833.205 528.617 831.867 540.621L826.047 592.912L923.895 649.359L843.428 788.694L745.473 732.166L703.067 763.487C683.701 777.807 662.78 789.9 640.732 799.554L592.452 820.631L592.452 933.553L431.518 933.553L431.518 820.631L383.265 799.554C361.217 789.9 340.296 777.807 320.93 763.487L278.551 732.166L180.569 788.694L100.103 649.359L197.95 592.912L192.13 540.621C190.792 528.617 190.123 516.577 190.123 504.5C190.123 492.423 190.792 480.383 192.13 468.379L197.95 416.088L100.103 359.641L180.569 220.306L278.524 276.834L320.93 245.513C330.611 238.353 340.661 231.758 351.083 225.728C361.505 219.698 372.233 214.271 383.265 209.446L431.545 188.369L431.545 75.4474L431.518 75.4474ZM510.778 316.789C507.705 316.789 504.634 316.865 501.565 317.016C498.495 317.167 495.432 317.393 492.375 317.693C489.317 317.995 486.268 318.37 483.228 318.821C480.189 319.272 477.163 319.798 474.149 320.396C471.135 320.995 468.137 321.668 465.157 322.416C462.176 323.162 459.216 323.981 456.275 324.873C453.335 325.764 450.418 326.728 447.524 327.762C444.633 328.796 441.766 329.902 438.926 331.077C436.088 332.254 433.28 333.499 430.502 334.811C427.725 336.125 424.98 337.506 422.271 338.954C419.561 340.402 416.888 341.916 414.253 343.495C411.616 345.075 409.021 346.718 406.466 348.424C403.911 350.132 401.4 351.9 398.933 353.73C396.463 355.56 394.043 357.449 391.667 359.398C389.292 361.347 386.966 363.352 384.688 365.415C382.412 367.478 380.187 369.596 378.015 371.769C375.842 373.941 373.723 376.165 371.659 378.441C369.596 380.718 367.591 383.043 365.641 385.418C363.691 387.793 361.802 390.213 359.972 392.682C358.141 395.149 356.372 397.659 354.664 400.213C352.958 402.768 351.315 405.362 349.734 407.997C348.155 410.633 346.641 413.305 345.192 416.015C343.744 418.723 342.363 421.467 341.048 424.244C339.736 427.021 338.49 429.828 337.313 432.666C336.138 435.505 335.032 438.371 333.998 441.262C332.963 444.154 331.999 447.071 331.107 450.01C330.216 452.95 329.396 455.91 328.65 458.89C327.902 461.87 327.228 464.866 326.63 467.88C326.031 470.891 325.505 473.918 325.054 476.957C324.603 479.995 324.228 483.044 323.926 486.101C323.626 489.158 323.399 492.22 323.249 495.289C323.098 498.358 323.022 501.428 323.022 504.5C323.022 507.572 323.098 510.643 323.249 513.711C323.399 516.78 323.626 519.842 323.926 522.899C324.228 525.956 324.603 529.005 325.054 532.043C325.505 535.082 326.031 538.107 326.63 541.12C327.228 544.134 327.902 547.13 328.648 550.11C329.396 553.09 330.216 556.05 331.107 558.99C331.999 561.929 332.963 564.846 333.998 567.738C335.032 570.629 336.138 573.495 337.313 576.333C338.49 579.172 339.736 581.979 341.048 584.756C342.363 587.533 343.744 590.277 345.192 592.985C346.641 595.695 348.155 598.367 349.734 601.002C351.315 603.638 352.958 606.232 354.664 608.787C356.372 611.341 358.141 613.851 359.972 616.318C361.802 618.787 363.691 621.207 365.641 623.582C367.591 625.957 369.596 628.282 371.659 630.559C373.723 632.835 375.842 635.059 378.015 637.231C380.187 639.404 382.412 641.52 384.688 643.583C386.966 645.647 389.292 647.653 391.667 649.602C394.043 651.551 396.463 653.44 398.933 655.27C401.4 657.1 403.911 658.868 406.466 660.576C409.021 662.282 411.616 663.925 414.251 665.505C416.888 667.084 419.561 668.598 422.271 670.046C424.98 671.494 427.725 672.875 430.502 674.189C433.28 675.501 436.088 676.746 438.926 677.921C441.766 679.098 444.633 680.204 447.524 681.238C450.418 682.272 453.335 683.236 456.275 684.127C459.216 685.019 462.176 685.838 465.157 686.584C468.137 687.332 471.135 688.005 474.149 688.604C477.163 689.202 480.189 689.728 483.228 690.179C486.268 690.63 489.317 691.005 492.375 691.307C495.432 691.607 498.495 691.833 501.565 691.984C504.634 692.135 507.705 692.211 510.778 692.211C513.851 692.211 516.922 692.135 519.992 691.984C523.061 691.833 526.124 691.607 529.181 691.307C532.239 691.005 535.289 690.63 538.328 690.179C541.367 689.728 544.393 689.202 547.407 688.604C550.421 688.005 553.419 687.332 556.399 686.584C559.38 685.838 562.341 685.019 565.281 684.127C568.221 683.236 571.138 682.272 574.032 681.238C576.923 680.204 579.79 679.098 582.628 677.921C585.468 676.746 588.276 675.501 591.054 674.189C593.832 672.875 596.576 671.494 599.285 670.046C601.996 668.598 604.668 667.084 607.303 665.505C609.94 663.925 612.535 662.282 615.09 660.576C617.645 658.868 620.156 657.1 622.624 655.27C625.093 653.44 627.514 651.551 629.889 649.602C632.264 647.653 634.59 645.648 636.868 643.585C639.144 641.522 641.369 639.404 643.542 637.231C645.714 635.059 647.833 632.835 649.897 630.559C651.96 628.282 653.965 625.957 655.915 623.582C657.865 621.207 659.754 618.787 661.585 616.318C663.415 613.851 665.184 611.341 666.892 608.787C668.599 606.232 670.241 603.638 671.822 601.002C673.401 598.367 674.915 595.695 676.364 592.985C677.812 590.277 679.193 587.533 680.508 584.756C681.82 581.979 683.066 579.172 684.243 576.333C685.418 573.495 686.524 570.629 687.559 567.738C688.593 564.846 689.557 561.929 690.449 558.99C691.342 556.05 692.162 553.09 692.908 550.11C693.654 547.13 694.328 544.134 694.926 541.12C695.525 538.107 696.051 535.082 696.502 532.043C696.953 529.005 697.329 525.956 697.63 522.899C697.93 519.842 698.157 516.78 698.308 513.711C698.458 510.643 698.534 507.572 698.534 504.5C698.534 501.428 698.458 498.358 698.308 495.289C698.157 492.22 697.93 489.158 697.63 486.101C697.329 483.044 696.953 479.995 696.502 476.957C696.051 473.918 695.525 470.891 694.926 467.88C694.328 464.866 693.654 461.87 692.908 458.89C692.162 455.91 691.342 452.95 690.449 450.01C689.557 447.071 688.593 444.154 687.559 441.262C686.524 438.371 685.418 435.505 684.243 432.666C683.066 429.828 681.82 427.021 680.508 424.244C679.193 421.467 677.812 418.723 676.364 416.015C674.915 413.305 673.401 410.633 671.822 407.997C670.241 405.362 668.599 402.768 666.892 400.213C665.184 397.659 663.415 395.149 661.585 392.682C659.754 390.213 657.865 387.793 655.915 385.418C653.965 383.043 651.96 380.718 649.897 378.441C647.833 376.165 645.714 373.941 643.542 371.769C641.369 369.596 639.144 367.478 636.868 365.415C634.59 363.352 632.264 361.347 629.889 359.398C627.514 357.449 625.093 355.56 622.624 353.73C620.156 351.9 617.645 350.132 615.09 348.424C612.535 346.718 609.94 345.075 607.305 343.495C604.668 341.916 601.996 340.402 599.285 338.954C596.576 337.506 593.832 336.125 591.054 334.811C588.276 333.499 585.468 332.254 582.63 331.077C579.79 329.902 576.923 328.796 574.032 327.762C571.138 326.728 568.221 325.764 565.281 324.873C562.341 323.981 559.38 323.162 556.399 322.416C553.419 321.668 550.421 320.995 547.407 320.396C544.395 319.798 541.367 319.272 538.328 318.821C535.289 318.37 532.239 317.995 529.181 317.693C526.124 317.393 523.061 317.167 519.992 317.016C516.922 316.865 513.851 316.789 510.778 316.789ZM510.778 397.237C512.533 397.237 514.288 397.28 516.042 397.366C517.797 397.451 519.547 397.58 521.294 397.753C523.043 397.926 524.784 398.14 526.521 398.398C528.258 398.655 529.988 398.955 531.709 399.298C533.431 399.64 535.144 400.024 536.848 400.451C538.551 400.879 540.242 401.346 541.922 401.856C543.603 402.365 545.27 402.915 546.923 403.507C548.576 404.098 550.214 404.73 551.836 405.402C553.457 406.074 555.062 406.785 556.649 407.536C558.237 408.285 559.806 409.074 561.353 409.902C562.902 410.73 564.429 411.595 565.936 412.497C567.442 413.4 568.924 414.339 570.384 415.314C571.844 416.289 573.281 417.3 574.69 418.346C576.1 419.392 577.485 420.471 578.841 421.584C580.199 422.698 581.529 423.845 582.829 425.023C584.13 426.201 585.401 427.411 586.643 428.653C587.885 429.895 589.096 431.166 590.274 432.466C591.453 433.767 592.599 435.096 593.714 436.453C594.827 437.809 595.907 439.194 596.953 440.603C597.999 442.013 599.01 443.447 599.986 444.907C600.961 446.367 601.9 447.85 602.804 449.355C603.705 450.862 604.57 452.389 605.399 453.937C606.227 455.484 607.016 457.051 607.766 458.638C608.517 460.225 609.227 461.831 609.9 463.452C610.572 465.074 611.204 466.712 611.796 468.364C612.388 470.017 612.937 471.682 613.447 473.364C613.957 475.043 614.424 476.734 614.852 478.437C615.279 480.14 615.663 481.852 616.005 483.574C616.349 485.295 616.649 487.024 616.905 488.761C617.164 490.497 617.378 492.238 617.551 493.987C617.723 495.733 617.853 497.483 617.938 499.237C618.023 500.99 618.067 502.745 618.067 504.5C618.067 506.255 618.023 508.01 617.938 509.763C617.853 511.517 617.723 513.267 617.551 515.013C617.378 516.762 617.164 518.503 616.905 520.239C616.649 521.976 616.349 523.705 616.005 525.426C615.663 527.148 615.279 528.86 614.852 530.563C614.424 532.266 613.957 533.957 613.447 535.636C612.937 537.318 612.388 538.983 611.796 540.636C611.204 542.288 610.572 543.926 609.9 545.548C609.227 547.169 608.517 548.773 607.766 550.36C607.016 551.947 606.227 553.516 605.399 555.063C604.57 556.611 603.705 558.138 602.804 559.645C601.9 561.15 600.961 562.633 599.986 564.093C599.01 565.553 597.999 566.987 596.953 568.397C595.907 569.807 594.827 571.191 593.714 572.547C592.599 573.904 591.453 575.233 590.274 576.534C589.096 577.834 587.885 579.105 586.643 580.347C585.401 581.589 584.13 582.799 582.829 583.977C581.529 585.155 580.199 586.302 578.841 587.416C577.485 588.529 576.1 589.608 574.69 590.654C573.281 591.7 571.844 592.711 570.384 593.686C568.924 594.661 567.442 595.6 565.936 596.503C564.429 597.405 562.902 598.27 561.353 599.098C559.806 599.926 558.237 600.715 556.649 601.464C555.062 602.215 553.457 602.926 551.836 603.598C550.214 604.27 548.576 604.902 546.923 605.493C545.27 606.085 543.603 606.635 541.922 607.144C540.242 607.654 538.551 608.121 536.848 608.549C535.144 608.976 533.431 609.36 531.709 609.702C529.988 610.045 528.258 610.345 526.521 610.602C524.784 610.86 523.043 611.074 521.294 611.247C519.547 611.42 517.797 611.549 516.042 611.634C514.288 611.72 512.533 611.763 510.778 611.763C509.023 611.763 507.268 611.72 505.514 611.634C503.759 611.549 502.009 611.42 500.262 611.247C498.514 611.074 496.772 610.86 495.035 610.602C493.298 610.345 491.568 610.045 489.847 609.702C488.125 609.36 486.412 608.976 484.708 608.549C483.005 608.121 481.314 607.654 479.634 607.144C477.953 606.635 476.286 606.085 474.633 605.493C472.98 604.902 471.343 604.27 469.72 603.598C468.099 602.926 466.493 602.215 464.905 601.464C463.318 600.715 461.75 599.926 460.203 599.098C458.654 598.27 457.127 597.405 455.62 596.503C454.114 595.6 452.631 594.661 451.171 593.686C449.71 592.711 448.275 591.7 446.866 590.654C445.456 589.608 444.071 588.529 442.715 587.416C441.357 586.302 440.028 585.155 438.727 583.977C437.426 582.799 436.155 581.589 434.913 580.347C433.671 579.105 432.46 577.834 431.282 576.534C430.103 575.233 428.957 573.904 427.842 572.547C426.729 571.191 425.649 569.807 424.603 568.397C423.557 566.987 422.546 565.551 421.571 564.091C420.595 562.632 419.656 561.15 418.753 559.645C417.851 558.138 416.986 556.611 416.158 555.063C415.329 553.516 414.54 551.947 413.79 550.36C413.039 548.773 412.329 547.169 411.656 545.548C410.984 543.926 410.352 542.288 409.76 540.636C409.169 538.983 408.619 537.318 408.109 535.636C407.6 533.957 407.132 532.266 406.704 530.563C406.277 528.86 405.893 527.148 405.551 525.426C405.207 523.705 404.907 521.976 404.651 520.239C404.393 518.503 404.178 516.762 404.005 515.013C403.833 513.267 403.704 511.517 403.618 509.763C403.533 508.01 403.489 506.255 403.489 504.5C403.489 502.745 403.533 500.99 403.618 499.237C403.704 497.483 403.833 495.733 404.005 493.987C404.178 492.238 404.393 490.497 404.651 488.761C404.907 487.024 405.207 485.295 405.551 483.574C405.893 481.852 406.277 480.14 406.704 478.437C407.132 476.734 407.6 475.043 408.109 473.364C408.619 471.682 409.169 470.017 409.76 468.364C410.352 466.712 410.984 465.074 411.656 463.452C412.329 461.831 413.039 460.225 413.79 458.638C414.54 457.051 415.329 455.484 416.158 453.937C416.986 452.389 417.851 450.862 418.753 449.355C419.656 447.85 420.595 446.367 421.571 444.907C422.546 443.447 423.557 442.013 424.603 440.603C425.649 439.194 426.729 437.809 427.842 436.453C428.957 435.096 430.103 433.767 431.282 432.466C432.46 431.166 433.671 429.895 434.913 428.653C436.155 427.411 437.426 426.201 438.727 425.023C440.028 423.845 441.357 422.698 442.715 421.584C444.071 420.471 445.456 419.392 446.866 418.346C448.275 417.3 449.71 416.289 451.171 415.314C452.631 414.339 454.114 413.4 455.62 412.497C457.127 411.595 458.654 410.73 460.203 409.902C461.75 409.074 463.318 408.285 464.905 407.536C466.493 406.785 468.099 406.074 469.72 405.402C471.343 404.73 472.98 404.098 474.633 403.507C476.286 402.915 477.953 402.365 479.634 401.856C481.314 401.346 483.005 400.879 484.708 400.451C486.412 400.024 488.125 399.64 489.847 399.298C491.568 398.955 493.298 398.655 495.035 398.398C496.772 398.14 498.514 397.926 500.262 397.753C502.009 397.58 503.759 397.451 505.514 397.366C507.268 397.28 509.023 397.237 510.778 397.237Z"   fill="currentColor" ></path></svg>