<svg xmlns="http://www.w3.org/2000/svg" width="1024" height="1024" viewBox="0 0 1024 1024" fill="none"><path d="M870.4 0C872.913 0 875.43 0.0666331 877.94 0.19C880.45 0.313359 882.958 0.493604 885.46 0.74C887.961 0.986404 890.454 1.29111 892.94 1.66C895.426 2.02878 897.904 2.4596 900.37 2.95C902.835 3.4404 905.282 3.9892 907.72 4.6C910.158 5.2108 912.584 5.88024 914.99 6.61C917.395 7.33968 919.784 8.13312 922.15 8.98C924.516 9.82688 926.857 10.728 929.18 11.69C931.502 12.6519 933.797 13.6752 936.07 14.75C938.342 15.8248 940.592 16.9554 942.81 18.14C945.028 19.3256 947.214 20.558 949.37 21.85C951.525 23.1428 953.65 24.494 955.74 25.89C957.829 27.2868 959.88 28.7324 961.9 30.23C963.918 31.7276 965.896 33.2756 967.84 34.87C969.783 36.4644 971.688 38.1012 973.55 39.79C975.412 41.478 977.232 43.2124 979.01 44.99C980.787 46.7676 982.522 48.5876 984.21 50.45C985.898 52.3124 987.535 54.2168 989.13 56.16C990.724 58.1032 992.272 60.0808 993.77 62.1C995.268 64.1192 996.713 66.1704 998.11 68.26C999.506 70.3504 1000.86 72.474 1002.15 74.63C1003.44 76.786 1004.67 78.9724 1005.86 81.19C1007.04 83.4068 1008.17 85.658 1009.25 87.93C1010.33 90.2028 1011.35 92.4976 1012.31 94.82C1013.27 97.1424 1014.17 99.4836 1015.02 101.85C1015.87 104.217 1016.66 106.604 1017.39 109.01C1018.12 111.416 1018.79 113.842 1019.4 116.28C1020.01 118.718 1020.56 121.164 1021.05 123.63C1021.54 126.095 1021.97 128.574 1022.34 131.06C1022.71 133.546 1023.01 136.038 1023.26 138.54C1023.51 141.041 1023.7 143.548 1023.82 146.06C1023.94 148.57 1024 151.086 1024 153.6L1024 870.4C1024 872.913 1023.94 875.43 1023.82 877.94C1023.7 880.45 1023.51 882.958 1023.26 885.46C1023.01 887.961 1022.71 890.454 1022.34 892.94C1021.97 895.426 1021.54 897.904 1021.05 900.37C1020.56 902.835 1020.01 905.282 1019.4 907.72C1018.79 910.158 1018.12 912.584 1017.39 914.99C1016.66 917.395 1015.87 919.784 1015.02 922.15C1014.17 924.516 1013.27 926.857 1012.31 929.18C1011.35 931.502 1010.33 933.797 1009.25 936.07C1008.17 938.342 1007.04 940.592 1005.86 942.81C1004.67 945.026 1003.44 947.212 1002.15 949.37C1000.86 951.525 999.506 953.65 998.11 955.74C996.713 957.829 995.268 959.88 993.77 961.9C992.272 963.918 990.724 965.896 989.13 967.84C987.535 969.783 985.898 971.688 984.21 973.55C982.522 975.412 980.787 977.232 979.01 979.01C977.232 980.787 975.412 982.522 973.55 984.21C971.688 985.898 969.783 987.535 967.84 989.13C965.896 990.724 963.918 992.272 961.9 993.77C959.88 995.268 957.829 996.713 955.74 998.11C953.65 999.506 951.525 1000.86 949.37 1002.15C947.214 1003.44 945.028 1004.67 942.81 1005.86C940.592 1007.05 938.342 1008.17 936.07 1009.25C933.797 1010.33 931.502 1011.35 929.18 1012.31C926.857 1013.27 924.516 1014.17 922.15 1015.02C919.782 1015.87 917.395 1016.66 914.99 1017.39C912.584 1018.12 910.158 1018.79 907.72 1019.4C905.282 1020.01 902.835 1020.56 900.37 1021.05C897.904 1021.54 895.426 1021.97 892.94 1022.34C890.454 1022.71 887.961 1023.01 885.46 1023.26C882.958 1023.51 880.45 1023.69 877.94 1023.81C875.43 1023.93 872.913 1024 870.4 1024L153.6 1024C151.086 1024 148.57 1023.93 146.06 1023.81C143.548 1023.69 141.041 1023.51 138.54 1023.26C136.038 1023.01 133.546 1022.71 131.06 1022.34C128.574 1021.97 126.095 1021.54 123.63 1021.05C121.164 1020.56 118.718 1020.01 116.28 1019.4C113.842 1018.79 111.416 1018.12 109.01 1017.39C106.604 1016.66 104.217 1015.87 101.85 1015.02C99.4836 1014.17 97.1424 1013.27 94.82 1012.31C92.4976 1011.35 90.2028 1010.33 87.93 1009.25C85.658 1008.17 83.4068 1007.05 81.19 1005.86C78.9724 1004.67 76.786 1003.44 74.63 1002.15C72.474 1000.86 70.3504 999.506 68.26 998.11C66.1704 996.713 64.1192 995.268 62.1 993.77C60.0808 992.272 58.1032 990.724 56.16 989.13C54.2168 987.535 52.3124 985.898 50.45 984.21C48.5876 982.522 46.7676 980.787 44.99 979.01C43.2124 977.232 41.478 975.412 39.79 973.55C38.1012 971.688 36.4644 969.783 34.87 967.84C33.2756 965.896 31.7276 963.918 30.23 961.9C28.7324 959.88 27.2868 957.82 25.89 955.73C24.4932 953.64 23.142 951.525 21.85 949.37C20.558 947.212 19.3256 945.026 18.14 942.81C16.9554 940.592 15.8248 938.342 14.75 936.07C13.6752 933.797 12.652 931.502 11.69 929.18C10.7281 926.857 9.82688 924.516 8.98 922.15C8.13312 919.784 7.33968 917.395 6.61 914.99C5.88024 912.584 5.2108 910.158 4.6 907.72C3.9892 905.282 3.4404 902.835 2.95 900.37C2.4596 897.904 2.02888 895.426 1.66 892.94C1.2912 890.454 0.986404 887.961 0.74 885.46C0.493604 882.958 0.313359 880.45 0.19 877.94C0.0666331 875.43 0 872.913 0 870.4L0 153.6C0 151.086 0.0666331 148.57 0.19 146.06C0.313359 143.548 0.493604 141.041 0.74 138.54C0.986404 136.038 1.2912 133.546 1.66 131.06C2.02888 128.574 2.4596 126.095 2.95 123.63C3.4404 121.164 3.9892 118.718 4.6 116.28C5.2108 113.842 5.88024 111.416 6.61 109.01C7.33968 106.604 8.13312 104.217 8.98 101.85C9.82688 99.4836 10.7281 97.1424 11.69 94.82C12.652 92.4976 13.6752 90.2028 14.75 87.93C15.8248 85.658 16.9554 83.4068 18.14 81.19C19.3256 78.9724 20.558 76.786 21.85 74.63C23.142 72.474 24.4932 70.3504 25.89 68.26C27.2868 66.1704 28.7324 64.1192 30.23 62.1C31.7276 60.0808 33.2756 58.1032 34.87 56.16C36.4644 54.2168 38.1012 52.3124 39.79 50.45C41.478 48.5876 43.2124 46.7676 44.99 44.99C46.7676 43.2124 48.5876 41.478 50.45 39.79C52.3124 38.1012 54.2168 36.4644 56.16 34.87C58.1032 33.2756 60.0808 31.7276 62.1 30.23C64.1192 28.7324 66.1704 27.2868 68.26 25.89C70.3504 24.4932 72.474 23.142 74.63 21.85C76.786 20.558 78.9724 19.3256 81.19 18.14C83.4068 16.9554 85.658 15.8248 87.93 14.75C90.2028 13.6752 92.4976 12.6519 94.82 11.69C97.1424 10.728 99.4836 9.82688 101.85 8.98C104.217 8.13312 106.604 7.33968 109.01 6.61C111.416 5.88024 113.842 5.2108 116.28 4.6C118.718 3.9892 121.164 3.4404 123.63 2.95C126.095 2.4596 128.574 2.02888 131.06 1.66C133.546 1.2912 136.038 0.986404 138.54 0.74C141.041 0.493604 143.548 0.313359 146.06 0.19C148.57 0.0666331 151.086 0 153.6 0L870.4 0ZM875.4 97.4L355 96.85L355 926.6L875.4 926.6L882.36 926.09C883.046 925.996 883.737 925.89 884.42 925.77C885.102 925.65 885.773 925.518 886.45 925.37C887.127 925.221 887.8 925.055 888.47 924.88C889.14 924.705 889.808 924.522 890.47 924.32C891.132 924.117 891.796 923.898 892.45 923.67C893.103 923.441 893.747 923.196 894.39 922.94C895.033 922.684 895.676 922.421 896.31 922.14C896.942 921.858 897.568 921.557 898.19 921.25C898.809 920.943 899.422 920.631 900.03 920.3C900.637 919.968 901.236 919.616 901.83 919.26C902.423 918.904 903.012 918.54 903.59 918.16C904.168 917.78 904.737 917.383 905.3 916.98C905.863 916.576 906.414 916.166 906.96 915.74C907.506 915.314 908.052 914.878 908.58 914.43C909.108 913.981 909.62 913.518 910.13 913.05C910.639 912.581 911.14 912.1 911.63 911.61C912.12 911.12 912.6 910.629 913.07 910.12C913.539 909.611 914.001 909.088 914.45 908.56C914.899 908.032 915.333 907.495 915.76 906.95C916.187 906.404 916.606 905.852 917.01 905.29C917.413 904.727 917.798 904.158 918.18 903.58C918.56 903.002 918.932 902.413 919.29 901.82C919.646 901.227 919.996 900.627 920.33 900.02C920.662 899.412 920.982 898.799 921.29 898.18C921.597 897.558 921.887 896.931 922.17 896.3C922.452 895.666 922.723 895.033 922.98 894.39C923.236 893.747 923.48 893.093 923.71 892.44C923.939 891.786 924.156 891.131 924.36 890.47C924.563 889.808 924.754 889.14 924.93 888.47C925.105 887.8 925.261 887.127 925.41 886.45C925.558 885.773 925.698 885.092 925.82 884.41C925.94 883.728 926.046 883.046 926.14 882.36L926.6 875.4L926.6 148.6L926.09 141.64C925.987 140.882 925.866 140.124 925.73 139.37C925.593 138.616 925.439 137.866 925.27 137.12C925.1 136.374 924.913 135.628 924.71 134.89C924.507 134.152 924.286 133.427 924.05 132.7C923.814 131.972 923.568 131.245 923.3 130.53C923.031 129.812 922.74 129.103 922.44 128.4C922.139 127.697 921.821 126.999 921.49 126.31C921.158 125.62 920.812 124.934 920.45 124.26C920.086 123.586 919.711 122.926 919.32 122.27C918.926 121.612 918.521 120.958 918.1 120.32C917.678 119.682 917.239 119.059 916.79 118.44C916.34 117.821 915.878 117.208 915.4 116.61C914.922 116.012 914.434 115.426 913.93 114.85C913.426 114.273 912.908 113.713 912.38 113.16C911.851 112.607 911.313 112.059 910.76 111.53C910.206 111.002 909.636 110.493 909.06 109.99C908.483 109.487 907.898 108.997 907.3 108.52C906.701 108.043 906.089 107.58 905.47 107.13C904.851 106.68 904.218 106.241 903.58 105.82C902.942 105.399 902.298 104.992 901.64 104.6C900.982 104.208 900.313 103.832 899.64 103.47C898.966 103.108 898.289 102.761 897.6 102.43C896.909 102.099 896.213 101.79 895.51 101.49C894.806 101.19 894.096 100.898 893.38 100.63C892.662 100.362 891.937 100.116 891.21 99.88C890.482 99.6448 889.747 99.4224 889.01 99.22C888.271 99.0176 887.526 98.8296 886.78 98.66C886.034 98.4912 885.282 98.346 884.53 98.21C883.776 98.0748 883.028 97.9516 882.27 97.85C881.512 97.7484 880.742 97.6672 879.98 97.6C879.218 97.5328 878.454 97.4828 877.69 97.45C876.924 97.4172 876.164 97.4 875.4 97.4Z"   fill="currentColor" ></path></svg>