<svg xmlns="http://www.w3.org/2000/svg" width="1024" height="1024" viewBox="0 0 1024 1024" fill="none"><path d="M386.127 582.885L45.4268 582.885C20.3384 582.885 0 603.203 0 628.266L0 968.62C0 993.683 20.3384 1014 45.4268 1014L386.127 1014C411.216 1014 431.554 993.683 431.554 968.62L431.554 628.266C431.554 603.204 411.216 582.885 386.127 582.885ZM340.701 923.239L90.8535 923.239L90.8535 673.646L340.701 673.646L340.701 923.239ZM386.127 33.5276L45.4268 33.5276C20.3384 33.5276 0 53.8453 0 78.9081L0 419.263C0 444.326 20.3384 464.643 45.4268 464.643L386.127 464.643C411.216 464.643 431.554 444.326 431.554 419.263L431.554 78.9081C431.554 53.8439 411.216 33.5276 386.127 33.5276ZM340.701 373.882L90.8535 373.882L90.8535 124.289L340.701 124.289L340.701 373.882ZM950.182 582.885L609.481 582.885C584.393 582.885 564.054 603.203 564.054 628.266L564.054 968.62C564.054 993.683 584.393 1014 609.481 1014L950.182 1014C975.27 1014 995.608 993.683 995.608 968.62L995.608 628.266C995.608 603.204 975.27 582.885 950.182 582.885ZM904.755 923.239L654.908 923.239L654.908 673.646L904.755 673.646L904.755 923.239ZM1010.7 219.832L811.954 21.2919C794.212 3.56937 765.451 3.56937 747.709 21.2919L548.967 219.832C531.228 237.555 531.228 266.288 548.967 284.01L747.709 482.55C756.58 491.412 768.205 495.842 779.831 495.842C791.458 495.842 803.083 491.412 811.954 482.55L1010.7 284.01C1028.43 266.288 1028.43 237.555 1010.7 219.832ZM779.831 386.284L645.333 251.922L779.831 117.56L914.33 251.922L779.831 386.284Z"   fill="currentColor" ></path></svg>