<svg xmlns="http://www.w3.org/2000/svg" width="1024" height="1024" viewBox="0 0 1024 1024" fill="none"><path d="M512 910.208L910.208 512L480.832 82.624L102.016 107.072L82.24 480.448L512 910.208ZM0 512L25.472 31.36L512 0L1024 512L512 1024L0 512ZM293.376 383.04C294.783 383.04 296.188 383.005 297.593 382.936C298.998 382.867 300.401 382.764 301.801 382.626C303.201 382.488 304.597 382.316 305.988 382.11C307.379 381.903 308.765 381.663 310.144 381.388C311.524 381.114 312.896 380.806 314.261 380.464C315.625 380.122 316.98 379.747 318.327 379.339C319.673 378.93 321.008 378.489 322.332 378.016C323.657 377.542 324.969 377.036 326.268 376.497C327.568 375.959 328.854 375.389 330.125 374.788C331.397 374.186 332.653 373.554 333.893 372.891C335.134 372.228 336.357 371.534 337.564 370.811C338.771 370.088 339.959 369.336 341.128 368.554C342.298 367.773 343.448 366.963 344.578 366.125C345.707 365.287 346.816 364.422 347.903 363.53C348.99 362.637 350.055 361.719 351.098 360.774C352.14 359.829 353.158 358.86 354.153 357.865C355.148 356.87 356.117 355.852 357.062 354.81C358.007 353.767 358.925 352.702 359.818 351.615C360.71 350.528 361.575 349.419 362.413 348.289C363.251 347.16 364.061 346.01 364.842 344.84C365.624 343.671 366.376 342.483 367.099 341.276C367.822 340.069 368.516 338.846 369.179 337.605C369.842 336.365 370.475 335.109 371.076 333.837C371.677 332.566 372.247 331.28 372.785 329.98C373.324 328.681 373.83 327.369 374.304 326.044C374.777 324.72 375.218 323.385 375.627 322.039C376.035 320.692 376.41 319.337 376.752 317.973C377.094 316.608 377.402 315.236 377.676 313.856C377.951 312.477 378.191 311.091 378.398 309.7C378.604 308.309 378.776 306.913 378.914 305.513C379.052 304.113 379.155 302.71 379.224 301.305C379.293 299.9 379.328 298.495 379.328 297.088C379.328 295.681 379.293 294.275 379.224 292.87C379.155 291.465 379.052 290.063 378.914 288.663C378.776 287.263 378.604 285.867 378.398 284.476C378.191 283.085 377.951 281.699 377.676 280.32C377.402 278.94 377.094 277.568 376.752 276.203C376.41 274.839 376.035 273.484 375.627 272.137C375.218 270.791 374.777 269.456 374.304 268.132C373.83 266.807 373.324 265.495 372.785 264.196C372.247 262.896 371.677 261.61 371.076 260.339C370.475 259.067 369.842 257.811 369.179 256.57C368.516 255.33 367.822 254.107 367.099 252.9C366.376 251.693 365.624 250.505 364.842 249.336C364.061 248.166 363.251 247.016 362.413 245.886C361.575 244.757 360.71 243.648 359.818 242.561C358.925 241.474 358.007 240.409 357.062 239.366C356.117 238.324 355.148 237.306 354.153 236.311C353.158 235.316 352.14 234.347 351.098 233.402C350.055 232.457 348.99 231.539 347.903 230.646C346.816 229.754 345.707 228.889 344.578 228.051C343.448 227.213 342.298 226.403 341.128 225.621C339.959 224.84 338.771 224.087 337.564 223.364C336.357 222.641 335.134 221.948 333.893 221.285C332.653 220.622 331.397 219.989 330.125 219.388C328.854 218.787 327.568 218.217 326.268 217.679C324.969 217.14 323.657 216.634 322.332 216.16C321.008 215.687 319.673 215.246 318.327 214.837C316.98 214.429 315.625 214.054 314.261 213.712C312.896 213.37 311.524 213.062 310.144 212.788C308.765 212.513 307.379 212.273 305.988 212.066C304.597 211.86 303.201 211.688 301.801 211.55C300.401 211.412 298.998 211.309 297.593 211.24C296.188 211.171 294.783 211.136 293.376 211.136C291.969 211.136 290.564 211.171 289.159 211.24C287.754 211.309 286.351 211.412 284.951 211.55C283.551 211.688 282.155 211.86 280.764 212.066C279.373 212.273 277.987 212.513 276.608 212.788C275.228 213.062 273.856 213.37 272.491 213.712C271.127 214.054 269.772 214.429 268.425 214.837C267.079 215.246 265.744 215.687 264.42 216.16C263.095 216.634 261.783 217.14 260.484 217.679C259.184 218.217 257.898 218.787 256.627 219.388C255.355 219.989 254.099 220.622 252.859 221.285C251.618 221.948 250.395 222.641 249.188 223.364C247.981 224.087 246.793 224.84 245.624 225.622C244.454 226.403 243.304 227.213 242.174 228.051C241.045 228.889 239.936 229.754 238.849 230.646C237.762 231.539 236.697 232.457 235.654 233.402C234.612 234.347 233.594 235.316 232.599 236.311C231.604 237.306 230.635 238.324 229.69 239.366C228.745 240.409 227.827 241.474 226.934 242.561C226.042 243.648 225.177 244.757 224.339 245.886C223.501 247.016 222.691 248.166 221.91 249.336C221.128 250.505 220.375 251.693 219.652 252.9C218.929 254.107 218.236 255.33 217.573 256.57C216.91 257.811 216.277 259.067 215.676 260.339C215.075 261.61 214.505 262.896 213.967 264.196C213.428 265.495 212.922 266.807 212.448 268.132C211.975 269.456 211.534 270.791 211.125 272.137C210.717 273.484 210.342 274.839 210 276.203C209.658 277.568 209.35 278.94 209.076 280.32C208.801 281.699 208.561 283.085 208.354 284.476C208.148 285.867 207.976 287.263 207.838 288.663C207.7 290.063 207.597 291.465 207.528 292.87C207.459 294.275 207.424 295.681 207.424 297.088C207.424 298.495 207.459 299.9 207.528 301.305C207.597 302.71 207.7 304.113 207.838 305.513C207.976 306.913 208.148 308.309 208.354 309.7C208.561 311.091 208.801 312.477 209.076 313.856C209.35 315.236 209.658 316.608 210 317.973C210.342 319.337 210.717 320.692 211.125 322.039C211.534 323.385 211.975 324.72 212.448 326.044C212.922 327.369 213.428 328.681 213.967 329.98C214.505 331.28 215.075 332.566 215.676 333.837C216.277 335.109 216.91 336.365 217.573 337.605C218.236 338.846 218.929 340.069 219.652 341.276C220.375 342.483 221.128 343.671 221.91 344.84C222.691 346.01 223.501 347.16 224.339 348.289C225.177 349.419 226.042 350.528 226.934 351.615C227.827 352.702 228.745 353.767 229.69 354.81C230.635 355.852 231.604 356.87 232.599 357.865C233.594 358.86 234.612 359.829 235.654 360.774C236.697 361.719 237.762 362.637 238.849 363.53C239.936 364.422 241.045 365.287 242.174 366.125C243.304 366.963 244.454 367.773 245.624 368.554C246.793 369.336 247.981 370.088 249.188 370.811C250.395 371.534 251.618 372.228 252.859 372.891C254.099 373.554 255.355 374.186 256.627 374.788C257.898 375.389 259.184 375.959 260.484 376.497C261.783 377.036 263.095 377.542 264.42 378.016C265.744 378.489 267.079 378.93 268.425 379.339C269.772 379.747 271.127 380.122 272.491 380.464C273.856 380.806 275.228 381.114 276.608 381.388C277.987 381.663 279.373 381.903 280.764 382.11C282.155 382.316 283.551 382.488 284.951 382.626C286.351 382.764 287.754 382.867 289.159 382.936C290.564 383.005 291.969 383.04 293.376 383.04Z"   fill="currentColor" ></path></svg>