<svg xmlns="http://www.w3.org/2000/svg" xmlns:xlink="http://www.w3.org/1999/xlink" width="1024" height="1024" viewBox="0 0 1024 1024" fill="none"><path d="M544.23 646.6L519.07 646.6L519.07 1024L737.96 1024L737.96 646.6L715.32 646.6L715.32 239.02L909.05 239.02L909.05 213.86C909.05 100.641 818.469 10.06 705.25 10.06L423.46 10.06L423.46 239.02L544.23 239.02L544.23 646.6ZM473.78 57.87L702.74 61.87C778.219 61.87 839.636 109.217 849.7 182.18L475.27 182.18L475.27 61.87L473.78 57.87ZM573.39 703.44L683.64 703.44L683.64 972.2L573.39 972.2L573.39 703.44ZM598.55 215.34L661 215.34L661 667.76L598.55 667.76L598.55 215.34ZM365.6 0L114 0L114 1013.94L365.6 1013.94L365.6 0ZM310.28 958.62L169.32 958.62L169.32 55.32L310.28 55.32L310.28 958.62Z"   fill="#000000" ></path></svg>