<svg xmlns="http://www.w3.org/2000/svg" width="1024" height="1024" viewBox="0 0 1024 1024" fill="none"><path d="M565.746 489.541L526.143 449.939L644.95 331.133L684.553 370.734L565.746 489.541ZM486.541 568.746L322.475 732.812L282.872 693.209L446.939 529.143L486.541 568.746ZM611.005 523.486L650.608 483.884L718.497 551.774L944.795 325.475L707.182 87.8618L480.884 314.161L531.801 365.078L492.199 404.679L396.022 308.503L701.525 3L1024 325.475L718.497 630.978L611.005 523.486ZM401.679 489.541L362.078 529.143L311.161 478.226L84.8618 704.525L322.475 942.138L548.774 715.839L480.884 647.95L520.486 608.347L627.978 715.839L322.475 1021.34L0 704.525L305.503 399.022L401.679 489.541Z"   fill="currentColor" ></path></svg>