<svg xmlns="http://www.w3.org/2000/svg" xmlns:xlink="http://www.w3.org/1999/xlink" width="1024" height="1024" viewBox="0 0 1024 1024" fill="none"><g  clip-path="url(#clip-path-p20_Mu1pvOts9YaKD0I0_)"><path d="M174.32 0L829.68 0C952.56 0 1014 61.44 1014 184.32L1014 839.68C1014 962.56 952.56 1024 829.68 1024L174.32 1024C51.44 1024 -10 962.56 -10 839.68L-10 184.32C-10 61.44 51.44 0 174.32 0Z"   fill="#FFFFFF" ></path><path d="M906.672 128L309.328 128C308.717 128 308.107 128.015 307.496 128.045C306.886 128.075 306.277 128.12 305.669 128.18C305.061 128.24 304.455 128.315 303.851 128.404C303.246 128.493 302.645 128.598 302.046 128.717C301.447 128.836 300.851 128.97 300.258 129.119C299.665 129.267 299.077 129.43 298.492 129.607C297.907 129.784 297.328 129.976 296.753 130.182C296.178 130.388 295.608 130.608 295.043 130.841C294.479 131.075 293.921 131.323 293.368 131.584C292.816 131.845 292.271 132.12 291.732 132.408C291.193 132.696 290.662 132.997 290.138 133.311C289.614 133.625 289.098 133.952 288.59 134.291C288.082 134.63 287.583 134.982 287.092 135.346C286.601 135.71 286.12 136.086 285.647 136.473C285.175 136.86 284.713 137.259 284.26 137.67C283.807 138.08 283.365 138.501 282.933 138.933C282.501 139.365 282.08 139.807 281.67 140.26C281.259 140.713 280.86 141.175 280.473 141.647C280.086 142.12 279.71 142.601 279.346 143.092C278.982 143.583 278.63 144.082 278.291 144.59C277.952 145.098 277.625 145.614 277.311 146.138C276.997 146.662 276.696 147.193 276.408 147.732C276.12 148.271 275.845 148.816 275.584 149.368C275.323 149.921 275.075 150.479 274.841 151.043C274.608 151.608 274.388 152.178 274.182 152.753C273.976 153.328 273.784 153.907 273.607 154.492C273.43 155.077 273.267 155.665 273.119 156.258C272.97 156.851 272.836 157.447 272.717 158.046C272.598 158.645 272.493 159.246 272.404 159.851C272.315 160.455 272.24 161.061 272.18 161.669C272.12 162.277 272.075 162.886 272.045 163.496C272.015 164.107 272 164.717 272 165.328L272 320L624 400L944 320L944 165.328C944 164.717 943.985 164.107 943.955 163.496C943.925 162.886 943.88 162.277 943.82 161.669C943.76 161.061 943.685 160.455 943.596 159.851C943.506 159.246 943.402 158.645 943.283 158.046C943.164 157.447 943.03 156.851 942.881 156.258C942.733 155.665 942.57 155.077 942.393 154.492C942.216 153.907 942.024 153.328 941.818 152.753C941.612 152.178 941.392 151.608 941.159 151.043C940.925 150.479 940.677 149.921 940.416 149.368C940.155 148.816 939.88 148.271 939.592 147.732C939.304 147.193 939.003 146.662 938.689 146.138C938.375 145.614 938.048 145.098 937.709 144.59C937.37 144.082 937.018 143.583 936.654 143.092C936.29 142.601 935.914 142.12 935.527 141.647C935.14 141.175 934.741 140.713 934.33 140.26C933.92 139.807 933.499 139.365 933.067 138.933C932.635 138.501 932.193 138.08 931.74 137.67C931.287 137.259 930.825 136.86 930.353 136.473C929.88 136.086 929.399 135.71 928.908 135.346C928.417 134.982 927.918 134.63 927.41 134.291C926.902 133.952 926.386 133.625 925.862 133.311C925.338 132.997 924.807 132.696 924.268 132.408C923.729 132.12 923.184 131.845 922.632 131.584C922.079 131.323 921.521 131.075 920.957 130.841C920.392 130.608 919.822 130.388 919.247 130.182C918.672 129.976 918.093 129.784 917.508 129.607C916.923 129.43 916.335 129.267 915.742 129.119C915.149 128.97 914.553 128.836 913.954 128.717C913.355 128.598 912.754 128.493 912.149 128.404C911.545 128.315 910.939 128.24 910.331 128.18C909.723 128.12 909.114 128.075 908.504 128.045C907.893 128.015 907.283 128 906.672 128Z"   fill="#41A5EE" ></path><path d="M944 320L272 320L272 512L624 608L944 512L944 320Z"   fill="#2B7CD3" ></path><path d="M272 512L272 704L624 816L944 704L944 512L272 512Z"   fill="#185ABD" ></path><path d="M309.328 896L906.672 896C907.283 896 907.893 895.985 908.504 895.955C909.114 895.925 909.723 895.88 910.331 895.82C910.939 895.76 911.545 895.685 912.149 895.596C912.754 895.506 913.355 895.402 913.954 895.283C914.553 895.164 915.149 895.03 915.742 894.881C916.335 894.733 916.923 894.57 917.508 894.393C918.093 894.216 918.672 894.024 919.247 893.818C919.822 893.612 920.392 893.392 920.957 893.158C921.521 892.925 922.079 892.677 922.632 892.416C923.184 892.155 923.729 891.88 924.268 891.592C924.807 891.304 925.338 891.003 925.862 890.689C926.386 890.375 926.902 890.048 927.41 889.709C927.918 889.37 928.417 889.018 928.908 888.654C929.399 888.29 929.88 887.914 930.353 887.527C930.825 887.14 931.287 886.741 931.74 886.33C932.193 885.92 932.635 885.499 933.067 885.067C933.499 884.635 933.92 884.193 934.33 883.74C934.741 883.287 935.14 882.825 935.527 882.353C935.914 881.88 936.29 881.399 936.654 880.908C937.018 880.417 937.37 879.918 937.709 879.41C938.048 878.902 938.375 878.386 938.689 877.862C939.003 877.338 939.304 876.807 939.592 876.268C939.88 875.729 940.155 875.184 940.416 874.632C940.677 874.079 940.925 873.521 941.159 872.957C941.392 872.392 941.612 871.822 941.818 871.247C942.024 870.672 942.216 870.093 942.393 869.508C942.57 868.923 942.733 868.335 942.881 867.742C943.03 867.149 943.164 866.553 943.283 865.954C943.402 865.355 943.506 864.754 943.596 864.149C943.685 863.545 943.76 862.939 943.82 862.331C943.88 861.723 943.925 861.114 943.955 860.504C943.985 859.893 944 859.283 944 858.672L944 704L272 704L272 858.672C272 859.283 272.015 859.893 272.045 860.504C272.075 861.114 272.12 861.723 272.18 862.331C272.24 862.939 272.315 863.545 272.404 864.149C272.493 864.754 272.598 865.355 272.717 865.954C272.836 866.553 272.97 867.149 273.119 867.742C273.267 868.335 273.43 868.923 273.607 869.508C273.784 870.093 273.976 870.672 274.182 871.247C274.388 871.822 274.608 872.392 274.841 872.957C275.075 873.521 275.323 874.079 275.584 874.632C275.845 875.184 276.12 875.729 276.408 876.268C276.696 876.807 276.997 877.338 277.311 877.862C277.625 878.386 277.952 878.902 278.291 879.41C278.63 879.918 278.982 880.417 279.346 880.908C279.71 881.399 280.086 881.88 280.473 882.353C280.86 882.825 281.259 883.287 281.67 883.74C282.08 884.193 282.501 884.635 282.933 885.067C283.365 885.499 283.807 885.92 284.26 886.33C284.713 886.741 285.175 887.14 285.647 887.527C286.12 887.914 286.601 888.29 287.092 888.654C287.583 889.018 288.082 889.37 288.59 889.709C289.098 890.048 289.614 890.375 290.138 890.689C290.662 891.003 291.193 891.304 291.732 891.592C292.271 891.88 292.816 892.155 293.368 892.416C293.921 892.677 294.479 892.925 295.043 893.158C295.608 893.392 296.178 893.612 296.753 893.818C297.328 894.024 297.907 894.216 298.492 894.393C299.077 894.57 299.665 894.733 300.258 894.881C300.851 895.03 301.447 895.164 302.046 895.283C302.645 895.402 303.246 895.506 303.851 895.596C304.455 895.685 305.061 895.76 305.669 895.82C306.277 895.88 306.886 895.925 307.496 895.955C308.107 895.985 308.717 896 309.328 896Z"   fill="#103F91" ></path><path d="M528 325.28L528 746.72C528.035 748.878 527.822 751.011 527.36 753.12C527.27 753.655 527.168 754.188 527.055 754.719C526.941 755.25 526.816 755.779 526.679 756.304C526.542 756.829 526.394 757.352 526.234 757.871C526.075 758.39 525.904 758.905 525.721 759.416C525.538 759.927 525.345 760.434 525.14 760.937C524.935 761.44 524.72 761.939 524.493 762.432C524.266 762.925 524.029 763.413 523.781 763.896C523.533 764.379 523.274 764.856 523.005 765.328C522.736 765.799 522.456 766.265 522.167 766.724C521.878 767.183 521.578 767.636 521.268 768.082C520.959 768.528 520.64 768.967 520.311 769.399C519.982 769.831 519.644 770.256 519.296 770.673C518.949 771.09 518.592 771.5 518.227 771.901C517.861 772.302 517.487 772.696 517.104 773.081C516.721 773.466 516.33 773.842 515.931 774.21C515.532 774.578 515.124 774.937 514.709 775.287C514.294 775.636 513.871 775.977 513.441 776.308C513.011 776.639 512.574 776.961 512.13 777.273C511.685 777.586 511.234 777.888 510.777 778.18C510.319 778.472 509.855 778.754 509.385 779.026C508.915 779.298 508.439 779.559 507.958 779.81C507.477 780.061 506.99 780.301 506.498 780.531C506.006 780.76 505.509 780.979 505.007 781.186C504.506 781.394 504 781.591 503.489 781.776C502.979 781.961 502.465 782.135 501.947 782.298C501.429 782.461 500.908 782.612 500.383 782.752C499.858 782.891 499.331 783.019 498.8 783.136C498.27 783.253 497.738 783.358 497.203 783.451C496.668 783.544 496.131 783.626 495.593 783.695C495.054 783.764 494.514 783.822 493.973 783.868C493.432 783.914 492.891 783.948 492.348 783.97C491.805 783.992 491.263 784.002 490.72 784L272 784L272 288L490.72 288C491.331 287.999 491.941 288.013 492.55 288.042C493.16 288.071 493.769 288.115 494.376 288.174C494.983 288.233 495.589 288.306 496.193 288.395C496.797 288.484 497.398 288.587 497.997 288.706C498.596 288.824 499.192 288.957 499.784 289.105C500.377 289.252 500.965 289.414 501.549 289.591C502.133 289.768 502.713 289.958 503.288 290.163C503.863 290.368 504.432 290.588 504.996 290.821C505.561 291.054 506.119 291.3 506.671 291.561C507.223 291.822 507.768 292.096 508.306 292.383C508.845 292.67 509.376 292.971 509.9 293.284C510.423 293.598 510.939 293.924 511.447 294.263C511.954 294.602 512.453 294.953 512.944 295.317C513.435 295.68 513.916 296.055 514.387 296.442C514.859 296.829 515.321 297.228 515.774 297.638C516.226 298.048 516.668 298.469 517.1 298.9C517.531 299.332 517.952 299.774 518.362 300.226C518.772 300.679 519.17 301.141 519.557 301.613C519.944 302.084 520.32 302.565 520.683 303.056C521.047 303.547 521.398 304.046 521.737 304.553C522.076 305.061 522.402 305.577 522.716 306.1C523.029 306.624 523.33 307.155 523.617 307.694C523.904 308.232 524.178 308.777 524.439 309.329C524.7 309.881 524.946 310.439 525.179 311.004C525.412 311.568 525.632 312.137 525.837 312.712C526.042 313.287 526.232 313.867 526.409 314.451C526.586 315.035 526.748 315.623 526.895 316.216C527.043 316.808 527.176 317.404 527.294 318.003C527.413 318.602 527.516 319.203 527.605 319.807C527.694 320.411 527.767 321.017 527.826 321.624C527.885 322.231 527.929 322.84 527.958 323.45C527.987 324.059 528.001 324.669 528 325.28Z"   fill="#000000" ></path><path d="M544 325.28L544 714.72C543.992 715.59 543.963 716.459 543.912 717.327C543.861 718.195 543.79 719.061 543.698 719.926C543.605 720.791 543.492 721.654 543.358 722.513C543.223 723.372 543.068 724.228 542.893 725.079C542.717 725.931 542.521 726.778 542.304 727.62C542.087 728.463 541.85 729.299 541.593 730.13C541.336 730.961 541.058 731.785 540.761 732.602C540.464 733.419 540.147 734.229 539.81 735.031C539.473 735.833 539.117 736.626 538.742 737.411C538.367 738.196 537.973 738.971 537.56 739.736C537.147 740.502 536.716 741.257 536.267 742.001C535.818 742.746 535.351 743.479 534.866 744.201C534.381 744.923 533.879 745.633 533.36 746.331C532.841 747.028 532.305 747.713 531.752 748.385C531.199 749.056 530.631 749.714 530.046 750.358C529.462 751.003 528.862 751.632 528.247 752.247C527.632 752.862 527.003 753.462 526.359 754.046C525.714 754.631 525.056 755.199 524.385 755.752C523.713 756.304 523.028 756.84 522.331 757.359C521.634 757.878 520.924 758.381 520.202 758.866C519.48 759.351 518.747 759.818 518.002 760.267C517.257 760.716 516.502 761.147 515.736 761.56C514.971 761.973 514.196 762.367 513.411 762.742C512.626 763.117 511.833 763.473 511.031 763.81C510.229 764.147 509.419 764.464 508.602 764.761C507.785 765.058 506.961 765.336 506.13 765.593C505.299 765.85 504.463 766.087 503.62 766.304C502.778 766.521 501.931 766.717 501.079 766.893C500.228 767.068 499.372 767.223 498.513 767.358C497.654 767.492 496.791 767.605 495.926 767.698C495.061 767.79 494.195 767.861 493.327 767.912C492.459 767.963 491.59 767.992 490.72 768L272 768L272 272L490.72 272C491.591 272.003 492.462 272.028 493.332 272.073C494.201 272.119 495.069 272.186 495.936 272.274C496.803 272.362 497.667 272.471 498.528 272.602C499.389 272.732 500.247 272.883 501.101 273.055C501.955 273.228 502.804 273.421 503.649 273.634C504.493 273.848 505.332 274.082 506.165 274.337C506.998 274.592 507.825 274.867 508.644 275.162C509.463 275.457 510.275 275.772 511.08 276.107C511.884 276.442 512.679 276.796 513.466 277.169C514.253 277.543 515.031 277.936 515.798 278.348C516.566 278.759 517.323 279.189 518.07 279.638C518.817 280.087 519.552 280.553 520.276 281.038C520.999 281.523 521.711 282.025 522.41 282.544C523.109 283.063 523.796 283.599 524.469 284.152C525.142 284.705 525.802 285.275 526.447 285.86C527.092 286.445 527.723 287.045 528.339 287.661C528.955 288.277 529.555 288.908 530.14 289.553C530.725 290.198 531.295 290.858 531.848 291.531C532.401 292.204 532.937 292.891 533.456 293.59C533.975 294.289 534.477 295.001 534.962 295.724C535.447 296.448 535.913 297.183 536.362 297.93C536.811 298.677 537.241 299.434 537.653 300.202C538.064 300.969 538.457 301.747 538.831 302.534C539.204 303.321 539.558 304.116 539.893 304.92C540.228 305.725 540.543 306.537 540.838 307.356C541.133 308.175 541.408 309.002 541.663 309.835C541.918 310.668 542.152 311.507 542.366 312.351C542.579 313.196 542.772 314.045 542.945 314.899C543.117 315.753 543.268 316.611 543.398 317.472C543.529 318.333 543.638 319.197 543.726 320.064C543.814 320.931 543.881 321.799 543.927 322.668C543.972 323.538 543.997 324.409 544 325.28Z"   fill="#000000" ></path><path d="M528 325.28L528 714.72C528.001 715.33 527.987 715.94 527.958 716.55C527.929 717.16 527.885 717.769 527.826 718.376C527.767 718.983 527.694 719.589 527.605 720.193C527.516 720.797 527.413 721.398 527.294 721.997C527.176 722.596 527.043 723.192 526.895 723.784C526.748 724.376 526.586 724.964 526.409 725.549C526.232 726.133 526.042 726.713 525.837 727.288C525.632 727.863 525.412 728.432 525.179 728.996C524.946 729.561 524.7 730.119 524.439 730.671C524.178 731.223 523.904 731.768 523.617 732.306C523.33 732.845 523.029 733.376 522.716 733.9C522.402 734.423 522.076 734.939 521.737 735.447C521.398 735.954 521.047 736.453 520.683 736.944C520.32 737.434 519.944 737.915 519.557 738.387C519.17 738.859 518.772 739.321 518.362 739.774C517.952 740.226 517.531 740.668 517.1 741.1C516.668 741.531 516.226 741.952 515.774 742.362C515.321 742.772 514.859 743.17 514.387 743.557C513.916 743.944 513.435 744.32 512.944 744.683C512.453 745.047 511.954 745.398 511.447 745.737C510.939 746.076 510.423 746.402 509.9 746.716C509.376 747.029 508.845 747.33 508.306 747.617C507.768 747.904 507.223 748.178 506.671 748.439C506.119 748.7 505.561 748.946 504.996 749.179C504.432 749.412 503.863 749.632 503.288 749.837C502.713 750.042 502.133 750.232 501.549 750.409C500.964 750.586 500.376 750.748 499.784 750.895C499.192 751.043 498.596 751.176 497.997 751.294C497.398 751.413 496.797 751.516 496.193 751.605C495.589 751.694 494.983 751.767 494.376 751.826C493.769 751.885 493.16 751.929 492.55 751.958C491.941 751.987 491.331 752.001 490.72 752L272 752L272 288L490.72 288C491.331 287.999 491.941 288.013 492.55 288.042C493.16 288.071 493.769 288.115 494.376 288.174C494.983 288.233 495.589 288.306 496.193 288.395C496.797 288.484 497.398 288.587 497.997 288.706C498.596 288.824 499.192 288.957 499.784 289.105C500.377 289.252 500.965 289.414 501.549 289.591C502.133 289.768 502.713 289.958 503.288 290.163C503.863 290.368 504.432 290.588 504.996 290.821C505.561 291.054 506.119 291.3 506.671 291.561C507.223 291.822 507.768 292.096 508.306 292.383C508.845 292.67 509.376 292.971 509.9 293.284C510.423 293.598 510.939 293.924 511.447 294.263C511.954 294.602 512.453 294.953 512.944 295.317C513.435 295.68 513.916 296.055 514.387 296.442C514.859 296.829 515.321 297.228 515.774 297.638C516.226 298.048 516.668 298.469 517.1 298.9C517.531 299.332 517.952 299.774 518.362 300.226C518.772 300.679 519.17 301.141 519.557 301.613C519.944 302.084 520.32 302.565 520.683 303.056C521.047 303.547 521.398 304.046 521.737 304.553C522.076 305.061 522.402 305.577 522.716 306.1C523.029 306.624 523.33 307.155 523.617 307.694C523.904 308.232 524.178 308.777 524.439 309.329C524.7 309.881 524.946 310.439 525.179 311.004C525.412 311.568 525.632 312.137 525.837 312.712C526.042 313.287 526.232 313.867 526.409 314.451C526.586 315.035 526.748 315.623 526.895 316.216C527.043 316.808 527.176 317.404 527.294 318.003C527.413 318.602 527.516 319.203 527.605 319.807C527.694 320.411 527.767 321.017 527.826 321.624C527.885 322.231 527.929 322.84 527.958 323.45C527.987 324.059 528.001 324.669 528 325.28Z"   fill="#000000" ></path><path d="M512 325.28L512 714.72C512.001 715.33 511.987 715.94 511.958 716.55C511.929 717.16 511.885 717.769 511.826 718.376C511.767 718.983 511.694 719.589 511.605 720.193C511.516 720.797 511.413 721.398 511.294 721.997C511.176 722.596 511.043 723.192 510.895 723.784C510.748 724.376 510.586 724.964 510.409 725.549C510.232 726.133 510.042 726.713 509.837 727.288C509.632 727.863 509.412 728.432 509.179 728.996C508.946 729.561 508.7 730.119 508.439 730.671C508.178 731.223 507.904 731.768 507.617 732.306C507.33 732.845 507.029 733.376 506.716 733.9C506.402 734.423 506.076 734.939 505.737 735.447C505.398 735.954 505.047 736.453 504.683 736.944C504.32 737.435 503.945 737.916 503.558 738.387C503.171 738.859 502.772 739.321 502.362 739.774C501.952 740.226 501.531 740.668 501.1 741.1C500.668 741.531 500.226 741.952 499.774 742.362C499.321 742.772 498.859 743.17 498.387 743.557C497.916 743.944 497.435 744.32 496.944 744.683C496.453 745.047 495.954 745.398 495.447 745.737C494.939 746.076 494.423 746.402 493.9 746.716C493.376 747.029 492.845 747.33 492.306 747.617C491.768 747.904 491.223 748.178 490.671 748.439C490.119 748.7 489.561 748.946 488.996 749.179C488.432 749.412 487.863 749.632 487.288 749.837C486.713 750.042 486.133 750.232 485.549 750.409C484.965 750.586 484.377 750.748 483.784 750.895C483.192 751.043 482.596 751.176 481.997 751.294C481.398 751.413 480.797 751.516 480.193 751.605C479.589 751.694 478.983 751.767 478.376 751.826C477.769 751.885 477.16 751.929 476.55 751.958C475.941 751.987 475.331 752.001 474.72 752L272 752L272 288L474.72 288C475.331 287.999 475.941 288.013 476.55 288.042C477.16 288.071 477.769 288.115 478.376 288.174C478.983 288.233 479.589 288.306 480.193 288.395C480.797 288.484 481.398 288.587 481.997 288.706C482.596 288.824 483.192 288.957 483.784 289.105C484.376 289.252 484.964 289.414 485.549 289.591C486.133 289.768 486.713 289.958 487.288 290.163C487.863 290.368 488.432 290.588 488.996 290.821C489.561 291.054 490.119 291.3 490.671 291.561C491.223 291.822 491.768 292.096 492.306 292.383C492.845 292.67 493.376 292.971 493.9 293.284C494.423 293.598 494.939 293.924 495.447 294.263C495.954 294.602 496.453 294.953 496.944 295.317C497.435 295.68 497.916 296.055 498.387 296.442C498.859 296.829 499.321 297.228 499.774 297.638C500.226 298.048 500.668 298.469 501.1 298.9C501.531 299.332 501.952 299.774 502.362 300.226C502.772 300.679 503.17 301.141 503.557 301.613C503.944 302.084 504.32 302.565 504.683 303.056C505.047 303.547 505.398 304.046 505.737 304.553C506.076 305.061 506.402 305.577 506.716 306.1C507.029 306.624 507.33 307.155 507.617 307.694C507.904 308.232 508.178 308.777 508.439 309.329C508.7 309.881 508.946 310.439 509.179 311.004C509.412 311.568 509.632 312.137 509.837 312.712C510.042 313.287 510.232 313.867 510.409 314.451C510.586 315.035 510.748 315.623 510.895 316.216C511.043 316.808 511.176 317.404 511.294 318.003C511.413 318.602 511.516 319.203 511.605 319.807C511.694 320.411 511.767 321.017 511.826 321.624C511.885 322.231 511.929 322.84 511.958 323.45C511.987 324.059 512.001 324.669 512 325.28Z"   fill="#000000" ></path><path d="M101.328 288L474.672 288C499.557 288 512 300.443 512 325.328L512 698.672C512 723.557 499.557 736 474.672 736L101.328 736C76.4427 736 64 723.557 64 698.672L64 325.328C64 300.443 76.4427 288 101.328 288Z"   fill="#185ABD" ></path><path d="M217.184 574.272C217.92 580.032 218.4 585.051 218.624 589.328L219.472 589.328C219.803 585.275 220.448 580.368 221.408 574.608C222.368 568.848 223.301 563.995 224.208 560.048L263.472 390.672L314.24 390.672L354.848 557.52C357.231 567.899 358.921 578.39 359.92 588.992L360.608 588.992C361.365 578.753 362.773 568.603 364.832 558.544L397.312 390.672L443.52 390.672L386.656 633.328L332.672 633.328L293.92 472.576C292.8 467.947 291.531 461.909 290.112 454.464C288.704 447.019 287.829 441.605 287.488 438.224L286.816 438.224C286.368 442.171 285.493 448.037 284.192 455.824C282.891 463.611 281.851 469.36 281.072 473.072L244.688 633.328L189.856 633.328L132.48 390.672L179.52 390.672L214.896 560.4C215.685 563.899 216.448 568.523 217.184 574.272Z"   fill="#FFFFFF" ></path></g><defs><clipPath id="clip-path-p20_Mu1pvOts9YaKD0I0_"><path d="M0 1024L1024 1024L1024 0L0 0L0 1024Z" fill="white"/></clipPath></defs></svg>