<svg xmlns="http://www.w3.org/2000/svg" xmlns:xlink="http://www.w3.org/1999/xlink" width="1024" height="1024" viewBox="0 0 1024 1024" fill="none"><path d="M146.88 0C146.051 0.0228773 145.222 0.065444 144.395 0.1277C143.568 0.189956 142.743 0.271831 141.92 0.373326C141.097 0.47482 140.276 0.595819 139.459 0.736322C138.641 0.876825 137.827 1.03667 137.017 1.21587C136.208 1.39506 135.403 1.5934 134.602 1.81088C133.801 2.02836 133.006 2.26474 132.217 2.52002C131.428 2.77529 130.645 3.04918 129.869 3.34167C129.093 3.63416 128.324 3.94494 127.563 4.27399C126.801 4.60304 126.048 4.94999 125.303 5.31486C124.558 5.67973 123.822 6.06209 123.095 6.46194C122.368 6.86179 121.652 7.27869 120.945 7.71263C120.238 8.14657 119.541 8.59706 118.856 9.06411C118.171 9.53116 117.497 10.0142 116.834 10.5133C116.171 11.0124 115.521 11.527 114.883 12.057C114.245 12.587 113.62 13.1319 113.008 13.6916C112.395 14.2513 111.797 14.8253 111.212 15.4135C110.627 16.0017 110.057 16.6035 109.5 17.2188C108.944 17.8341 108.403 18.4623 107.876 19.1034C107.35 19.7445 106.839 20.3977 106.344 21.0631C105.849 21.7284 105.369 22.4052 104.906 23.0934C104.443 23.7815 103.996 24.4803 103.566 25.1897C103.136 25.899 102.723 26.6182 102.328 27.3473C101.932 28.0763 101.554 28.8143 101.193 29.5613C100.832 30.3083 100.49 31.0634 100.165 31.8267C99.8401 32.59 99.5337 33.3606 99.2456 34.1385C98.9575 34.9164 98.688 35.7006 98.4372 36.4913C98.1864 37.282 97.9545 38.0781 97.7415 38.8798C97.5286 39.6815 97.3348 40.4879 97.1602 41.2988C96.9855 42.1097 96.8303 42.9243 96.6944 43.7426C96.5585 44.5609 96.4422 45.3819 96.3453 46.2058C96.2484 47.0296 96.1712 47.8553 96.1137 48.6828C96.0561 49.5103 96.0182 50.3387 96 51.168L96 972.816C95.9962 973.65 96.0137 974.483 96.0524 975.316C96.0911 976.149 96.1511 976.981 96.2323 977.811C96.3134 978.641 96.4157 979.468 96.5391 980.293C96.6624 981.118 96.8067 981.939 96.972 982.756C97.1372 983.573 97.3232 984.386 97.5299 985.194C97.7366 986.001 97.9637 986.803 98.2113 987.6C98.459 988.396 98.7267 989.185 99.0146 989.968C99.3025 990.751 99.6101 991.525 99.9376 992.292C100.265 993.059 100.612 993.818 100.978 994.567C101.344 995.316 101.729 996.056 102.133 996.785C102.536 997.515 102.958 998.234 103.399 998.942C103.84 999.647 104.298 1000.34 104.774 1001.03C105.25 1001.72 105.743 1002.39 106.253 1003.05C106.764 1003.71 107.29 1004.36 107.833 1004.99C108.376 1005.62 108.936 1006.23 109.511 1006.84C110.086 1007.45 110.675 1008.04 111.28 1008.61C111.853 1009.21 112.441 1009.79 113.044 1010.36C113.647 1010.93 114.263 1011.49 114.894 1012.03C115.525 1012.57 116.168 1013.09 116.824 1013.6C117.481 1014.11 118.15 1014.6 118.831 1015.07C119.512 1015.54 120.205 1016 120.908 1016.44C121.612 1016.88 122.327 1017.3 123.052 1017.7C123.777 1018.11 124.511 1018.49 125.255 1018.86C126 1019.23 126.753 1019.58 127.514 1019.91C128.275 1020.24 129.045 1020.55 129.822 1020.84C130.599 1021.13 131.383 1021.4 132.174 1021.65C132.965 1021.9 133.761 1022.14 134.563 1022.35C135.365 1022.56 136.172 1022.75 136.984 1022.92C137.796 1023.09 138.612 1023.25 139.431 1023.38C140.25 1023.51 141.072 1023.62 141.897 1023.71C142.722 1023.8 143.548 1023.87 144.377 1023.92C145.205 1023.97 146.034 1023.99 146.864 1024L893.151 1024C893.981 1024 894.811 1023.98 895.642 1023.94C896.471 1023.9 897.298 1023.84 898.124 1023.76C898.951 1023.67 899.775 1023.57 900.595 1023.45C901.417 1023.32 902.234 1023.18 903.047 1023.01C903.861 1022.84 904.669 1022.65 905.473 1022.44C906.277 1022.23 907.075 1022.01 907.867 1021.76C908.659 1021.51 909.444 1021.24 910.223 1020.95C911.001 1020.66 911.771 1020.35 912.533 1020.02C913.296 1019.69 914.049 1019.34 914.793 1018.97C915.538 1018.6 916.273 1018.22 916.997 1017.81C917.722 1017.41 918.436 1016.99 919.138 1016.54C919.842 1016.1 920.533 1015.64 921.214 1015.16C921.892 1014.69 922.559 1014.19 923.214 1013.68C923.866 1013.17 924.507 1012.64 925.133 1012.09C925.76 1011.55 926.372 1010.99 926.97 1010.41C927.568 1009.84 928.151 1009.25 928.719 1008.64C929.315 1008.06 929.897 1007.46 930.463 1006.85C931.03 1006.24 931.58 1005.61 932.116 1004.98C932.653 1004.34 933.172 1003.69 933.676 1003.03C934.179 1002.36 934.666 1001.69 935.137 1001C935.607 1000.31 936.06 999.614 936.496 998.905C936.932 998.195 937.351 997.475 937.752 996.745C938.152 996.014 938.534 995.275 938.898 994.526C939.262 993.777 939.608 993.019 939.934 992.253C940.262 991.487 940.57 990.713 940.858 989.932C941.147 989.151 941.416 988.363 941.666 987.568C941.916 986.773 942.146 985.973 942.356 985.167C942.567 984.361 942.757 983.55 942.927 982.735C943.098 981.92 943.249 981.101 943.379 980.278C943.508 979.455 943.618 978.63 943.707 977.802C943.797 976.974 943.867 976.144 943.916 975.312C943.963 974.481 943.991 973.649 943.999 972.816L943.999 290.016L655.679 0L146.848 0L146.864 0L146.88 0Z"   fill="#FF8F1F" ></path><path d="M944 288L706.848 288C706.022 287.98 705.197 287.94 704.373 287.881C703.548 287.822 702.726 287.743 701.906 287.645C701.085 287.546 700.267 287.428 699.453 287.291C698.638 287.154 697.827 286.997 697.02 286.822C696.212 286.646 695.41 286.451 694.612 286.237C693.814 286.023 693.021 285.79 692.234 285.539C691.447 285.287 690.667 285.017 689.892 284.728C689.118 284.439 688.351 284.132 687.592 283.807C686.832 283.482 686.081 283.138 685.338 282.777C684.595 282.416 683.86 282.038 683.135 281.642C682.41 281.246 681.694 280.833 680.989 280.403C680.283 279.974 679.588 279.527 678.904 279.064C678.219 278.601 677.546 278.122 676.885 277.627C676.223 277.132 675.573 276.622 674.936 276.096C674.298 275.57 673.674 275.029 673.063 274.474C672.451 273.919 671.853 273.349 671.269 272.765C670.684 272.181 670.114 271.583 669.558 270.972C669.002 270.361 668.461 269.737 667.934 269.1C667.407 268.463 666.896 267.814 666.401 267.153C665.905 266.492 665.425 265.82 664.962 265.136C664.499 264.452 664.052 263.757 663.621 263.052C663.19 262.347 662.777 261.632 662.38 260.907C661.983 260.182 661.604 259.448 661.243 258.705C660.881 257.962 660.537 257.211 660.211 256.452C659.885 255.693 659.577 254.926 659.288 254.152C658.999 253.378 658.728 252.598 658.475 251.811C658.222 251.024 657.989 250.232 657.774 249.434C657.559 248.637 657.364 247.834 657.187 247.027C657.011 246.22 656.854 245.409 656.716 244.594C656.578 243.779 656.459 242.962 656.36 242.142C656.261 241.321 656.181 240.499 656.121 239.675C656.061 238.851 656.021 238.026 656 237.2L656 0L943.952 288L944 288Z"   fill="#FFFFFF" fill-opacity="0.7"></path><path d="M318.016 751.999L457.28 751.999L457.28 713.599L374.336 713.599L456.512 588.927L456.512 561.279L325.952 561.279L325.952 599.423L400.192 599.423L318.016 724.351L318.016 751.999ZM488.512 751.999L534.336 751.999L534.336 561.279L488.512 561.279L488.512 751.999ZM578.112 751.999L623.936 751.999L623.936 688.767L646.208 688.767C686.656 688.767 721.472 668.799 721.472 623.487C721.472 576.383 686.912 561.279 645.184 561.279L578.112 561.279L578.112 751.999ZM623.936 652.671L623.936 597.631L642.624 597.631C664.64 597.631 676.928 604.287 676.928 623.487C676.928 642.175 666.176 652.671 643.904 652.671L623.936 652.671Z"   fill="#FFFFFF" ></path></svg>